<svg width="307" height="298" viewBox="0 0 307 298" fill="none" xmlns="http://www.w3.org/2000/svg">
<rect x="0.5" y="0.5" width="306" height="297" rx="19.5" stroke="white"/>
<path d="M270.966 23.8935C269.253 23.5915 267.922 22.2245 267.693 20.4955C267.661 20.2565 267.347 20.1885 267.261 20.4365C266.942 21.3565 266.572 22.2995 265.901 23.0265C265.573 23.3825 265.172 23.6675 264.722 23.8475C264.277 24.0255 263.833 24.0045 263.371 24.0725C263.334 24.0785 263.329 24.1365 263.361 24.1525C263.397 24.1705 263.435 24.1845 263.473 24.1985C263.418 24.2225 263.364 24.2535 263.312 24.2945C263.261 24.3355 263.251 24.4345 263.287 24.4875C263.536 24.8505 263.976 24.8505 264.365 25.0035C264.791 25.1695 265.196 25.4095 265.55 25.6995C266.238 26.2635 266.868 27.1015 267.002 28.0015C267.05 28.3265 267.604 28.3235 267.656 28.0015C267.933 26.2845 269.236 24.9495 270.966 24.6815C271.361 24.6205 271.353 23.9615 270.966 23.8935Z" fill="#F0F1E3"/>
<path d="M271.039 23.6224C270.07 23.4384 269.193 22.9214 268.619 22.1084C268.349 21.7264 268.154 21.2984 268.043 20.8444C267.959 20.5035 267.954 20.0334 267.496 20.0014C267.027 19.9684 266.942 20.5064 266.816 20.8424C266.615 21.3794 266.378 21.9075 266.054 22.3825C265.734 22.8515 265.314 23.2574 264.8 23.5064C264.473 23.6654 264.138 23.7124 263.781 23.7464C263.573 23.7664 263.288 23.7384 263.14 23.9094C263.051 24.0124 263.039 24.1294 263.096 24.2494C263.16 24.3844 263.265 24.4144 263.396 24.4684C263.374 24.2974 263.351 24.1264 263.329 23.9544C262.907 24.1684 262.9 24.5665 263.254 24.8605C263.646 25.1855 264.231 25.2174 264.677 25.4544C265.223 25.7444 265.704 26.1555 266.081 26.6455C266.265 26.8835 266.425 27.1444 266.543 27.4214C266.649 27.6704 266.653 27.9774 266.777 28.2114C266.942 28.5224 267.37 28.6094 267.663 28.4324C268.027 28.2134 268.005 27.6134 268.146 27.2514C268.524 26.2764 269.326 25.4864 270.311 25.1344C270.718 24.9884 271.306 25.0304 271.488 24.5584C271.637 24.1724 271.44 23.7374 271.039 23.6224C270.691 23.5234 270.542 24.0654 270.89 24.1644C270.966 24.1864 271.001 24.2724 270.969 24.3484C270.935 24.4264 270.86 24.4114 270.782 24.4284C270.537 24.4814 270.298 24.5395 270.063 24.6305C269.628 24.7975 269.229 25.0284 268.869 25.3244C268.163 25.9034 267.661 26.7245 267.447 27.6105C267.412 27.7545 267.351 28.1734 267.251 27.8104C267.186 27.5724 267.122 27.3435 267.02 27.1175C266.801 26.6325 266.474 26.1954 266.099 25.8204C265.705 25.4264 265.242 25.0935 264.736 24.8605C264.51 24.7565 264.28 24.6824 264.041 24.6134C263.937 24.5834 263.827 24.5595 263.731 24.5075C263.662 24.4755 263.602 24.4304 263.55 24.3734C263.499 24.4934 263.52 24.5164 263.613 24.4424C263.853 24.3204 263.748 24.0124 263.546 23.9284C263.509 23.9134 263.472 23.8975 263.434 23.8825C263.49 23.9255 263.546 23.9684 263.602 24.0114C263.595 23.9974 263.588 23.9824 263.581 23.9674C263.566 24.0814 263.552 24.1944 263.537 24.3074C263.547 24.2954 263.558 24.2835 263.568 24.2715C263.502 24.2984 263.436 24.3264 263.369 24.3534C263.917 24.2814 264.461 24.2754 264.973 24.0424C265.417 23.8405 265.815 23.5394 266.14 23.1764C266.484 22.7924 266.758 22.3514 266.981 21.8874C267.093 21.6534 267.194 21.4134 267.288 21.1714C267.337 21.0464 267.431 20.8844 267.445 20.7514C267.459 20.7114 267.473 20.6714 267.488 20.6314C267.412 20.5354 267.394 20.5515 267.436 20.6775C267.435 21.0745 267.664 21.5544 267.839 21.9014C268.029 22.2764 268.28 22.6255 268.572 22.9275C269.195 23.5715 270.011 23.9965 270.889 24.1635C271.243 24.2315 271.395 23.6894 271.039 23.6224Z" fill="black"/>
<path d="M296.875 35.7098C294.259 35.2488 292.228 33.1618 291.878 30.5228C291.829 30.1578 291.349 30.0538 291.218 30.4338C290.731 31.8388 290.166 33.2778 289.142 34.3878C288.641 34.9308 288.03 35.3668 287.342 35.6418C286.662 35.9138 285.985 35.8818 285.279 35.9858C285.223 35.9938 285.215 36.0828 285.263 36.1068C285.319 36.1348 285.376 36.1558 285.434 36.1768C285.35 36.2128 285.268 36.2608 285.188 36.3238C285.11 36.3858 285.094 36.5378 285.15 36.6188C285.53 37.1728 286.202 37.1738 286.796 37.4058C287.446 37.6598 288.065 38.0268 288.605 38.4688C289.655 39.3298 290.618 40.6088 290.822 41.9828C290.896 42.4798 291.741 42.4748 291.82 41.9828C292.243 39.3608 294.232 37.3228 296.874 36.9138C297.477 36.8198 297.465 35.8138 296.875 35.7098Z" fill="#F0F1E3"/>
<path d="M296.952 35.4392C295.434 35.1502 294.065 34.3322 293.168 33.0602C292.75 32.4672 292.446 31.8002 292.273 31.0952C292.166 30.6572 292.185 29.9652 291.581 29.9172C290.954 29.8682 290.85 30.6542 290.686 31.0922C290.375 31.9242 290.01 32.7422 289.508 33.4782C289.005 34.2152 288.348 34.8542 287.54 35.2472C287.016 35.5022 286.482 35.5792 285.91 35.6342C285.635 35.6612 285.231 35.6142 285.036 35.8402C284.947 35.9432 284.935 36.0602 284.992 36.1802C285.072 36.3512 285.191 36.3762 285.362 36.4462C285.34 36.2752 285.317 36.1042 285.295 35.9322C284.748 36.2102 284.728 36.6822 285.195 37.0712C285.782 37.5602 286.683 37.6102 287.352 37.9662C288.202 38.4182 288.95 39.0602 289.538 39.8222C289.827 40.1972 290.077 40.6032 290.262 41.0402C290.42 41.4122 290.429 41.8802 290.612 42.2292C290.825 42.6332 291.382 42.7432 291.763 42.5132C291.974 42.3852 292.053 42.2062 292.108 41.9752C292.203 41.5762 292.283 41.1842 292.431 40.7992C293.023 39.2582 294.286 38.0202 295.84 37.4632C296.396 37.2642 297.274 37.3252 297.533 36.6882C297.742 36.1762 297.485 35.5912 296.952 35.4392C296.604 35.3402 296.455 35.8822 296.803 35.9812C296.998 36.0372 297.1 36.2522 297.027 36.4452C296.953 36.6402 296.819 36.6292 296.639 36.6712C296.265 36.7592 295.9 36.8412 295.541 36.9792C294.903 37.2242 294.311 37.5662 293.783 38.0002C292.723 38.8702 291.972 40.0932 291.651 41.4242C291.622 41.5452 291.625 41.8042 291.554 41.9092C291.314 42.2602 291.15 41.9862 291.067 41.7302C290.955 41.3852 290.88 41.0422 290.729 40.7072C290.4 39.9772 289.91 39.3212 289.345 38.7562C288.752 38.1632 288.056 37.6652 287.294 37.3132C286.961 37.1602 286.621 37.0522 286.269 36.9512C286.083 36.8972 285.175 36.6262 285.58 36.4202C285.82 36.2982 285.715 35.9902 285.513 35.9062C285.502 35.9032 285.49 35.9012 285.479 35.8982C285.464 36.0122 285.45 36.1252 285.435 36.2382C285.527 36.1322 286.444 36.1452 286.604 36.1202C286.971 36.0632 287.32 35.9642 287.658 35.8112C288.326 35.5082 288.922 35.0572 289.41 34.5122C289.927 33.9352 290.336 33.2712 290.67 32.5742C290.836 32.2282 290.985 31.8732 291.124 31.5162C291.203 31.3132 291.254 31.0612 291.363 30.8742C291.385 30.8132 291.406 30.7522 291.428 30.6902C291.589 30.5342 291.658 30.5582 291.634 30.7602C291.756 31.0452 291.767 31.4112 291.867 31.7122C291.967 32.0142 292.092 32.3092 292.235 32.5932C292.519 33.1562 292.893 33.6772 293.331 34.1302C294.265 35.0972 295.487 35.7292 296.803 35.9792C297.156 36.0482 297.308 35.5072 296.952 35.4392Z" fill="black"/>
<path d="M160.012 41.7948C157.396 41.3338 155.365 39.2468 155.015 36.6078C154.966 36.2428 154.486 36.1388 154.355 36.5188C153.868 37.9238 153.303 39.3628 152.279 40.4728C151.778 41.0158 151.167 41.4518 150.479 41.7268C149.799 41.9988 149.122 41.9668 148.416 42.0708C148.36 42.0788 148.352 42.1678 148.4 42.1918C148.456 42.2198 148.513 42.2408 148.571 42.2618C148.487 42.2978 148.405 42.3458 148.325 42.4088C148.247 42.4708 148.231 42.6228 148.287 42.7038C148.667 43.2578 149.339 43.2588 149.933 43.4908C150.583 43.7448 151.202 44.1118 151.742 44.5538C152.792 45.4148 153.755 46.6938 153.959 48.0678C154.033 48.5648 154.878 48.5598 154.957 48.0678C155.38 45.4458 157.369 43.4078 160.011 42.9988C160.614 42.9048 160.602 41.8988 160.012 41.7948Z" fill="#F0F1E3"/>
<path d="M160.089 41.5242C158.571 41.2352 157.202 40.4172 156.305 39.1452C155.887 38.5522 155.583 37.8852 155.41 37.1802C155.303 36.7422 155.322 36.0502 154.718 36.0022C154.091 35.9532 153.987 36.7392 153.823 37.1772C153.512 38.0092 153.147 38.8272 152.645 39.5632C152.142 40.3002 151.485 40.9392 150.677 41.3322C150.153 41.5872 149.619 41.6642 149.047 41.7192C148.772 41.7462 148.368 41.6992 148.173 41.9252C148.084 42.0282 148.072 42.1452 148.129 42.2652C148.209 42.4362 148.328 42.4612 148.499 42.5312C148.477 42.3602 148.454 42.1892 148.432 42.0172C147.885 42.2952 147.865 42.7672 148.332 43.1562C148.919 43.6452 149.82 43.6952 150.489 44.0512C151.339 44.5032 152.087 45.1452 152.675 45.9072C152.964 46.2822 153.214 46.6882 153.399 47.1252C153.557 47.4972 153.566 47.9652 153.749 48.3142C153.962 48.7182 154.519 48.8282 154.9 48.5982C155.111 48.4702 155.19 48.2912 155.245 48.0602C155.34 47.6612 155.42 47.2692 155.568 46.8842C156.16 45.3432 157.423 44.1052 158.977 43.5482C159.533 43.3492 160.411 43.4102 160.67 42.7732C160.879 42.2612 160.622 41.6762 160.089 41.5242C159.741 41.4252 159.592 41.9672 159.94 42.0662C160.135 42.1222 160.237 42.3372 160.164 42.5302C160.09 42.7252 159.956 42.7142 159.776 42.7562C159.402 42.8442 159.037 42.9262 158.678 43.0642C158.04 43.3092 157.448 43.6512 156.92 44.0852C155.86 44.9552 155.109 46.1782 154.788 47.5092C154.759 47.6302 154.762 47.8892 154.691 47.9942C154.451 48.3452 154.287 48.0712 154.204 47.8152C154.092 47.4702 154.017 47.1272 153.866 46.7922C153.537 46.0622 153.047 45.4062 152.482 44.8412C151.889 44.2482 151.193 43.7502 150.431 43.3982C150.098 43.2452 149.758 43.1372 149.406 43.0362C149.22 42.9822 148.312 42.7112 148.717 42.5052C148.957 42.3832 148.852 42.0752 148.65 41.9912C148.639 41.9882 148.627 41.9862 148.616 41.9832C148.601 42.0972 148.587 42.2102 148.572 42.3232C148.664 42.2172 149.581 42.2302 149.741 42.2052C150.108 42.1482 150.457 42.0492 150.795 41.8962C151.463 41.5932 152.059 41.1422 152.547 40.5972C153.064 40.0202 153.473 39.3562 153.807 38.6592C153.973 38.3132 154.122 37.9582 154.261 37.6012C154.34 37.3982 154.391 37.1462 154.5 36.9592C154.522 36.8982 154.543 36.8372 154.565 36.7752C154.726 36.6192 154.795 36.6432 154.771 36.8452C154.893 37.1302 154.904 37.4962 155.004 37.7972C155.104 38.0992 155.229 38.3942 155.372 38.6782C155.656 39.2412 156.03 39.7622 156.468 40.2152C157.402 41.1822 158.624 41.8142 159.94 42.0642C160.293 42.1332 160.445 41.5922 160.089 41.5242Z" fill="black"/>
<path d="M160.012 123.795C157.396 123.334 155.365 121.247 155.015 118.608C154.966 118.243 154.486 118.139 154.355 118.519C153.868 119.924 153.303 121.363 152.279 122.473C151.778 123.016 151.167 123.452 150.479 123.727C149.799 123.999 149.122 123.967 148.416 124.071C148.36 124.079 148.352 124.168 148.4 124.192C148.456 124.22 148.513 124.241 148.571 124.262C148.487 124.298 148.405 124.346 148.325 124.409C148.247 124.471 148.231 124.623 148.287 124.704C148.667 125.258 149.339 125.259 149.933 125.491C150.583 125.745 151.202 126.112 151.742 126.554C152.792 127.415 153.755 128.694 153.959 130.068C154.033 130.565 154.878 130.56 154.957 130.068C155.38 127.446 157.369 125.408 160.011 124.999C160.614 124.905 160.602 123.899 160.012 123.795Z" fill="#F0F1E3"/>
<path d="M160.089 123.524C158.571 123.235 157.202 122.417 156.305 121.145C155.887 120.552 155.583 119.885 155.41 119.18C155.303 118.742 155.322 118.05 154.718 118.002C154.091 117.953 153.987 118.739 153.823 119.177C153.512 120.009 153.147 120.827 152.645 121.563C152.142 122.3 151.485 122.939 150.677 123.332C150.153 123.587 149.619 123.664 149.047 123.719C148.772 123.746 148.368 123.699 148.173 123.925C148.084 124.028 148.072 124.145 148.129 124.265C148.209 124.436 148.328 124.461 148.499 124.531C148.477 124.36 148.454 124.189 148.432 124.017C147.885 124.295 147.865 124.767 148.332 125.156C148.919 125.645 149.82 125.695 150.489 126.051C151.339 126.503 152.087 127.145 152.675 127.907C152.964 128.282 153.214 128.688 153.399 129.125C153.557 129.497 153.566 129.965 153.749 130.314C153.962 130.718 154.519 130.828 154.9 130.598C155.111 130.47 155.19 130.291 155.245 130.06C155.34 129.661 155.42 129.269 155.568 128.884C156.16 127.343 157.423 126.105 158.977 125.548C159.533 125.349 160.411 125.41 160.67 124.773C160.879 124.261 160.622 123.676 160.089 123.524C159.741 123.425 159.592 123.967 159.94 124.066C160.135 124.122 160.237 124.337 160.164 124.53C160.09 124.725 159.956 124.714 159.776 124.756C159.402 124.844 159.037 124.926 158.678 125.064C158.04 125.309 157.448 125.651 156.92 126.085C155.86 126.955 155.109 128.178 154.788 129.509C154.759 129.63 154.762 129.889 154.691 129.994C154.451 130.345 154.287 130.071 154.204 129.815C154.092 129.47 154.017 129.127 153.866 128.792C153.537 128.062 153.047 127.406 152.482 126.841C151.889 126.248 151.193 125.75 150.431 125.398C150.098 125.245 149.758 125.137 149.406 125.036C149.22 124.982 148.312 124.711 148.717 124.505C148.957 124.383 148.852 124.075 148.65 123.991C148.639 123.988 148.627 123.986 148.616 123.983C148.601 124.097 148.587 124.21 148.572 124.323C148.664 124.217 149.581 124.23 149.741 124.205C150.108 124.148 150.457 124.049 150.795 123.896C151.463 123.593 152.059 123.142 152.547 122.597C153.064 122.02 153.473 121.356 153.807 120.659C153.973 120.313 154.122 119.958 154.261 119.601C154.34 119.398 154.391 119.146 154.5 118.959C154.522 118.898 154.543 118.837 154.565 118.775C154.726 118.619 154.795 118.643 154.771 118.845C154.893 119.13 154.904 119.496 155.004 119.797C155.104 120.099 155.229 120.394 155.372 120.678C155.656 121.241 156.03 121.762 156.468 122.215C157.402 123.182 158.624 123.814 159.94 124.064C160.293 124.133 160.445 123.592 160.089 123.524Z" fill="black"/>
<path d="M160.012 214.795C157.396 214.334 155.365 212.247 155.015 209.608C154.966 209.243 154.486 209.139 154.355 209.519C153.868 210.924 153.303 212.363 152.279 213.473C151.778 214.016 151.167 214.452 150.479 214.727C149.799 214.999 149.122 214.967 148.416 215.071C148.36 215.079 148.352 215.168 148.4 215.192C148.456 215.22 148.513 215.241 148.571 215.262C148.487 215.298 148.405 215.346 148.325 215.409C148.247 215.471 148.231 215.623 148.287 215.704C148.667 216.258 149.339 216.259 149.933 216.491C150.583 216.745 151.202 217.112 151.742 217.554C152.792 218.415 153.755 219.694 153.959 221.068C154.033 221.565 154.878 221.56 154.957 221.068C155.38 218.446 157.369 216.408 160.011 215.999C160.614 215.905 160.602 214.899 160.012 214.795Z" fill="#F0F1E3"/>
<path d="M160.089 214.524C158.571 214.235 157.202 213.417 156.305 212.145C155.887 211.552 155.583 210.885 155.41 210.18C155.303 209.742 155.322 209.05 154.718 209.002C154.091 208.953 153.987 209.739 153.823 210.177C153.512 211.009 153.147 211.827 152.645 212.563C152.142 213.3 151.485 213.939 150.677 214.332C150.153 214.587 149.619 214.664 149.047 214.719C148.772 214.746 148.368 214.699 148.173 214.925C148.084 215.028 148.072 215.145 148.129 215.265C148.209 215.436 148.328 215.461 148.499 215.531C148.477 215.36 148.454 215.189 148.432 215.017C147.885 215.295 147.865 215.767 148.332 216.156C148.919 216.645 149.82 216.695 150.489 217.051C151.339 217.503 152.087 218.145 152.675 218.907C152.964 219.282 153.214 219.688 153.399 220.125C153.557 220.497 153.566 220.965 153.749 221.314C153.962 221.718 154.519 221.828 154.9 221.598C155.111 221.47 155.19 221.291 155.245 221.06C155.34 220.661 155.42 220.269 155.568 219.884C156.16 218.343 157.423 217.105 158.977 216.548C159.533 216.349 160.411 216.41 160.67 215.773C160.879 215.261 160.622 214.676 160.089 214.524C159.741 214.425 159.592 214.967 159.94 215.066C160.135 215.122 160.237 215.337 160.164 215.53C160.09 215.725 159.956 215.714 159.776 215.756C159.402 215.844 159.037 215.926 158.678 216.064C158.04 216.309 157.448 216.651 156.92 217.085C155.86 217.955 155.109 219.178 154.788 220.509C154.759 220.63 154.762 220.889 154.691 220.994C154.451 221.345 154.287 221.071 154.204 220.815C154.092 220.47 154.017 220.127 153.866 219.792C153.537 219.062 153.047 218.406 152.482 217.841C151.889 217.248 151.193 216.75 150.431 216.398C150.098 216.245 149.758 216.137 149.406 216.036C149.22 215.982 148.312 215.711 148.717 215.505C148.957 215.383 148.852 215.075 148.65 214.991C148.639 214.988 148.627 214.986 148.616 214.983C148.601 215.097 148.587 215.21 148.572 215.323C148.664 215.217 149.581 215.23 149.741 215.205C150.108 215.148 150.457 215.049 150.795 214.896C151.463 214.593 152.059 214.142 152.547 213.597C153.064 213.02 153.473 212.356 153.807 211.659C153.973 211.313 154.122 210.958 154.261 210.601C154.34 210.398 154.391 210.146 154.5 209.959C154.522 209.898 154.543 209.837 154.565 209.775C154.726 209.619 154.795 209.643 154.771 209.845C154.893 210.13 154.904 210.496 155.004 210.797C155.104 211.099 155.229 211.394 155.372 211.678C155.656 212.241 156.03 212.762 156.468 213.215C157.402 214.182 158.624 214.814 159.94 215.064C160.293 215.133 160.445 214.592 160.089 214.524Z" fill="black"/>
<path d="M288.755 58.8534C287.042 58.5514 285.711 57.1844 285.482 55.4554C285.45 55.2164 285.136 55.1484 285.05 55.3964C284.731 56.3164 284.361 57.2594 283.69 57.9864C283.362 58.3424 282.961 58.6274 282.511 58.8074C282.066 58.9854 281.622 58.9644 281.16 59.0324C281.123 59.0384 281.118 59.0964 281.15 59.1114C281.186 59.1294 281.224 59.1434 281.262 59.1574C281.207 59.1814 281.153 59.2124 281.101 59.2534C281.05 59.2944 281.04 59.3934 281.076 59.4464C281.325 59.8084 281.765 59.8094 282.154 59.9624C282.58 60.1284 282.985 60.3694 283.339 60.6584C284.027 61.2224 284.657 62.0594 284.791 62.9604C284.839 63.2854 285.393 63.2824 285.445 62.9604C285.722 61.2434 287.025 59.9084 288.755 59.6404C289.149 59.5804 289.141 58.9214 288.755 58.8534Z" fill="#F0F1E3"/>
<path d="M288.829 58.5824C287.86 58.3984 286.983 57.8814 286.408 57.0694C286.138 56.6874 285.943 56.2594 285.832 55.8054C285.748 55.4644 285.743 54.9944 285.285 54.9624C284.816 54.9294 284.731 55.4674 284.605 55.8034C284.404 56.3404 284.167 56.8684 283.843 57.3424C283.523 57.8114 283.103 58.2174 282.589 58.4664C282.262 58.6244 281.927 58.6724 281.57 58.7064C281.362 58.7264 281.077 58.6984 280.929 58.8694C280.84 58.9724 280.828 59.0894 280.885 59.2094C280.949 59.3444 281.054 59.3744 281.185 59.4284C281.163 59.2574 281.14 59.0864 281.118 58.9144C280.697 59.1284 280.689 59.5264 281.043 59.8204C281.435 60.1454 282.02 60.1774 282.465 60.4144C283.011 60.7044 283.492 61.1154 283.869 61.6044C284.053 61.8434 284.213 62.1034 284.331 62.3804C284.437 62.6294 284.441 62.9364 284.565 63.1704C284.73 63.4814 285.158 63.5684 285.451 63.3914C285.815 63.1724 285.793 62.5724 285.934 62.2104C286.312 61.2354 287.114 60.4454 288.099 60.0934C288.506 59.9474 289.094 59.9894 289.276 59.5174C289.427 59.1324 289.23 58.6964 288.829 58.5824C288.481 58.4834 288.332 59.0254 288.68 59.1244C288.756 59.1464 288.791 59.2324 288.759 59.3094C288.726 59.3874 288.65 59.3724 288.573 59.3894C288.328 59.4424 288.089 59.5014 287.854 59.5914C287.419 59.7584 287.02 59.9894 286.66 60.2854C285.954 60.8644 285.452 61.6854 285.238 62.5714C285.203 62.7154 285.142 63.1344 285.042 62.7714C284.976 62.5334 284.913 62.3044 284.811 62.0784C284.592 61.5934 284.265 61.1564 283.89 60.7814C283.496 60.3874 283.033 60.0544 282.527 59.8214C282.301 59.7174 282.071 59.6434 281.832 59.5744C281.728 59.5444 281.618 59.5204 281.522 59.4684C281.453 59.4364 281.393 59.3914 281.341 59.3344C281.29 59.4544 281.311 59.4774 281.404 59.4034C281.644 59.2814 281.539 58.9734 281.337 58.8894C281.3 58.8744 281.263 58.8584 281.225 58.8434C281.281 58.8864 281.337 58.9294 281.393 58.9724C281.386 58.9574 281.379 58.9434 281.373 58.9284C281.358 59.0424 281.344 59.1554 281.329 59.2684C281.339 59.2564 281.35 59.2444 281.36 59.2324C281.294 59.2594 281.228 59.2874 281.161 59.3144C281.709 59.2424 282.253 59.2364 282.765 59.0034C283.209 58.8014 283.607 58.5004 283.932 58.1374C284.276 57.7534 284.55 57.3124 284.773 56.8484C284.885 56.6144 284.986 56.3744 285.08 56.1324C285.129 56.0074 285.223 55.8454 285.237 55.7124C285.251 55.6724 285.265 55.6324 285.28 55.5924C285.204 55.4964 285.187 55.5124 285.228 55.6384C285.227 56.0354 285.456 56.5154 285.631 56.8624C285.821 57.2374 286.072 57.5864 286.364 57.8884C286.987 58.5324 287.802 58.9574 288.68 59.1244C289.032 59.1914 289.184 58.6504 288.829 58.5824Z" fill="black"/>
<path d="M28.9661 243.893C27.2531 243.591 25.9221 242.224 25.6931 240.495C25.6611 240.256 25.3471 240.188 25.2611 240.436C24.9421 241.356 24.5721 242.299 23.9011 243.026C23.5731 243.382 23.1721 243.667 22.7221 243.847C22.2771 244.025 21.8331 244.004 21.3711 244.072C21.3341 244.077 21.3291 244.136 21.3611 244.152C21.3971 244.17 21.4351 244.184 21.4731 244.198C21.4181 244.222 21.3641 244.253 21.3121 244.294C21.2611 244.335 21.2511 244.434 21.2871 244.487C21.5361 244.85 21.9761 244.851 22.3651 245.003C22.7911 245.169 23.1961 245.41 23.5501 245.699C24.2381 246.263 24.8681 247.101 25.0021 248.001C25.0501 248.327 25.6041 248.323 25.6561 248.001C25.9331 246.284 27.2361 244.949 28.9661 244.681C29.3601 244.621 29.3521 243.962 28.9661 243.893Z" fill="#F0F1E3"/>
<path d="M29.0403 243.622C28.0713 243.438 27.1943 242.921 26.6203 242.108C26.3503 241.726 26.1553 241.298 26.0443 240.844C25.9613 240.503 25.9553 240.033 25.4973 240.001C25.0283 239.968 24.9433 240.506 24.8173 240.842C24.6163 241.379 24.3793 241.906 24.0553 242.381C23.7353 242.85 23.3153 243.256 22.8003 243.505C22.4733 243.663 22.1383 243.711 21.7813 243.745C21.5733 243.765 21.2883 243.737 21.1403 243.908C21.0513 244.011 21.0393 244.127 21.0963 244.248C21.1603 244.383 21.2653 244.413 21.3963 244.467C21.3743 244.296 21.3513 244.125 21.3293 243.953C20.9073 244.167 20.9003 244.565 21.2543 244.859C21.6463 245.184 22.2313 245.216 22.6773 245.453C23.2233 245.743 23.7043 246.154 24.0823 246.644C24.2663 246.882 24.4263 247.143 24.5443 247.42C24.6503 247.669 24.6543 247.976 24.7783 248.21C24.9433 248.521 25.3713 248.608 25.6643 248.431C26.0283 248.212 26.0063 247.612 26.1473 247.25C26.5253 246.275 27.3273 245.485 28.3123 245.133C28.7193 244.987 29.3073 245.029 29.4893 244.557C29.6383 244.173 29.4413 243.737 29.0403 243.622C28.6923 243.522 28.5433 244.064 28.8913 244.164C28.9673 244.186 29.0023 244.273 28.9703 244.348C28.9363 244.426 28.8613 244.412 28.7833 244.428C28.5383 244.481 28.2993 244.539 28.0643 244.63C27.6293 244.797 27.2303 245.028 26.8703 245.324C26.1643 245.903 25.6623 246.724 25.4483 247.61C25.4133 247.754 25.3523 248.173 25.2523 247.81C25.1863 247.572 25.1233 247.343 25.0213 247.117C24.8023 246.632 24.4753 246.195 24.0993 245.82C23.7053 245.426 23.2423 245.093 22.7363 244.86C22.5103 244.756 22.2803 244.682 22.0413 244.613C21.9373 244.583 21.8273 244.559 21.7313 244.507C21.6623 244.475 21.6023 244.43 21.5503 244.373C21.4993 244.493 21.5203 244.516 21.6133 244.442C21.8533 244.32 21.7483 244.012 21.5463 243.928C21.5093 243.913 21.4713 243.897 21.4343 243.882C21.4903 243.925 21.5463 243.968 21.6023 244.011C21.5953 243.997 21.5883 243.982 21.5813 243.967C21.5663 244.081 21.5523 244.194 21.5373 244.307C21.5473 244.295 21.5583 244.283 21.5683 244.271C21.5023 244.299 21.4363 244.326 21.3693 244.353C21.9173 244.281 22.4613 244.275 22.9733 244.042C23.4173 243.84 23.8153 243.539 24.1403 243.176C24.4843 242.792 24.7583 242.351 24.9813 241.887C25.0933 241.653 25.1943 241.413 25.2883 241.171C25.3373 241.046 25.4313 240.884 25.4453 240.751C25.4593 240.711 25.4733 240.671 25.4883 240.631C25.4123 240.535 25.3953 240.551 25.4363 240.677C25.4353 241.074 25.6643 241.554 25.8393 241.901C26.0293 242.276 26.2803 242.625 26.5723 242.927C27.1943 243.571 28.0113 243.996 28.8893 244.163C29.2443 244.231 29.3963 243.69 29.0403 243.622Z" fill="black"/>
<path d="M31.0122 267.793C28.3962 267.332 26.3652 265.245 26.0152 262.606C25.9662 262.241 25.4872 262.137 25.3552 262.517C24.8682 263.922 24.3032 265.361 23.2792 266.471C22.7782 267.014 22.1672 267.45 21.4792 267.725C20.7992 267.997 20.1222 267.965 19.4162 268.069C19.3602 268.077 19.3522 268.166 19.4002 268.19C19.4562 268.218 19.5132 268.239 19.5712 268.261C19.4872 268.297 19.4052 268.345 19.3252 268.408C19.2472 268.47 19.2312 268.622 19.2872 268.703C19.6672 269.257 20.3392 269.258 20.9332 269.49C21.5832 269.744 22.2022 270.111 22.7422 270.553C23.7922 271.414 24.7552 272.693 24.9592 274.067C25.0332 274.564 25.8782 274.559 25.9572 274.067C26.3802 271.445 28.3692 269.407 31.0112 268.998C31.6142 268.904 31.6022 267.898 31.0122 267.793Z" fill="#F0F1E3"/>
<path d="M31.0886 267.523C29.5706 267.234 28.2016 266.416 27.3046 265.144C26.8866 264.551 26.5826 263.884 26.4096 263.179C26.3026 262.741 26.3216 262.049 25.7176 262.001C25.0906 261.952 24.9866 262.738 24.8226 263.176C24.5116 264.008 24.1466 264.826 23.6446 265.562C23.1416 266.299 22.4846 266.938 21.6766 267.331C21.1526 267.586 20.6186 267.663 20.0466 267.718C19.7716 267.745 19.3676 267.698 19.1726 267.924C19.0836 268.027 19.0716 268.144 19.1286 268.264C19.2086 268.435 19.3276 268.46 19.4986 268.53C19.4766 268.359 19.4536 268.188 19.4316 268.016C18.8846 268.294 18.8646 268.766 19.3316 269.155C19.9186 269.644 20.8196 269.694 21.4886 270.05C22.3386 270.502 23.0866 271.144 23.6746 271.906C23.9636 272.281 24.2136 272.687 24.3986 273.124C24.5566 273.496 24.5656 273.964 24.7486 274.313C24.9616 274.717 25.5186 274.827 25.8996 274.597C26.1116 274.469 26.1896 274.29 26.2456 274.059C26.3406 273.66 26.4206 273.268 26.5686 272.883C27.1606 271.342 28.4236 270.104 29.9776 269.547C30.5336 269.348 31.4116 269.409 31.6706 268.772C31.8786 268.259 31.6216 267.675 31.0886 267.523C30.7406 267.424 30.5916 267.966 30.9396 268.065C31.1346 268.121 31.2366 268.336 31.1636 268.529C31.0896 268.724 30.9556 268.713 30.7756 268.755C30.4016 268.843 30.0366 268.925 29.6776 269.063C29.0396 269.308 28.4476 269.65 27.9196 270.084C26.8596 270.954 26.1086 272.177 25.7876 273.508C25.7586 273.629 25.7616 273.888 25.6906 273.993C25.4506 274.344 25.2866 274.07 25.2036 273.814C25.0916 273.469 25.0166 273.126 24.8656 272.791C24.5366 272.061 24.0466 271.405 23.4816 270.84C22.8886 270.247 22.1926 269.749 21.4306 269.397C21.0976 269.244 20.7576 269.136 20.4056 269.035C20.2196 268.981 19.3116 268.71 19.7166 268.504C19.9566 268.382 19.8516 268.074 19.6496 267.99C19.6386 267.987 19.6266 267.985 19.6156 267.982C19.6006 268.095 19.5866 268.209 19.5716 268.322C19.6636 268.216 20.5806 268.229 20.7406 268.204C21.1076 268.147 21.4566 268.048 21.7946 267.895C22.4626 267.592 23.0586 267.141 23.5466 266.596C24.0636 266.019 24.4726 265.355 24.8066 264.658C24.9726 264.312 25.1206 263.957 25.2606 263.6C25.3396 263.397 25.3906 263.145 25.4996 262.958C25.5216 262.897 25.5426 262.836 25.5646 262.774C25.7256 262.618 25.7946 262.642 25.7706 262.844C25.8926 263.129 25.9036 263.495 26.0036 263.796C26.1036 264.098 26.2286 264.394 26.3716 264.677C26.6556 265.24 27.0296 265.761 27.4676 266.214C28.4016 267.181 29.6226 267.813 30.9396 268.063C31.2926 268.132 31.4436 267.59 31.0886 267.523Z" fill="black"/>
<path d="M50.7009 272.613C48.9879 272.311 47.6569 270.944 47.4279 269.215C47.3959 268.976 47.0819 268.908 46.9959 269.156C46.6769 270.076 46.3069 271.019 45.6359 271.746C45.3079 272.102 44.9069 272.387 44.4569 272.568C44.0119 272.746 43.5679 272.725 43.1059 272.793C43.0689 272.799 43.0639 272.857 43.0959 272.872C43.1319 272.89 43.1699 272.904 43.2079 272.918C43.1529 272.942 43.0989 272.973 43.0469 273.014C42.9959 273.055 42.9849 273.154 43.0219 273.207C43.2709 273.569 43.7109 273.57 44.0999 273.723C44.5259 273.889 44.9309 274.129 45.2849 274.419C45.9729 274.983 46.6029 275.821 46.7369 276.721C46.7849 277.046 47.3389 277.043 47.3909 276.721C47.6679 275.004 48.9709 273.669 50.7009 273.401C51.0949 273.341 51.0869 272.682 50.7009 272.613Z" fill="#F0F1E3"/>
<path d="M51.04 271.622C50.071 271.438 49.194 270.921 48.62 270.108C48.35 269.726 48.155 269.298 48.044 268.844C47.961 268.503 47.955 268.033 47.497 268.001C47.027 267.968 46.943 268.506 46.817 268.842C46.616 269.379 46.379 269.907 46.055 270.382C45.735 270.851 45.315 271.257 44.8 271.506C44.473 271.665 44.138 271.712 43.781 271.746C43.573 271.766 43.288 271.738 43.14 271.909C43.051 272.012 43.039 272.129 43.096 272.249C43.16 272.384 43.265 272.414 43.396 272.468C43.374 272.297 43.351 272.126 43.329 271.955C42.908 272.169 42.9 272.567 43.254 272.861C43.646 273.186 44.231 273.218 44.677 273.455C45.223 273.745 45.704 274.156 46.081 274.646C46.265 274.884 46.425 275.145 46.543 275.422C46.649 275.671 46.653 275.978 46.777 276.212C46.942 276.523 47.37 276.61 47.663 276.433C48.027 276.214 48.005 275.614 48.146 275.252C48.524 274.277 49.326 273.487 50.311 273.135C50.718 272.989 51.306 273.031 51.488 272.559C51.638 272.172 51.441 271.737 51.04 271.622C50.692 271.523 50.543 272.065 50.891 272.164C50.967 272.186 51.002 272.273 50.97 272.348C50.937 272.426 50.861 272.411 50.783 272.428C50.538 272.481 50.298 272.54 50.064 272.63C49.629 272.797 49.23 273.028 48.87 273.324C48.164 273.903 47.662 274.724 47.448 275.61C47.413 275.754 47.352 276.173 47.252 275.81C47.186 275.572 47.123 275.343 47.021 275.117C46.802 274.632 46.475 274.195 46.1 273.82C45.706 273.426 45.243 273.093 44.737 272.86C44.511 272.756 44.281 272.681 44.042 272.613C43.938 272.583 43.828 272.559 43.732 272.507C43.663 272.475 43.603 272.43 43.551 272.373C43.5 272.493 43.521 272.516 43.614 272.442C43.854 272.32 43.749 272.012 43.547 271.928C43.51 271.913 43.472 271.897 43.435 271.882C43.491 271.925 43.547 271.968 43.603 272.011C43.596 271.997 43.589 271.982 43.582 271.967C43.567 272.081 43.553 272.194 43.538 272.307C43.548 272.295 43.559 272.283 43.569 272.271C43.503 272.298 43.437 272.326 43.37 272.353C43.918 272.281 44.462 272.275 44.974 272.042C45.418 271.84 45.816 271.539 46.141 271.176C46.485 270.792 46.759 270.351 46.982 269.887C47.094 269.653 47.195 269.413 47.289 269.171C47.338 269.046 47.432 268.884 47.446 268.751C47.46 268.711 47.474 268.671 47.489 268.631C47.413 268.535 47.395 268.551 47.437 268.677C47.435 269.074 47.665 269.554 47.84 269.901C48.03 270.276 48.281 270.625 48.573 270.927C49.196 271.571 50.012 271.996 50.89 272.163C51.244 272.231 51.395 271.69 51.04 271.622Z" fill="black"/>
</svg>
