<svg width="307" height="298" viewBox="0 0 307 298" fill="none" xmlns="http://www.w3.org/2000/svg">
<rect x="0.5" y="0.5" width="306" height="297" rx="19.5" stroke="white"/>
<path d="M268.966 24.8935C267.253 24.5915 265.922 23.2245 265.693 21.4955C265.661 21.2565 265.347 21.1885 265.261 21.4365C264.942 22.3565 264.572 23.2995 263.901 24.0265C263.573 24.3825 263.172 24.6675 262.722 24.8475C262.277 25.0255 261.833 25.0045 261.371 25.0725C261.334 25.0785 261.329 25.1365 261.361 25.1525C261.397 25.1705 261.435 25.1845 261.473 25.1985C261.418 25.2225 261.364 25.2535 261.312 25.2945C261.261 25.3355 261.251 25.4345 261.287 25.4875C261.536 25.8505 261.976 25.8505 262.365 26.0035C262.791 26.1695 263.196 26.4095 263.55 26.6995C264.238 27.2635 264.868 28.1015 265.002 29.0015C265.05 29.3265 265.604 29.3235 265.656 29.0015C265.933 27.2845 267.236 25.9495 268.966 25.6815C269.361 25.6205 269.353 24.9615 268.966 24.8935Z" fill="#F0F1E3"/>
<path d="M269.039 24.6224C268.07 24.4384 267.193 23.9214 266.619 23.1084C266.349 22.7264 266.154 22.2984 266.043 21.8444C265.959 21.5035 265.954 21.0334 265.496 21.0014C265.027 20.9684 264.942 21.5064 264.816 21.8424C264.615 22.3794 264.378 22.9075 264.054 23.3825C263.734 23.8515 263.314 24.2574 262.8 24.5064C262.473 24.6654 262.138 24.7124 261.781 24.7464C261.573 24.7664 261.288 24.7384 261.14 24.9094C261.051 25.0124 261.039 25.1294 261.096 25.2494C261.16 25.3844 261.265 25.4144 261.396 25.4684C261.374 25.2974 261.351 25.1264 261.329 24.9544C260.907 25.1684 260.9 25.5665 261.254 25.8605C261.646 26.1855 262.231 26.2174 262.677 26.4544C263.223 26.7444 263.704 27.1555 264.081 27.6455C264.265 27.8835 264.425 28.1444 264.543 28.4214C264.649 28.6704 264.653 28.9774 264.777 29.2114C264.942 29.5224 265.37 29.6094 265.663 29.4324C266.027 29.2134 266.005 28.6134 266.146 28.2514C266.524 27.2764 267.326 26.4864 268.311 26.1344C268.718 25.9884 269.306 26.0304 269.488 25.5584C269.637 25.1724 269.44 24.7374 269.039 24.6224C268.691 24.5234 268.542 25.0654 268.89 25.1644C268.966 25.1864 269.001 25.2724 268.969 25.3484C268.935 25.4264 268.86 25.4114 268.782 25.4284C268.537 25.4814 268.298 25.5395 268.063 25.6305C267.628 25.7975 267.229 26.0284 266.869 26.3244C266.163 26.9034 265.661 27.7245 265.447 28.6105C265.412 28.7545 265.351 29.1734 265.251 28.8104C265.186 28.5724 265.122 28.3435 265.02 28.1175C264.801 27.6325 264.474 27.1954 264.099 26.8204C263.705 26.4264 263.242 26.0935 262.736 25.8605C262.51 25.7565 262.28 25.6824 262.041 25.6134C261.937 25.5834 261.827 25.5595 261.731 25.5075C261.662 25.4755 261.602 25.4304 261.55 25.3734C261.499 25.4934 261.52 25.5164 261.613 25.4424C261.853 25.3204 261.748 25.0124 261.546 24.9284C261.509 24.9134 261.472 24.8975 261.434 24.8825C261.49 24.9255 261.546 24.9684 261.602 25.0114C261.595 24.9974 261.588 24.9824 261.581 24.9674C261.566 25.0814 261.552 25.1944 261.537 25.3074C261.547 25.2954 261.558 25.2835 261.568 25.2715C261.502 25.2985 261.436 25.3264 261.369 25.3534C261.917 25.2814 262.461 25.2754 262.973 25.0424C263.417 24.8404 263.815 24.5394 264.14 24.1764C264.484 23.7924 264.758 23.3514 264.981 22.8874C265.093 22.6534 265.194 22.4134 265.288 22.1714C265.337 22.0464 265.431 21.8844 265.445 21.7514C265.459 21.7114 265.473 21.6714 265.488 21.6314C265.412 21.5354 265.394 21.5515 265.436 21.6775C265.435 22.0745 265.664 22.5544 265.839 22.9014C266.029 23.2764 266.28 23.6255 266.572 23.9275C267.195 24.5715 268.011 24.9965 268.889 25.1635C269.243 25.2315 269.395 24.6894 269.039 24.6224Z" fill="black"/>
<path d="M294.875 36.7098C292.259 36.2488 290.228 34.1618 289.878 31.5228C289.829 31.1578 289.349 31.0538 289.218 31.4338C288.731 32.8388 288.166 34.2778 287.142 35.3878C286.641 35.9308 286.03 36.3668 285.342 36.6418C284.662 36.9138 283.985 36.8818 283.279 36.9858C283.223 36.9938 283.215 37.0828 283.263 37.1068C283.319 37.1348 283.376 37.1558 283.434 37.1768C283.35 37.2128 283.268 37.2608 283.188 37.3238C283.11 37.3858 283.094 37.5378 283.15 37.6188C283.53 38.1728 284.202 38.1738 284.796 38.4058C285.446 38.6598 286.065 39.0268 286.605 39.4688C287.655 40.3298 288.618 41.6088 288.822 42.9828C288.896 43.4798 289.741 43.4748 289.82 42.9828C290.243 40.3608 292.232 38.3228 294.874 37.9138C295.477 37.8198 295.465 36.8138 294.875 36.7098Z" fill="#F0F1E3"/>
<path d="M294.952 36.4392C293.434 36.1502 292.065 35.3322 291.168 34.0602C290.75 33.4672 290.446 32.8002 290.273 32.0952C290.166 31.6572 290.185 30.9652 289.581 30.9172C288.954 30.8682 288.85 31.6542 288.686 32.0922C288.375 32.9242 288.01 33.7422 287.508 34.4782C287.005 35.2152 286.348 35.8542 285.54 36.2472C285.016 36.5022 284.482 36.5792 283.91 36.6342C283.635 36.6612 283.231 36.6142 283.036 36.8402C282.947 36.9432 282.935 37.0602 282.992 37.1802C283.072 37.3512 283.191 37.3762 283.362 37.4462C283.34 37.2752 283.317 37.1042 283.295 36.9322C282.748 37.2102 282.728 37.6822 283.195 38.0712C283.782 38.5602 284.683 38.6102 285.352 38.9662C286.202 39.4182 286.95 40.0602 287.538 40.8222C287.827 41.1972 288.077 41.6032 288.262 42.0402C288.42 42.4122 288.429 42.8802 288.612 43.2292C288.825 43.6332 289.382 43.7432 289.763 43.5132C289.974 43.3852 290.053 43.2062 290.108 42.9752C290.203 42.5762 290.283 42.1842 290.431 41.7992C291.023 40.2582 292.286 39.0202 293.84 38.4632C294.396 38.2642 295.274 38.3252 295.533 37.6882C295.742 37.1762 295.485 36.5912 294.952 36.4392C294.604 36.3402 294.455 36.8822 294.803 36.9812C294.998 37.0372 295.1 37.2522 295.027 37.4452C294.953 37.6402 294.819 37.6292 294.639 37.6712C294.265 37.7592 293.9 37.8412 293.541 37.9792C292.903 38.2242 292.311 38.5662 291.783 39.0002C290.723 39.8702 289.972 41.0932 289.651 42.4242C289.622 42.5452 289.625 42.8042 289.554 42.9092C289.314 43.2602 289.15 42.9862 289.067 42.7302C288.955 42.3852 288.88 42.0422 288.729 41.7072C288.4 40.9772 287.91 40.3212 287.345 39.7562C286.752 39.1632 286.056 38.6652 285.294 38.3132C284.961 38.1602 284.621 38.0522 284.269 37.9512C284.083 37.8972 283.175 37.6262 283.58 37.4202C283.82 37.2982 283.715 36.9902 283.513 36.9062C283.502 36.9032 283.49 36.9012 283.479 36.8982C283.464 37.0122 283.45 37.1252 283.435 37.2382C283.527 37.1322 284.444 37.1452 284.604 37.1202C284.971 37.0632 285.32 36.9642 285.658 36.8112C286.326 36.5082 286.922 36.0572 287.41 35.5122C287.927 34.9352 288.336 34.2712 288.67 33.5742C288.836 33.2282 288.985 32.8732 289.124 32.5162C289.203 32.3132 289.254 32.0612 289.363 31.8742C289.385 31.8132 289.406 31.7522 289.428 31.6902C289.589 31.5342 289.658 31.5582 289.634 31.7602C289.756 32.0452 289.767 32.4112 289.867 32.7122C289.967 33.0142 290.092 33.3092 290.235 33.5932C290.519 34.1562 290.893 34.6772 291.331 35.1302C292.265 36.0972 293.487 36.7292 294.803 36.9792C295.156 37.0482 295.308 36.5072 294.952 36.4392Z" fill="black"/>
<path d="M286.755 59.8534C285.042 59.5514 283.711 58.1844 283.482 56.4554C283.45 56.2164 283.136 56.1484 283.05 56.3964C282.731 57.3164 282.361 58.2594 281.69 58.9864C281.362 59.3424 280.961 59.6274 280.511 59.8074C280.066 59.9854 279.622 59.9644 279.16 60.0324C279.123 60.0384 279.118 60.0964 279.15 60.1114C279.186 60.1294 279.224 60.1434 279.262 60.1574C279.207 60.1814 279.153 60.2124 279.101 60.2534C279.05 60.2944 279.04 60.3934 279.076 60.4464C279.325 60.8084 279.765 60.8094 280.154 60.9624C280.58 61.1284 280.985 61.3694 281.339 61.6584C282.027 62.2224 282.657 63.0594 282.791 63.9604C282.839 64.2854 283.393 64.2824 283.445 63.9604C283.722 62.2434 285.025 60.9084 286.755 60.6404C287.149 60.5804 287.141 59.9214 286.755 59.8534Z" fill="#F0F1E3"/>
<path d="M286.829 59.5824C285.86 59.3984 284.983 58.8814 284.408 58.0694C284.138 57.6874 283.943 57.2594 283.832 56.8054C283.748 56.4644 283.743 55.9944 283.285 55.9624C282.816 55.9294 282.731 56.4674 282.605 56.8034C282.404 57.3404 282.167 57.8684 281.843 58.3424C281.523 58.8114 281.103 59.2174 280.589 59.4664C280.262 59.6244 279.927 59.6724 279.57 59.7064C279.362 59.7264 279.077 59.6984 278.929 59.8694C278.84 59.9724 278.828 60.0894 278.885 60.2094C278.949 60.3444 279.054 60.3744 279.185 60.4284C279.163 60.2574 279.14 60.0864 279.118 59.9144C278.697 60.1284 278.689 60.5264 279.043 60.8204C279.435 61.1454 280.02 61.1774 280.465 61.4144C281.011 61.7044 281.492 62.1154 281.869 62.6044C282.053 62.8434 282.213 63.1034 282.331 63.3804C282.437 63.6294 282.441 63.9364 282.565 64.1704C282.73 64.4814 283.158 64.5684 283.451 64.3914C283.815 64.1724 283.793 63.5724 283.934 63.2104C284.312 62.2354 285.114 61.4454 286.099 61.0934C286.506 60.9474 287.094 60.9894 287.276 60.5174C287.427 60.1324 287.23 59.6964 286.829 59.5824C286.481 59.4834 286.332 60.0254 286.68 60.1244C286.756 60.1464 286.791 60.2324 286.759 60.3094C286.726 60.3874 286.65 60.3724 286.573 60.3894C286.328 60.4424 286.089 60.5014 285.854 60.5914C285.419 60.7584 285.02 60.9894 284.66 61.2854C283.954 61.8644 283.452 62.6854 283.238 63.5714C283.203 63.7154 283.142 64.1344 283.042 63.7714C282.976 63.5334 282.913 63.3044 282.811 63.0784C282.592 62.5934 282.265 62.1564 281.89 61.7814C281.496 61.3874 281.033 61.0544 280.527 60.8214C280.301 60.7174 280.071 60.6434 279.832 60.5744C279.728 60.5444 279.618 60.5204 279.522 60.4684C279.453 60.4364 279.393 60.3914 279.341 60.3344C279.29 60.4544 279.311 60.4774 279.404 60.4034C279.644 60.2814 279.539 59.9734 279.337 59.8894C279.3 59.8744 279.263 59.8584 279.225 59.8434C279.281 59.8864 279.337 59.9294 279.393 59.9724C279.386 59.9574 279.379 59.9434 279.373 59.9284C279.358 60.0424 279.344 60.1554 279.329 60.2684C279.339 60.2564 279.35 60.2444 279.36 60.2324C279.294 60.2594 279.228 60.2874 279.161 60.3144C279.709 60.2424 280.253 60.2364 280.765 60.0034C281.209 59.8014 281.607 59.5004 281.932 59.1374C282.276 58.7534 282.55 58.3124 282.773 57.8484C282.885 57.6144 282.986 57.3744 283.08 57.1324C283.129 57.0074 283.223 56.8454 283.237 56.7124C283.251 56.6724 283.265 56.6324 283.28 56.5924C283.204 56.4964 283.187 56.5124 283.228 56.6384C283.227 57.0354 283.456 57.5154 283.631 57.8624C283.821 58.2374 284.072 58.5864 284.364 58.8884C284.987 59.5324 285.802 59.9574 286.68 60.1244C287.032 60.1914 287.184 59.6504 286.829 59.5824Z" fill="black"/>
<path d="M26.9661 244.893C25.2531 244.591 23.9221 243.224 23.6931 241.495C23.6611 241.256 23.3471 241.188 23.2611 241.436C22.9421 242.356 22.5721 243.299 21.9011 244.026C21.5731 244.382 21.1721 244.667 20.7221 244.847C20.2771 245.025 19.8331 245.004 19.3711 245.072C19.3341 245.077 19.3291 245.136 19.3611 245.152C19.3971 245.17 19.4351 245.184 19.4731 245.198C19.4181 245.222 19.3641 245.253 19.3121 245.294C19.2611 245.335 19.2511 245.434 19.2871 245.487C19.5361 245.85 19.9761 245.851 20.3651 246.003C20.7911 246.169 21.1961 246.41 21.5501 246.699C22.2381 247.263 22.8681 248.101 23.0021 249.001C23.0501 249.327 23.6041 249.323 23.6561 249.001C23.9331 247.284 25.2361 245.949 26.9661 245.681C27.3601 245.621 27.3521 244.962 26.9661 244.893Z" fill="#F0F1E3"/>
<path d="M27.0403 244.622C26.0713 244.438 25.1943 243.921 24.6203 243.108C24.3503 242.726 24.1553 242.298 24.0443 241.844C23.9613 241.503 23.9553 241.033 23.4973 241.001C23.0283 240.968 22.9433 241.506 22.8173 241.842C22.6163 242.379 22.3793 242.906 22.0553 243.381C21.7353 243.85 21.3153 244.256 20.8003 244.505C20.4733 244.663 20.1383 244.711 19.7813 244.745C19.5733 244.765 19.2883 244.737 19.1403 244.908C19.0513 245.011 19.0393 245.127 19.0963 245.248C19.1603 245.383 19.2653 245.413 19.3963 245.467C19.3743 245.296 19.3513 245.125 19.3293 244.953C18.9073 245.167 18.9003 245.565 19.2543 245.859C19.6463 246.184 20.2313 246.216 20.6773 246.453C21.2233 246.743 21.7043 247.154 22.0823 247.644C22.2663 247.882 22.4263 248.143 22.5443 248.42C22.6503 248.669 22.6543 248.976 22.7783 249.21C22.9433 249.521 23.3713 249.608 23.6643 249.431C24.0283 249.212 24.0063 248.612 24.1473 248.25C24.5253 247.275 25.3273 246.485 26.3123 246.133C26.7193 245.987 27.3073 246.029 27.4893 245.557C27.6383 245.173 27.4413 244.737 27.0403 244.622C26.6923 244.522 26.5433 245.064 26.8913 245.164C26.9673 245.186 27.0023 245.273 26.9703 245.348C26.9363 245.426 26.8613 245.412 26.7833 245.428C26.5383 245.481 26.2993 245.539 26.0643 245.63C25.6293 245.797 25.2303 246.028 24.8703 246.324C24.1643 246.903 23.6623 247.724 23.4483 248.61C23.4133 248.754 23.3523 249.173 23.2523 248.81C23.1863 248.572 23.1233 248.343 23.0213 248.117C22.8023 247.632 22.4753 247.195 22.0993 246.82C21.7053 246.426 21.2423 246.093 20.7363 245.86C20.5103 245.756 20.2803 245.682 20.0413 245.613C19.9373 245.583 19.8273 245.559 19.7313 245.507C19.6623 245.475 19.6023 245.43 19.5503 245.373C19.4993 245.493 19.5203 245.516 19.6133 245.442C19.8533 245.32 19.7483 245.012 19.5463 244.928C19.5093 244.913 19.4713 244.897 19.4343 244.882C19.4903 244.925 19.5463 244.968 19.6023 245.011C19.5953 244.997 19.5883 244.982 19.5813 244.967C19.5663 245.081 19.5523 245.194 19.5373 245.307C19.5473 245.295 19.5583 245.283 19.5683 245.271C19.5023 245.299 19.4363 245.326 19.3693 245.353C19.9173 245.281 20.4613 245.275 20.9733 245.042C21.4173 244.84 21.8153 244.539 22.1403 244.176C22.4843 243.792 22.7583 243.351 22.9813 242.887C23.0933 242.653 23.1943 242.413 23.2883 242.171C23.3373 242.046 23.4313 241.884 23.4453 241.751C23.4593 241.711 23.4733 241.671 23.4883 241.631C23.4123 241.535 23.3953 241.551 23.4363 241.677C23.4353 242.074 23.6643 242.554 23.8393 242.901C24.0293 243.276 24.2803 243.625 24.5723 243.927C25.1943 244.571 26.0113 244.996 26.8893 245.163C27.2443 245.231 27.3963 244.69 27.0403 244.622Z" fill="black"/>
<path d="M29.0122 268.793C26.3962 268.332 24.3652 266.245 24.0152 263.606C23.9662 263.241 23.4872 263.137 23.3552 263.517C22.8682 264.922 22.3032 266.361 21.2792 267.471C20.7782 268.014 20.1672 268.45 19.4792 268.725C18.7992 268.997 18.1222 268.965 17.4162 269.069C17.3602 269.077 17.3522 269.166 17.4002 269.19C17.4562 269.218 17.5132 269.239 17.5712 269.261C17.4872 269.297 17.4052 269.345 17.3252 269.408C17.2472 269.47 17.2312 269.622 17.2872 269.703C17.6672 270.257 18.3392 270.258 18.9332 270.49C19.5832 270.744 20.2022 271.111 20.7422 271.553C21.7922 272.414 22.7552 273.693 22.9592 275.067C23.0332 275.564 23.8782 275.559 23.9572 275.067C24.3802 272.445 26.3692 270.407 29.0112 269.998C29.6142 269.904 29.6022 268.898 29.0122 268.793Z" fill="#F0F1E3"/>
<path d="M29.0886 268.523C27.5706 268.234 26.2016 267.416 25.3046 266.144C24.8866 265.551 24.5826 264.884 24.4096 264.179C24.3026 263.741 24.3216 263.049 23.7176 263.001C23.0906 262.952 22.9866 263.738 22.8226 264.176C22.5116 265.008 22.1466 265.826 21.6446 266.562C21.1416 267.299 20.4846 267.938 19.6766 268.331C19.1526 268.586 18.6186 268.663 18.0466 268.718C17.7716 268.745 17.3676 268.698 17.1726 268.924C17.0836 269.027 17.0716 269.144 17.1286 269.264C17.2086 269.435 17.3276 269.46 17.4986 269.53C17.4766 269.359 17.4536 269.188 17.4316 269.016C16.8846 269.294 16.8646 269.766 17.3316 270.155C17.9186 270.644 18.8196 270.694 19.4886 271.05C20.3386 271.502 21.0866 272.144 21.6746 272.906C21.9636 273.281 22.2136 273.687 22.3986 274.124C22.5566 274.496 22.5656 274.964 22.7486 275.313C22.9616 275.717 23.5186 275.827 23.8996 275.597C24.1116 275.469 24.1896 275.29 24.2456 275.059C24.3406 274.66 24.4206 274.268 24.5686 273.883C25.1606 272.342 26.4236 271.104 27.9776 270.547C28.5336 270.348 29.4116 270.409 29.6706 269.772C29.8786 269.259 29.6216 268.675 29.0886 268.523C28.7406 268.424 28.5916 268.966 28.9396 269.065C29.1346 269.121 29.2366 269.336 29.1636 269.529C29.0896 269.724 28.9556 269.713 28.7756 269.755C28.4016 269.843 28.0366 269.925 27.6776 270.063C27.0396 270.308 26.4476 270.65 25.9196 271.084C24.8596 271.954 24.1086 273.177 23.7876 274.508C23.7586 274.629 23.7616 274.888 23.6906 274.993C23.4506 275.344 23.2866 275.07 23.2036 274.814C23.0916 274.469 23.0166 274.126 22.8656 273.791C22.5366 273.061 22.0466 272.405 21.4816 271.84C20.8886 271.247 20.1926 270.749 19.4306 270.397C19.0976 270.244 18.7576 270.136 18.4056 270.035C18.2196 269.981 17.3116 269.71 17.7166 269.504C17.9566 269.382 17.8516 269.074 17.6496 268.99C17.6386 268.987 17.6266 268.985 17.6156 268.982C17.6006 269.095 17.5866 269.209 17.5716 269.322C17.6636 269.216 18.5806 269.229 18.7406 269.204C19.1076 269.147 19.4566 269.048 19.7946 268.895C20.4626 268.592 21.0586 268.141 21.5466 267.596C22.0636 267.019 22.4726 266.355 22.8066 265.658C22.9726 265.312 23.1206 264.957 23.2606 264.6C23.3396 264.397 23.3906 264.145 23.4996 263.958C23.5216 263.897 23.5426 263.836 23.5646 263.774C23.7256 263.618 23.7946 263.642 23.7706 263.844C23.8926 264.129 23.9036 264.495 24.0036 264.796C24.1036 265.098 24.2286 265.394 24.3716 265.677C24.6556 266.24 25.0296 266.761 25.4676 267.214C26.4016 268.181 27.6226 268.813 28.9396 269.063C29.2926 269.132 29.4436 268.59 29.0886 268.523Z" fill="black"/>
<path d="M48.7009 273.613C46.9879 273.311 45.6569 271.944 45.4279 270.215C45.3959 269.976 45.0819 269.908 44.9959 270.156C44.6769 271.076 44.3069 272.019 43.6359 272.746C43.3079 273.102 42.9069 273.387 42.4569 273.568C42.0119 273.746 41.5679 273.725 41.1059 273.793C41.0689 273.799 41.0639 273.857 41.0959 273.872C41.1319 273.89 41.1699 273.904 41.2079 273.918C41.1529 273.942 41.0989 273.973 41.0469 274.014C40.9959 274.055 40.9849 274.154 41.0219 274.207C41.2709 274.569 41.7109 274.57 42.0999 274.723C42.5259 274.889 42.9309 275.129 43.2849 275.419C43.9729 275.983 44.6029 276.821 44.7369 277.721C44.7849 278.046 45.3389 278.043 45.3909 277.721C45.6679 276.004 46.9709 274.669 48.7009 274.401C49.0949 274.341 49.0869 273.682 48.7009 273.613Z" fill="#F0F1E3"/>
<path d="M49.04 272.622C48.071 272.438 47.194 271.921 46.62 271.108C46.35 270.726 46.155 270.298 46.044 269.844C45.961 269.503 45.955 269.033 45.497 269.001C45.027 268.968 44.943 269.506 44.817 269.842C44.616 270.379 44.379 270.907 44.055 271.382C43.735 271.851 43.315 272.257 42.8 272.506C42.473 272.665 42.138 272.712 41.781 272.746C41.573 272.766 41.288 272.738 41.14 272.909C41.051 273.012 41.039 273.129 41.096 273.249C41.16 273.384 41.265 273.414 41.396 273.468C41.374 273.297 41.351 273.126 41.329 272.955C40.908 273.169 40.9 273.567 41.254 273.861C41.646 274.186 42.231 274.218 42.677 274.455C43.223 274.745 43.704 275.156 44.081 275.646C44.265 275.884 44.425 276.145 44.543 276.422C44.649 276.671 44.653 276.978 44.777 277.212C44.942 277.523 45.37 277.61 45.663 277.433C46.027 277.214 46.005 276.614 46.146 276.252C46.524 275.277 47.326 274.487 48.311 274.135C48.718 273.989 49.306 274.031 49.488 273.559C49.638 273.172 49.441 272.737 49.04 272.622C48.692 272.523 48.543 273.065 48.891 273.164C48.967 273.186 49.002 273.273 48.97 273.348C48.937 273.426 48.861 273.411 48.783 273.428C48.538 273.481 48.298 273.54 48.064 273.63C47.629 273.797 47.23 274.028 46.87 274.324C46.164 274.903 45.662 275.724 45.448 276.61C45.413 276.754 45.352 277.173 45.252 276.81C45.186 276.572 45.123 276.343 45.021 276.117C44.802 275.632 44.475 275.195 44.1 274.82C43.706 274.426 43.243 274.093 42.737 273.86C42.511 273.756 42.281 273.681 42.042 273.613C41.938 273.583 41.828 273.559 41.732 273.507C41.663 273.475 41.603 273.43 41.551 273.373C41.5 273.493 41.521 273.516 41.614 273.442C41.854 273.32 41.749 273.012 41.547 272.928C41.51 272.913 41.472 272.897 41.435 272.882C41.491 272.925 41.547 272.968 41.603 273.011C41.596 272.997 41.589 272.982 41.582 272.967C41.567 273.081 41.553 273.194 41.538 273.307C41.548 273.295 41.559 273.283 41.569 273.271C41.503 273.298 41.437 273.326 41.37 273.353C41.918 273.281 42.462 273.275 42.974 273.042C43.418 272.84 43.816 272.539 44.141 272.176C44.485 271.792 44.759 271.351 44.982 270.887C45.094 270.653 45.195 270.413 45.289 270.171C45.338 270.046 45.432 269.884 45.446 269.751C45.46 269.711 45.474 269.671 45.489 269.631C45.413 269.535 45.395 269.551 45.437 269.677C45.435 270.074 45.665 270.554 45.84 270.901C46.03 271.276 46.281 271.625 46.573 271.927C47.196 272.571 48.012 272.996 48.89 273.163C49.244 273.231 49.395 272.69 49.04 272.622Z" fill="black"/>
<path d="M164.854 69.1139C160.748 68.3888 157.56 65.1065 157.011 60.9561C156.934 60.3821 156.181 60.2185 155.975 60.8161C155.211 63.0258 154.324 65.289 152.716 67.0347C151.93 67.8887 150.971 68.5744 149.891 69.0069C148.824 69.4347 147.761 69.3844 146.653 69.5479C146.565 69.5605 146.553 69.7005 146.628 69.7382C146.716 69.7823 146.805 69.8153 146.896 69.8483C146.765 69.9049 146.636 69.9804 146.51 70.0795C146.388 70.177 146.363 70.4161 146.451 70.5435C147.047 71.4148 148.102 71.4163 149.034 71.7812C150.054 72.1807 151.026 72.7579 151.874 73.453C153.522 74.8072 155.033 76.8187 155.353 78.9796C155.47 79.7613 156.796 79.7534 156.92 78.9796C157.584 74.8559 160.706 71.6507 164.853 71.0074C165.799 70.8596 165.78 69.2774 164.854 69.1139Z" fill="#F0F1E3"/>
<path d="M164.974 68.6881C162.591 68.2335 160.443 66.947 159.035 64.9465C158.379 64.0139 157.902 62.9649 157.63 61.8561C157.462 61.1673 157.492 60.0789 156.544 60.0034C155.56 59.9264 155.396 61.1625 155.139 61.8514C154.651 63.1599 154.078 64.4464 153.29 65.6039C152.501 66.763 151.469 67.768 150.201 68.3861C149.379 68.7871 148.541 68.9082 147.643 68.9947C147.211 69.0372 146.577 68.9633 146.271 69.3187C146.131 69.4807 146.112 69.6647 146.202 69.8535C146.327 70.1224 146.514 70.1617 146.783 70.2718C146.748 70.0029 146.712 69.7339 146.677 69.4634C145.819 69.9006 145.787 70.643 146.52 71.2548C147.442 72.0238 148.856 72.1025 149.906 72.6624C151.24 73.3732 152.414 74.3829 153.337 75.5814C153.791 76.1711 154.183 76.8097 154.474 77.4969C154.722 78.082 154.736 78.818 155.023 79.3669C155.357 80.0023 156.231 80.1753 156.83 79.8136C157.161 79.6123 157.285 79.3307 157.371 78.9674C157.52 78.3399 157.646 77.7234 157.878 77.1179C158.807 74.6943 160.79 72.7473 163.229 71.8713C164.101 71.5583 165.48 71.6542 165.886 70.6524C166.214 69.8472 165.811 68.9271 164.974 68.6881C164.428 68.5324 164.194 69.3848 164.74 69.5405C165.046 69.6286 165.206 69.9667 165.092 70.2702C164.976 70.5769 164.765 70.5596 164.483 70.6257C163.896 70.7641 163.323 70.893 162.759 71.1101C161.758 71.4954 160.829 72.0333 160 72.7158C158.336 74.0841 157.158 76.0076 156.654 78.1009C156.608 78.2912 156.613 78.6985 156.501 78.8636C156.125 79.4157 155.867 78.9847 155.737 78.5821C155.561 78.0395 155.444 77.5001 155.207 76.9732C154.69 75.8251 153.921 74.7934 153.034 73.9048C152.103 72.9722 151.011 72.189 149.815 71.6354C149.292 71.3947 148.759 71.2249 148.206 71.066C147.914 70.9811 146.489 70.5549 147.125 70.2309C147.501 70.039 147.337 69.5546 147.02 69.4225C147.002 69.4178 146.983 69.4147 146.966 69.4099C146.943 69.5892 146.921 69.767 146.897 69.9447C147.042 69.778 148.481 69.7984 148.732 69.7591C149.308 69.6695 149.856 69.5138 150.386 69.2731C151.435 68.7966 152.37 68.0873 153.136 67.2301C153.948 66.3227 154.59 65.2784 155.114 64.1822C155.374 63.638 155.608 63.0797 155.827 62.5182C155.951 62.199 156.031 61.8026 156.202 61.5085C156.236 61.4126 156.269 61.3167 156.304 61.2192C156.556 60.9738 156.665 61.0116 156.627 61.3293C156.819 61.7775 156.836 62.3531 156.993 62.8265C157.15 63.3015 157.346 63.7654 157.57 64.2121C158.016 65.0975 158.603 65.9169 159.291 66.6294C160.757 68.1502 162.675 69.1442 164.74 69.5373C165.294 69.6459 165.533 68.795 164.974 68.6881Z" fill="black"/>
</svg>
