<svg width="307" height="298" viewBox="0 0 307 298" fill="none" xmlns="http://www.w3.org/2000/svg">
<rect x="0.5" y="0.5" width="306" height="297" rx="19.5" stroke="white"/>
<path d="M162.854 73.1139C158.748 72.3888 155.56 69.1065 155.011 64.9561C154.934 64.3821 154.181 64.2185 153.975 64.8161C153.211 67.0258 152.324 69.289 150.716 71.0347C149.93 71.8887 148.971 72.5744 147.891 73.0069C146.824 73.4347 145.761 73.3844 144.653 73.5479C144.565 73.5605 144.553 73.7005 144.628 73.7382C144.716 73.7823 144.805 73.8153 144.896 73.8483C144.765 73.9049 144.636 73.9804 144.51 74.0795C144.388 74.177 144.363 74.4161 144.451 74.5435C145.047 75.4148 146.102 75.4163 147.034 75.7812C148.054 76.1807 149.026 76.7579 149.874 77.453C151.522 78.8072 153.033 80.8187 153.353 82.9796C153.47 83.7613 154.796 83.7534 154.92 82.9796C155.584 78.8559 158.706 75.6507 162.853 75.0074C163.799 74.8596 163.78 73.2774 162.854 73.1139Z" fill="#F0F1E3"/>
<path d="M162.974 72.6881C160.591 72.2335 158.443 70.947 157.035 68.9465C156.379 68.0139 155.902 66.9649 155.63 65.8561C155.462 65.1673 155.492 64.0789 154.544 64.0034C153.56 63.9264 153.396 65.1625 153.139 65.8514C152.651 67.1599 152.078 68.4464 151.29 69.6039C150.501 70.763 149.469 71.768 148.201 72.3861C147.379 72.7871 146.541 72.9082 145.643 72.9947C145.211 73.0372 144.577 72.9633 144.271 73.3187C144.131 73.4807 144.112 73.6647 144.202 73.8535C144.327 74.1224 144.514 74.1617 144.783 74.2718C144.748 74.0029 144.712 73.7339 144.677 73.4634C143.819 73.9006 143.787 74.643 144.52 75.2548C145.442 76.0238 146.856 76.1025 147.906 76.6624C149.24 77.3732 150.414 78.3829 151.337 79.5814C151.791 80.1711 152.183 80.8097 152.474 81.4969C152.722 82.082 152.736 82.818 153.023 83.3669C153.357 84.0023 154.231 84.1753 154.83 83.8136C155.161 83.6123 155.285 83.3307 155.371 82.9674C155.52 82.3399 155.646 81.7234 155.878 81.1179C156.807 78.6943 158.79 76.7473 161.229 75.8713C162.101 75.5583 163.48 75.6542 163.886 74.6524C164.214 73.8472 163.811 72.9271 162.974 72.6881C162.428 72.5324 162.194 73.3848 162.74 73.5405C163.046 73.6286 163.206 73.9667 163.092 74.2702C162.976 74.5769 162.765 74.5596 162.483 74.6257C161.896 74.7641 161.323 74.893 160.759 75.1101C159.758 75.4954 158.829 76.0333 158 76.7158C156.336 78.0841 155.158 80.0076 154.654 82.1009C154.608 82.2912 154.613 82.6985 154.501 82.8636C154.125 83.4157 153.867 82.9847 153.737 82.5821C153.561 82.0395 153.444 81.5001 153.207 80.9732C152.69 79.8251 151.921 78.7934 151.034 77.9048C150.103 76.9722 149.011 76.189 147.815 75.6354C147.292 75.3947 146.759 75.2249 146.206 75.066C145.914 74.9811 144.489 74.5549 145.125 74.2309C145.501 74.039 145.337 73.5546 145.02 73.4225C145.002 73.4178 144.983 73.4147 144.966 73.4099C144.943 73.5892 144.921 73.767 144.897 73.9447C145.042 73.778 146.481 73.7984 146.732 73.7591C147.308 73.6695 147.856 73.5138 148.386 73.2731C149.435 72.7966 150.37 72.0873 151.136 71.2301C151.948 70.3227 152.59 69.2784 153.114 68.1822C153.374 67.638 153.608 67.0797 153.827 66.5182C153.951 66.199 154.031 65.8026 154.202 65.5085C154.236 65.4126 154.269 65.3167 154.304 65.2192C154.556 64.9738 154.665 65.0116 154.627 65.3293C154.819 65.7775 154.836 66.3531 154.993 66.8265C155.15 67.3015 155.346 67.7654 155.57 68.2121C156.016 69.0975 156.603 69.9169 157.291 70.6294C158.757 72.1502 160.675 73.1442 162.74 73.5373C163.294 73.6459 163.533 72.795 162.974 72.6881Z" fill="black"/>
<path d="M266.966 24.8935C265.253 24.5915 263.922 23.2245 263.693 21.4955C263.661 21.2565 263.347 21.1885 263.261 21.4365C262.942 22.3565 262.572 23.2995 261.901 24.0265C261.573 24.3825 261.172 24.6675 260.722 24.8475C260.277 25.0255 259.833 25.0045 259.371 25.0725C259.334 25.0785 259.329 25.1365 259.361 25.1525C259.397 25.1705 259.435 25.1845 259.473 25.1985C259.418 25.2225 259.364 25.2535 259.312 25.2945C259.261 25.3355 259.251 25.4345 259.287 25.4875C259.536 25.8505 259.976 25.8505 260.365 26.0035C260.791 26.1695 261.196 26.4095 261.55 26.6995C262.238 27.2635 262.868 28.1015 263.002 29.0015C263.05 29.3265 263.604 29.3235 263.656 29.0015C263.933 27.2845 265.236 25.9495 266.966 25.6815C267.361 25.6205 267.353 24.9615 266.966 24.8935Z" fill="#F0F1E3"/>
<path d="M267.039 24.6224C266.07 24.4384 265.193 23.9214 264.619 23.1084C264.349 22.7264 264.154 22.2984 264.043 21.8444C263.959 21.5035 263.954 21.0334 263.496 21.0014C263.027 20.9684 262.942 21.5064 262.816 21.8424C262.615 22.3794 262.378 22.9075 262.054 23.3825C261.734 23.8515 261.314 24.2574 260.8 24.5064C260.473 24.6654 260.138 24.7124 259.781 24.7464C259.573 24.7664 259.288 24.7384 259.14 24.9094C259.051 25.0124 259.039 25.1294 259.096 25.2494C259.16 25.3844 259.265 25.4144 259.396 25.4684C259.374 25.2974 259.351 25.1264 259.329 24.9544C258.907 25.1684 258.9 25.5665 259.254 25.8605C259.646 26.1855 260.231 26.2174 260.677 26.4544C261.223 26.7444 261.704 27.1555 262.081 27.6455C262.265 27.8835 262.425 28.1444 262.543 28.4214C262.649 28.6704 262.653 28.9774 262.777 29.2114C262.942 29.5224 263.37 29.6094 263.663 29.4324C264.027 29.2134 264.005 28.6134 264.146 28.2514C264.524 27.2764 265.326 26.4864 266.311 26.1344C266.718 25.9884 267.306 26.0304 267.488 25.5584C267.637 25.1724 267.44 24.7374 267.039 24.6224C266.691 24.5234 266.542 25.0654 266.89 25.1644C266.966 25.1864 267.001 25.2724 266.969 25.3484C266.935 25.4264 266.86 25.4114 266.782 25.4284C266.537 25.4814 266.298 25.5395 266.063 25.6305C265.628 25.7975 265.229 26.0284 264.869 26.3244C264.163 26.9034 263.661 27.7245 263.447 28.6105C263.412 28.7545 263.351 29.1734 263.251 28.8104C263.186 28.5724 263.122 28.3435 263.02 28.1175C262.801 27.6325 262.474 27.1954 262.099 26.8204C261.705 26.4264 261.242 26.0935 260.736 25.8605C260.51 25.7565 260.28 25.6824 260.041 25.6134C259.937 25.5834 259.827 25.5595 259.731 25.5075C259.662 25.4755 259.602 25.4304 259.55 25.3734C259.499 25.4934 259.52 25.5164 259.613 25.4424C259.853 25.3204 259.748 25.0124 259.546 24.9284C259.509 24.9134 259.472 24.8975 259.434 24.8825C259.49 24.9255 259.546 24.9684 259.602 25.0114C259.595 24.9974 259.588 24.9824 259.581 24.9674C259.566 25.0814 259.552 25.1944 259.537 25.3074C259.547 25.2954 259.558 25.2835 259.568 25.2715C259.502 25.2985 259.436 25.3264 259.369 25.3534C259.917 25.2814 260.461 25.2754 260.973 25.0424C261.417 24.8404 261.815 24.5394 262.14 24.1764C262.484 23.7924 262.758 23.3514 262.981 22.8874C263.093 22.6534 263.194 22.4134 263.288 22.1714C263.337 22.0464 263.431 21.8844 263.445 21.7514C263.459 21.7114 263.473 21.6714 263.488 21.6314C263.412 21.5354 263.394 21.5515 263.436 21.6775C263.435 22.0745 263.664 22.5544 263.839 22.9014C264.029 23.2764 264.28 23.6255 264.572 23.9275C265.195 24.5715 266.011 24.9965 266.889 25.1635C267.243 25.2315 267.395 24.6894 267.039 24.6224Z" fill="black"/>
<path d="M292.875 36.7098C290.259 36.2488 288.228 34.1618 287.878 31.5228C287.829 31.1578 287.349 31.0538 287.218 31.4338C286.731 32.8388 286.166 34.2778 285.142 35.3878C284.641 35.9308 284.03 36.3668 283.342 36.6418C282.662 36.9138 281.985 36.8818 281.279 36.9858C281.223 36.9938 281.215 37.0828 281.263 37.1068C281.319 37.1348 281.376 37.1558 281.434 37.1768C281.35 37.2128 281.268 37.2608 281.188 37.3238C281.11 37.3858 281.094 37.5378 281.15 37.6188C281.53 38.1728 282.202 38.1738 282.796 38.4058C283.446 38.6598 284.065 39.0268 284.605 39.4688C285.655 40.3298 286.618 41.6088 286.822 42.9828C286.896 43.4798 287.741 43.4748 287.82 42.9828C288.243 40.3608 290.232 38.3228 292.874 37.9138C293.477 37.8198 293.465 36.8138 292.875 36.7098Z" fill="#F0F1E3"/>
<path d="M292.952 36.4392C291.434 36.1502 290.065 35.3322 289.168 34.0602C288.75 33.4672 288.446 32.8002 288.273 32.0952C288.166 31.6572 288.185 30.9652 287.581 30.9172C286.954 30.8682 286.85 31.6542 286.686 32.0922C286.375 32.9242 286.01 33.7422 285.508 34.4782C285.005 35.2152 284.348 35.8542 283.54 36.2472C283.016 36.5022 282.482 36.5792 281.91 36.6342C281.635 36.6612 281.231 36.6142 281.036 36.8402C280.947 36.9432 280.935 37.0602 280.992 37.1802C281.072 37.3512 281.191 37.3762 281.362 37.4462C281.34 37.2752 281.317 37.1042 281.295 36.9322C280.748 37.2102 280.728 37.6822 281.195 38.0712C281.782 38.5602 282.683 38.6102 283.352 38.9662C284.202 39.4182 284.95 40.0602 285.538 40.8222C285.827 41.1972 286.077 41.6032 286.262 42.0402C286.42 42.4122 286.429 42.8802 286.612 43.2292C286.825 43.6332 287.382 43.7432 287.763 43.5132C287.974 43.3852 288.053 43.2062 288.108 42.9752C288.203 42.5762 288.283 42.1842 288.431 41.7992C289.023 40.2582 290.286 39.0202 291.84 38.4632C292.396 38.2642 293.274 38.3252 293.533 37.6882C293.742 37.1762 293.485 36.5912 292.952 36.4392C292.604 36.3402 292.455 36.8822 292.803 36.9812C292.998 37.0372 293.1 37.2522 293.027 37.4452C292.953 37.6402 292.819 37.6292 292.639 37.6712C292.265 37.7592 291.9 37.8412 291.541 37.9792C290.903 38.2242 290.311 38.5662 289.783 39.0002C288.723 39.8702 287.972 41.0932 287.651 42.4242C287.622 42.5452 287.625 42.8042 287.554 42.9092C287.314 43.2602 287.15 42.9862 287.067 42.7302C286.955 42.3852 286.88 42.0422 286.729 41.7072C286.4 40.9772 285.91 40.3212 285.345 39.7562C284.752 39.1632 284.056 38.6652 283.294 38.3132C282.961 38.1602 282.621 38.0522 282.269 37.9512C282.083 37.8972 281.175 37.6262 281.58 37.4202C281.82 37.2982 281.715 36.9902 281.513 36.9062C281.502 36.9032 281.49 36.9012 281.479 36.8982C281.464 37.0122 281.45 37.1252 281.435 37.2382C281.527 37.1322 282.444 37.1452 282.604 37.1202C282.971 37.0632 283.32 36.9642 283.658 36.8112C284.326 36.5082 284.922 36.0572 285.41 35.5122C285.927 34.9352 286.336 34.2712 286.67 33.5742C286.836 33.2282 286.985 32.8732 287.124 32.5162C287.203 32.3132 287.254 32.0612 287.363 31.8742C287.385 31.8132 287.406 31.7522 287.428 31.6902C287.589 31.5342 287.658 31.5582 287.634 31.7602C287.756 32.0452 287.767 32.4112 287.867 32.7122C287.967 33.0142 288.092 33.3092 288.235 33.5932C288.519 34.1562 288.893 34.6772 289.331 35.1302C290.265 36.0972 291.487 36.7292 292.803 36.9792C293.156 37.0482 293.308 36.5072 292.952 36.4392Z" fill="black"/>
<path d="M284.755 59.8534C283.042 59.5514 281.711 58.1844 281.482 56.4554C281.45 56.2164 281.136 56.1484 281.05 56.3964C280.731 57.3164 280.361 58.2594 279.69 58.9864C279.362 59.3424 278.961 59.6274 278.511 59.8074C278.066 59.9854 277.622 59.9644 277.16 60.0324C277.123 60.0384 277.118 60.0964 277.15 60.1114C277.186 60.1294 277.224 60.1434 277.262 60.1574C277.207 60.1814 277.153 60.2124 277.101 60.2534C277.05 60.2944 277.04 60.3934 277.076 60.4464C277.325 60.8084 277.765 60.8094 278.154 60.9624C278.58 61.1284 278.985 61.3694 279.339 61.6584C280.027 62.2224 280.657 63.0594 280.791 63.9604C280.839 64.2854 281.393 64.2824 281.445 63.9604C281.722 62.2434 283.025 60.9084 284.755 60.6404C285.149 60.5804 285.141 59.9214 284.755 59.8534Z" fill="#F0F1E3"/>
<path d="M284.829 59.5824C283.86 59.3984 282.983 58.8814 282.408 58.0694C282.138 57.6874 281.943 57.2594 281.832 56.8054C281.748 56.4644 281.743 55.9944 281.285 55.9624C280.816 55.9294 280.731 56.4674 280.605 56.8034C280.404 57.3404 280.167 57.8684 279.843 58.3424C279.523 58.8114 279.103 59.2174 278.589 59.4664C278.262 59.6244 277.927 59.6724 277.57 59.7064C277.362 59.7264 277.077 59.6984 276.929 59.8694C276.84 59.9724 276.828 60.0894 276.885 60.2094C276.949 60.3444 277.054 60.3744 277.185 60.4284C277.163 60.2574 277.14 60.0864 277.118 59.9144C276.697 60.1284 276.689 60.5264 277.043 60.8204C277.435 61.1454 278.02 61.1774 278.465 61.4144C279.011 61.7044 279.492 62.1154 279.869 62.6044C280.053 62.8434 280.213 63.1034 280.331 63.3804C280.437 63.6294 280.441 63.9364 280.565 64.1704C280.73 64.4814 281.158 64.5684 281.451 64.3914C281.815 64.1724 281.793 63.5724 281.934 63.2104C282.312 62.2354 283.114 61.4454 284.099 61.0934C284.506 60.9474 285.094 60.9894 285.276 60.5174C285.427 60.1324 285.23 59.6964 284.829 59.5824C284.481 59.4834 284.332 60.0254 284.68 60.1244C284.756 60.1464 284.791 60.2324 284.759 60.3094C284.726 60.3874 284.65 60.3724 284.573 60.3894C284.328 60.4424 284.089 60.5014 283.854 60.5914C283.419 60.7584 283.02 60.9894 282.66 61.2854C281.954 61.8644 281.452 62.6854 281.238 63.5714C281.203 63.7154 281.142 64.1344 281.042 63.7714C280.976 63.5334 280.913 63.3044 280.811 63.0784C280.592 62.5934 280.265 62.1564 279.89 61.7814C279.496 61.3874 279.033 61.0544 278.527 60.8214C278.301 60.7174 278.071 60.6434 277.832 60.5744C277.728 60.5444 277.618 60.5204 277.522 60.4684C277.453 60.4364 277.393 60.3914 277.341 60.3344C277.29 60.4544 277.311 60.4774 277.404 60.4034C277.644 60.2814 277.539 59.9734 277.337 59.8894C277.3 59.8744 277.263 59.8584 277.225 59.8434C277.281 59.8864 277.337 59.9294 277.393 59.9724C277.386 59.9574 277.379 59.9434 277.373 59.9284C277.358 60.0424 277.344 60.1554 277.329 60.2684C277.339 60.2564 277.35 60.2444 277.36 60.2324C277.294 60.2594 277.228 60.2874 277.161 60.3144C277.709 60.2424 278.253 60.2364 278.765 60.0034C279.209 59.8014 279.607 59.5004 279.932 59.1374C280.276 58.7534 280.55 58.3124 280.773 57.8484C280.885 57.6144 280.986 57.3744 281.08 57.1324C281.129 57.0074 281.223 56.8454 281.237 56.7124C281.251 56.6724 281.265 56.6324 281.28 56.5924C281.204 56.4964 281.187 56.5124 281.228 56.6384C281.227 57.0354 281.456 57.5154 281.631 57.8624C281.821 58.2374 282.072 58.5864 282.364 58.8884C282.987 59.5324 283.802 59.9574 284.68 60.1244C285.032 60.1914 285.184 59.6504 284.829 59.5824Z" fill="black"/>
<path d="M24.9661 244.893C23.2531 244.591 21.9221 243.224 21.6931 241.495C21.6611 241.256 21.3471 241.188 21.2611 241.436C20.9421 242.356 20.5721 243.299 19.9011 244.026C19.5731 244.382 19.1721 244.667 18.7221 244.847C18.2771 245.025 17.8331 245.004 17.3711 245.072C17.3341 245.077 17.3291 245.136 17.3611 245.152C17.3971 245.17 17.4351 245.184 17.4731 245.198C17.4181 245.222 17.3641 245.253 17.3121 245.294C17.2611 245.335 17.2511 245.434 17.2871 245.487C17.5361 245.85 17.9761 245.851 18.3651 246.003C18.7911 246.169 19.1961 246.41 19.5501 246.699C20.2381 247.263 20.8681 248.101 21.0021 249.001C21.0501 249.327 21.6041 249.323 21.6561 249.001C21.9331 247.284 23.2361 245.949 24.9661 245.681C25.3601 245.621 25.3521 244.962 24.9661 244.893Z" fill="#F0F1E3"/>
<path d="M25.0403 244.622C24.0713 244.438 23.1943 243.921 22.6203 243.108C22.3503 242.726 22.1553 242.298 22.0443 241.844C21.9613 241.503 21.9553 241.033 21.4973 241.001C21.0283 240.968 20.9433 241.506 20.8173 241.842C20.6163 242.379 20.3793 242.906 20.0553 243.381C19.7353 243.85 19.3153 244.256 18.8003 244.505C18.4733 244.663 18.1383 244.711 17.7813 244.745C17.5733 244.765 17.2883 244.737 17.1403 244.908C17.0513 245.011 17.0393 245.127 17.0963 245.248C17.1603 245.383 17.2653 245.413 17.3963 245.467C17.3743 245.296 17.3513 245.125 17.3293 244.953C16.9073 245.167 16.9003 245.565 17.2543 245.859C17.6463 246.184 18.2313 246.216 18.6773 246.453C19.2233 246.743 19.7043 247.154 20.0823 247.644C20.2663 247.882 20.4263 248.143 20.5443 248.42C20.6503 248.669 20.6543 248.976 20.7783 249.21C20.9433 249.521 21.3713 249.608 21.6643 249.431C22.0283 249.212 22.0063 248.612 22.1473 248.25C22.5253 247.275 23.3273 246.485 24.3123 246.133C24.7193 245.987 25.3073 246.029 25.4893 245.557C25.6383 245.173 25.4413 244.737 25.0403 244.622C24.6923 244.522 24.5433 245.064 24.8913 245.164C24.9673 245.186 25.0023 245.273 24.9703 245.348C24.9363 245.426 24.8613 245.412 24.7833 245.428C24.5383 245.481 24.2993 245.539 24.0643 245.63C23.6293 245.797 23.2303 246.028 22.8703 246.324C22.1643 246.903 21.6623 247.724 21.4483 248.61C21.4133 248.754 21.3523 249.173 21.2523 248.81C21.1863 248.572 21.1233 248.343 21.0213 248.117C20.8023 247.632 20.4753 247.195 20.0993 246.82C19.7053 246.426 19.2423 246.093 18.7363 245.86C18.5103 245.756 18.2803 245.682 18.0413 245.613C17.9373 245.583 17.8273 245.559 17.7313 245.507C17.6623 245.475 17.6023 245.43 17.5503 245.373C17.4993 245.493 17.5203 245.516 17.6133 245.442C17.8533 245.32 17.7483 245.012 17.5463 244.928C17.5093 244.913 17.4713 244.897 17.4343 244.882C17.4903 244.925 17.5463 244.968 17.6023 245.011C17.5953 244.997 17.5883 244.982 17.5813 244.967C17.5663 245.081 17.5523 245.194 17.5373 245.307C17.5473 245.295 17.5583 245.283 17.5683 245.271C17.5023 245.299 17.4363 245.326 17.3693 245.353C17.9173 245.281 18.4613 245.275 18.9733 245.042C19.4173 244.84 19.8153 244.539 20.1403 244.176C20.4843 243.792 20.7583 243.351 20.9813 242.887C21.0933 242.653 21.1943 242.413 21.2883 242.171C21.3373 242.046 21.4313 241.884 21.4453 241.751C21.4593 241.711 21.4733 241.671 21.4883 241.631C21.4123 241.535 21.3953 241.551 21.4363 241.677C21.4353 242.074 21.6643 242.554 21.8393 242.901C22.0293 243.276 22.2803 243.625 22.5723 243.927C23.1943 244.571 24.0113 244.996 24.8893 245.163C25.2443 245.231 25.3963 244.69 25.0403 244.622Z" fill="black"/>
<path d="M27.0122 268.793C24.3962 268.332 22.3652 266.245 22.0152 263.606C21.9662 263.241 21.4872 263.137 21.3552 263.517C20.8682 264.922 20.3032 266.361 19.2792 267.471C18.7782 268.014 18.1672 268.45 17.4792 268.725C16.7992 268.997 16.1222 268.965 15.4162 269.069C15.3602 269.077 15.3522 269.166 15.4002 269.19C15.4562 269.218 15.5132 269.239 15.5712 269.261C15.4872 269.297 15.4052 269.345 15.3252 269.408C15.2472 269.47 15.2312 269.622 15.2872 269.703C15.6672 270.257 16.3392 270.258 16.9332 270.49C17.5832 270.744 18.2022 271.111 18.7422 271.553C19.7922 272.414 20.7552 273.693 20.9592 275.067C21.0332 275.564 21.8782 275.559 21.9572 275.067C22.3802 272.445 24.3692 270.407 27.0112 269.998C27.6142 269.904 27.6022 268.898 27.0122 268.793Z" fill="#F0F1E3"/>
<path d="M27.0886 268.523C25.5706 268.234 24.2016 267.416 23.3046 266.144C22.8866 265.551 22.5826 264.884 22.4096 264.179C22.3026 263.741 22.3216 263.049 21.7176 263.001C21.0906 262.952 20.9866 263.738 20.8226 264.176C20.5116 265.008 20.1466 265.826 19.6446 266.562C19.1416 267.299 18.4846 267.938 17.6766 268.331C17.1526 268.586 16.6186 268.663 16.0466 268.718C15.7716 268.745 15.3676 268.698 15.1726 268.924C15.0836 269.027 15.0716 269.144 15.1286 269.264C15.2086 269.435 15.3276 269.46 15.4986 269.53C15.4766 269.359 15.4536 269.188 15.4316 269.016C14.8846 269.294 14.8646 269.766 15.3316 270.155C15.9186 270.644 16.8196 270.694 17.4886 271.05C18.3386 271.502 19.0866 272.144 19.6746 272.906C19.9636 273.281 20.2136 273.687 20.3986 274.124C20.5566 274.496 20.5656 274.964 20.7486 275.313C20.9616 275.717 21.5186 275.827 21.8996 275.597C22.1116 275.469 22.1896 275.29 22.2456 275.059C22.3406 274.66 22.4206 274.268 22.5686 273.883C23.1606 272.342 24.4236 271.104 25.9776 270.547C26.5336 270.348 27.4116 270.409 27.6706 269.772C27.8786 269.259 27.6216 268.675 27.0886 268.523C26.7406 268.424 26.5916 268.966 26.9396 269.065C27.1346 269.121 27.2366 269.336 27.1636 269.529C27.0896 269.724 26.9556 269.713 26.7756 269.755C26.4016 269.843 26.0366 269.925 25.6776 270.063C25.0396 270.308 24.4476 270.65 23.9196 271.084C22.8596 271.954 22.1086 273.177 21.7876 274.508C21.7586 274.629 21.7616 274.888 21.6906 274.993C21.4506 275.344 21.2866 275.07 21.2036 274.814C21.0916 274.469 21.0166 274.126 20.8656 273.791C20.5366 273.061 20.0466 272.405 19.4816 271.84C18.8886 271.247 18.1926 270.749 17.4306 270.397C17.0976 270.244 16.7576 270.136 16.4056 270.035C16.2196 269.981 15.3116 269.71 15.7166 269.504C15.9566 269.382 15.8516 269.074 15.6496 268.99C15.6386 268.987 15.6266 268.985 15.6156 268.982C15.6006 269.095 15.5866 269.209 15.5716 269.322C15.6636 269.216 16.5806 269.229 16.7406 269.204C17.1076 269.147 17.4566 269.048 17.7946 268.895C18.4626 268.592 19.0586 268.141 19.5466 267.596C20.0636 267.019 20.4726 266.355 20.8066 265.658C20.9726 265.312 21.1206 264.957 21.2606 264.6C21.3396 264.397 21.3906 264.145 21.4996 263.958C21.5216 263.897 21.5426 263.836 21.5646 263.774C21.7256 263.618 21.7946 263.642 21.7706 263.844C21.8926 264.129 21.9036 264.495 22.0036 264.796C22.1036 265.098 22.2286 265.394 22.3716 265.677C22.6556 266.24 23.0296 266.761 23.4676 267.214C24.4016 268.181 25.6226 268.813 26.9396 269.063C27.2926 269.132 27.4436 268.59 27.0886 268.523Z" fill="black"/>
<path d="M46.7009 273.613C44.9879 273.311 43.6569 271.944 43.4279 270.215C43.3959 269.976 43.0819 269.908 42.9959 270.156C42.6769 271.076 42.3069 272.019 41.6359 272.746C41.3079 273.102 40.9069 273.387 40.4569 273.568C40.0119 273.746 39.5679 273.725 39.1059 273.793C39.0689 273.799 39.0639 273.857 39.0959 273.872C39.1319 273.89 39.1699 273.904 39.2079 273.918C39.1529 273.942 39.0989 273.973 39.0469 274.014C38.9959 274.055 38.9849 274.154 39.0219 274.207C39.2709 274.569 39.7109 274.57 40.0999 274.723C40.5259 274.889 40.9309 275.129 41.2849 275.419C41.9729 275.983 42.6029 276.821 42.7369 277.721C42.7849 278.046 43.3389 278.043 43.3909 277.721C43.6679 276.004 44.9709 274.669 46.7009 274.401C47.0949 274.341 47.0869 273.682 46.7009 273.613Z" fill="#F0F1E3"/>
<path d="M47.04 272.622C46.071 272.438 45.194 271.921 44.62 271.108C44.35 270.726 44.155 270.298 44.044 269.844C43.961 269.503 43.955 269.033 43.497 269.001C43.027 268.968 42.943 269.506 42.817 269.842C42.616 270.379 42.379 270.907 42.055 271.382C41.735 271.851 41.315 272.257 40.8 272.506C40.473 272.665 40.138 272.712 39.781 272.746C39.573 272.766 39.288 272.738 39.14 272.909C39.051 273.012 39.039 273.129 39.096 273.249C39.16 273.384 39.265 273.414 39.396 273.468C39.374 273.297 39.351 273.126 39.329 272.955C38.908 273.169 38.9 273.567 39.254 273.861C39.646 274.186 40.231 274.218 40.677 274.455C41.223 274.745 41.704 275.156 42.081 275.646C42.265 275.884 42.425 276.145 42.543 276.422C42.649 276.671 42.653 276.978 42.777 277.212C42.942 277.523 43.37 277.61 43.663 277.433C44.027 277.214 44.005 276.614 44.146 276.252C44.524 275.277 45.326 274.487 46.311 274.135C46.718 273.989 47.306 274.031 47.488 273.559C47.638 273.172 47.441 272.737 47.04 272.622C46.692 272.523 46.543 273.065 46.891 273.164C46.967 273.186 47.002 273.273 46.97 273.348C46.937 273.426 46.861 273.411 46.783 273.428C46.538 273.481 46.298 273.54 46.064 273.63C45.629 273.797 45.23 274.028 44.87 274.324C44.164 274.903 43.662 275.724 43.448 276.61C43.413 276.754 43.352 277.173 43.252 276.81C43.186 276.572 43.123 276.343 43.021 276.117C42.802 275.632 42.475 275.195 42.1 274.82C41.706 274.426 41.243 274.093 40.737 273.86C40.511 273.756 40.281 273.681 40.042 273.613C39.938 273.583 39.828 273.559 39.732 273.507C39.663 273.475 39.603 273.43 39.551 273.373C39.5 273.493 39.521 273.516 39.614 273.442C39.854 273.32 39.749 273.012 39.547 272.928C39.51 272.913 39.472 272.897 39.435 272.882C39.491 272.925 39.547 272.968 39.603 273.011C39.596 272.997 39.589 272.982 39.582 272.967C39.567 273.081 39.553 273.194 39.538 273.307C39.548 273.295 39.559 273.283 39.569 273.271C39.503 273.298 39.437 273.326 39.37 273.353C39.918 273.281 40.462 273.275 40.974 273.042C41.418 272.84 41.816 272.539 42.141 272.176C42.485 271.792 42.759 271.351 42.982 270.887C43.094 270.653 43.195 270.413 43.289 270.171C43.338 270.046 43.432 269.884 43.446 269.751C43.46 269.711 43.474 269.671 43.489 269.631C43.413 269.535 43.395 269.551 43.437 269.677C43.435 270.074 43.665 270.554 43.84 270.901C44.03 271.276 44.281 271.625 44.573 271.927C45.196 272.571 46.012 272.996 46.89 273.163C47.244 273.231 47.395 272.69 47.04 272.622Z" fill="black"/>
</svg>
