<svg width="307" height="298" viewBox="0 0 307 298" fill="none" xmlns="http://www.w3.org/2000/svg">
<rect x="0.5" y="0.5" width="306" height="297" rx="19.5" stroke="white"/>
<path d="M266.966 37.8935C265.253 37.5915 263.922 36.2245 263.693 34.4955C263.661 34.2565 263.347 34.1885 263.261 34.4365C262.942 35.3565 262.572 36.2995 261.901 37.0265C261.573 37.3825 261.172 37.6675 260.722 37.8475C260.277 38.0255 259.833 38.0045 259.371 38.0725C259.334 38.0785 259.329 38.1365 259.361 38.1525C259.397 38.1705 259.435 38.1845 259.473 38.1985C259.418 38.2225 259.364 38.2535 259.312 38.2945C259.261 38.3355 259.251 38.4345 259.287 38.4875C259.536 38.8505 259.976 38.8505 260.365 39.0035C260.791 39.1695 261.196 39.4095 261.55 39.6995C262.238 40.2635 262.868 41.1015 263.002 42.0015C263.05 42.3265 263.604 42.3235 263.656 42.0015C263.933 40.2845 265.236 38.9495 266.966 38.6815C267.361 38.6205 267.353 37.9615 266.966 37.8935Z" fill="#F0F1E3"/>
<path d="M267.039 37.6224C266.07 37.4384 265.193 36.9214 264.619 36.1084C264.349 35.7264 264.154 35.2984 264.043 34.8444C263.959 34.5035 263.954 34.0334 263.496 34.0014C263.027 33.9684 262.942 34.5064 262.816 34.8424C262.615 35.3794 262.378 35.9075 262.054 36.3825C261.734 36.8515 261.314 37.2574 260.8 37.5064C260.473 37.6654 260.138 37.7124 259.781 37.7464C259.573 37.7664 259.288 37.7384 259.14 37.9094C259.051 38.0124 259.039 38.1294 259.096 38.2494C259.16 38.3844 259.265 38.4144 259.396 38.4684C259.374 38.2974 259.351 38.1264 259.329 37.9544C258.907 38.1684 258.9 38.5665 259.254 38.8605C259.646 39.1855 260.231 39.2174 260.677 39.4544C261.223 39.7444 261.704 40.1555 262.081 40.6455C262.265 40.8835 262.425 41.1444 262.543 41.4214C262.649 41.6704 262.653 41.9774 262.777 42.2114C262.942 42.5224 263.37 42.6094 263.663 42.4324C264.027 42.2134 264.005 41.6134 264.146 41.2514C264.524 40.2764 265.326 39.4864 266.311 39.1344C266.718 38.9884 267.306 39.0304 267.488 38.5584C267.637 38.1724 267.44 37.7374 267.039 37.6224C266.691 37.5234 266.542 38.0654 266.89 38.1644C266.966 38.1864 267.001 38.2724 266.969 38.3484C266.935 38.4264 266.86 38.4114 266.782 38.4284C266.537 38.4814 266.298 38.5395 266.063 38.6305C265.628 38.7975 265.229 39.0284 264.869 39.3244C264.163 39.9034 263.661 40.7245 263.447 41.6105C263.412 41.7545 263.351 42.1734 263.251 41.8104C263.186 41.5724 263.122 41.3435 263.02 41.1175C262.801 40.6325 262.474 40.1954 262.099 39.8204C261.705 39.4264 261.242 39.0935 260.736 38.8605C260.51 38.7565 260.28 38.6824 260.041 38.6134C259.937 38.5834 259.827 38.5595 259.731 38.5075C259.662 38.4755 259.602 38.4304 259.55 38.3734C259.499 38.4934 259.52 38.5164 259.613 38.4424C259.853 38.3204 259.748 38.0124 259.546 37.9284C259.509 37.9134 259.472 37.8975 259.434 37.8825C259.49 37.9255 259.546 37.9684 259.602 38.0114C259.595 37.9974 259.588 37.9824 259.581 37.9674C259.566 38.0814 259.552 38.1944 259.537 38.3074C259.547 38.2954 259.558 38.2835 259.568 38.2715C259.502 38.2985 259.436 38.3264 259.369 38.3534C259.917 38.2814 260.461 38.2754 260.973 38.0424C261.417 37.8404 261.815 37.5394 262.14 37.1764C262.484 36.7924 262.758 36.3514 262.981 35.8874C263.093 35.6534 263.194 35.4134 263.288 35.1714C263.337 35.0464 263.431 34.8844 263.445 34.7514C263.459 34.7114 263.473 34.6714 263.488 34.6314C263.412 34.5354 263.394 34.5515 263.436 34.6775C263.435 35.0745 263.664 35.5544 263.839 35.9014C264.029 36.2764 264.28 36.6255 264.572 36.9275C265.195 37.5715 266.011 37.9965 266.889 38.1635C267.243 38.2315 267.395 37.6894 267.039 37.6224Z" fill="black"/>
<path d="M292.875 49.7098C290.259 49.2488 288.228 47.1618 287.878 44.5228C287.829 44.1578 287.349 44.0538 287.218 44.4338C286.731 45.8388 286.166 47.2778 285.142 48.3878C284.641 48.9308 284.03 49.3668 283.342 49.6418C282.662 49.9138 281.985 49.8818 281.279 49.9858C281.223 49.9938 281.215 50.0828 281.263 50.1068C281.319 50.1348 281.376 50.1558 281.434 50.1768C281.35 50.2128 281.268 50.2608 281.188 50.3238C281.11 50.3858 281.094 50.5378 281.15 50.6188C281.53 51.1728 282.202 51.1738 282.796 51.4058C283.446 51.6598 284.065 52.0268 284.605 52.4688C285.655 53.3298 286.618 54.6088 286.822 55.9828C286.896 56.4798 287.741 56.4748 287.82 55.9828C288.243 53.3608 290.232 51.3228 292.874 50.9138C293.477 50.8198 293.465 49.8138 292.875 49.7098Z" fill="#F0F1E3"/>
<path d="M292.952 49.4392C291.434 49.1502 290.065 48.3322 289.168 47.0602C288.75 46.4672 288.446 45.8002 288.273 45.0952C288.166 44.6572 288.185 43.9652 287.581 43.9172C286.954 43.8682 286.85 44.6542 286.686 45.0922C286.375 45.9242 286.01 46.7422 285.508 47.4782C285.005 48.2152 284.348 48.8542 283.54 49.2472C283.016 49.5022 282.482 49.5792 281.91 49.6342C281.635 49.6612 281.231 49.6142 281.036 49.8402C280.947 49.9432 280.935 50.0602 280.992 50.1802C281.072 50.3512 281.191 50.3762 281.362 50.4462C281.34 50.2752 281.317 50.1042 281.295 49.9322C280.748 50.2102 280.728 50.6822 281.195 51.0712C281.782 51.5602 282.683 51.6102 283.352 51.9662C284.202 52.4182 284.95 53.0602 285.538 53.8222C285.827 54.1972 286.077 54.6032 286.262 55.0402C286.42 55.4122 286.429 55.8802 286.612 56.2292C286.825 56.6332 287.382 56.7432 287.763 56.5132C287.974 56.3852 288.053 56.2062 288.108 55.9752C288.203 55.5762 288.283 55.1842 288.431 54.7992C289.023 53.2582 290.286 52.0202 291.84 51.4632C292.396 51.2642 293.274 51.3252 293.533 50.6882C293.742 50.1762 293.485 49.5912 292.952 49.4392C292.604 49.3402 292.455 49.8822 292.803 49.9812C292.998 50.0372 293.1 50.2522 293.027 50.4452C292.953 50.6402 292.819 50.6292 292.639 50.6712C292.265 50.7592 291.9 50.8412 291.541 50.9792C290.903 51.2242 290.311 51.5662 289.783 52.0002C288.723 52.8702 287.972 54.0932 287.651 55.4242C287.622 55.5452 287.625 55.8042 287.554 55.9092C287.314 56.2602 287.15 55.9862 287.067 55.7302C286.955 55.3852 286.88 55.0422 286.729 54.7072C286.4 53.9772 285.91 53.3212 285.345 52.7562C284.752 52.1632 284.056 51.6652 283.294 51.3132C282.961 51.1602 282.621 51.0522 282.269 50.9512C282.083 50.8972 281.175 50.6262 281.58 50.4202C281.82 50.2982 281.715 49.9902 281.513 49.9062C281.502 49.9032 281.49 49.9012 281.479 49.8982C281.464 50.0122 281.45 50.1252 281.435 50.2382C281.527 50.1322 282.444 50.1452 282.604 50.1202C282.971 50.0632 283.32 49.9642 283.658 49.8112C284.326 49.5082 284.922 49.0572 285.41 48.5122C285.927 47.9352 286.336 47.2712 286.67 46.5742C286.836 46.2282 286.985 45.8732 287.124 45.5162C287.203 45.3132 287.254 45.0612 287.363 44.8742C287.385 44.8132 287.406 44.7522 287.428 44.6902C287.589 44.5342 287.658 44.5582 287.634 44.7602C287.756 45.0452 287.767 45.4112 287.867 45.7122C287.967 46.0142 288.092 46.3092 288.235 46.5932C288.519 47.1562 288.893 47.6772 289.331 48.1302C290.265 49.0972 291.487 49.7292 292.803 49.9792C293.156 50.0482 293.308 49.5072 292.952 49.4392Z" fill="black"/>
<path d="M162.854 72.1139C158.748 71.3888 155.56 68.1065 155.011 63.9561C154.934 63.3821 154.181 63.2185 153.975 63.8161C153.211 66.0258 152.324 68.289 150.716 70.0347C149.93 70.8887 148.971 71.5744 147.891 72.0069C146.824 72.4347 145.761 72.3844 144.653 72.5479C144.565 72.5605 144.553 72.7005 144.628 72.7382C144.716 72.7823 144.805 72.8153 144.896 72.8483C144.765 72.9049 144.636 72.9804 144.51 73.0795C144.388 73.177 144.363 73.4161 144.451 73.5435C145.047 74.4148 146.102 74.4163 147.034 74.7812C148.054 75.1807 149.026 75.7579 149.874 76.453C151.522 77.8072 153.033 79.8187 153.353 81.9796C153.47 82.7613 154.796 82.7534 154.92 81.9796C155.584 77.8559 158.706 74.6507 162.853 74.0074C163.799 73.8596 163.78 72.2774 162.854 72.1139Z" fill="#F0F1E3"/>
<path d="M162.974 71.6881C160.591 71.2335 158.443 69.947 157.035 67.9465C156.379 67.0139 155.902 65.9649 155.63 64.8561C155.462 64.1673 155.492 63.0789 154.544 63.0034C153.56 62.9264 153.396 64.1625 153.139 64.8514C152.651 66.1599 152.078 67.4464 151.29 68.6039C150.501 69.763 149.469 70.768 148.201 71.3861C147.379 71.7871 146.541 71.9082 145.643 71.9947C145.211 72.0372 144.577 71.9633 144.271 72.3187C144.131 72.4807 144.112 72.6647 144.202 72.8535C144.327 73.1224 144.514 73.1617 144.783 73.2718C144.748 73.0029 144.712 72.7339 144.677 72.4634C143.819 72.9006 143.787 73.643 144.52 74.2548C145.442 75.0238 146.856 75.1025 147.906 75.6624C149.24 76.3732 150.414 77.3829 151.337 78.5814C151.791 79.1711 152.183 79.8097 152.474 80.4969C152.722 81.082 152.736 81.818 153.023 82.3669C153.357 83.0023 154.231 83.1753 154.83 82.8136C155.161 82.6123 155.285 82.3307 155.371 81.9674C155.52 81.3399 155.646 80.7234 155.878 80.1179C156.807 77.6943 158.79 75.7473 161.229 74.8713C162.101 74.5583 163.48 74.6542 163.886 73.6524C164.214 72.8472 163.811 71.9271 162.974 71.6881C162.428 71.5324 162.194 72.3848 162.74 72.5405C163.046 72.6286 163.206 72.9667 163.092 73.2702C162.976 73.5769 162.765 73.5596 162.483 73.6257C161.896 73.7641 161.323 73.893 160.759 74.1101C159.758 74.4954 158.829 75.0333 158 75.7158C156.336 77.0841 155.158 79.0076 154.654 81.1009C154.608 81.2912 154.613 81.6985 154.501 81.8636C154.125 82.4157 153.867 81.9847 153.737 81.5821C153.561 81.0395 153.444 80.5001 153.207 79.9732C152.69 78.8251 151.921 77.7934 151.034 76.9048C150.103 75.9722 149.011 75.189 147.815 74.6354C147.292 74.3947 146.759 74.2249 146.206 74.066C145.914 73.9811 144.489 73.5549 145.125 73.2309C145.501 73.039 145.337 72.5546 145.02 72.4225C145.002 72.4178 144.983 72.4147 144.966 72.4099C144.943 72.5892 144.921 72.767 144.897 72.9447C145.042 72.778 146.481 72.7984 146.732 72.7591C147.308 72.6695 147.856 72.5138 148.386 72.2731C149.435 71.7966 150.37 71.0873 151.136 70.2301C151.948 69.3227 152.59 68.2784 153.114 67.1822C153.374 66.638 153.608 66.0797 153.827 65.5182C153.951 65.199 154.031 64.8026 154.202 64.5085C154.236 64.4126 154.269 64.3167 154.304 64.2192C154.556 63.9738 154.665 64.0116 154.627 64.3293C154.819 64.7775 154.836 65.3531 154.993 65.8265C155.15 66.3015 155.346 66.7654 155.57 67.2121C156.016 68.0975 156.603 68.9169 157.291 69.6294C158.757 71.1502 160.675 72.1442 162.74 72.5373C163.294 72.6459 163.533 71.795 162.974 71.6881Z" fill="black"/>
<path d="M284.755 72.8534C283.042 72.5514 281.711 71.1844 281.482 69.4554C281.45 69.2164 281.136 69.1484 281.05 69.3964C280.731 70.3164 280.361 71.2594 279.69 71.9864C279.362 72.3424 278.961 72.6274 278.511 72.8074C278.066 72.9854 277.622 72.9644 277.16 73.0324C277.123 73.0384 277.118 73.0964 277.15 73.1114C277.186 73.1294 277.224 73.1434 277.262 73.1574C277.207 73.1814 277.153 73.2124 277.101 73.2534C277.05 73.2944 277.04 73.3934 277.076 73.4464C277.325 73.8084 277.765 73.8094 278.154 73.9624C278.58 74.1284 278.985 74.3694 279.339 74.6584C280.027 75.2224 280.657 76.0594 280.791 76.9604C280.839 77.2854 281.393 77.2824 281.445 76.9604C281.722 75.2434 283.025 73.9084 284.755 73.6404C285.149 73.5804 285.141 72.9214 284.755 72.8534Z" fill="#F0F1E3"/>
<path d="M284.829 72.5824C283.86 72.3984 282.983 71.8814 282.408 71.0694C282.138 70.6874 281.943 70.2594 281.832 69.8054C281.748 69.4644 281.743 68.9944 281.285 68.9624C280.816 68.9294 280.731 69.4674 280.605 69.8034C280.404 70.3404 280.167 70.8684 279.843 71.3424C279.523 71.8114 279.103 72.2174 278.589 72.4664C278.262 72.6244 277.927 72.6724 277.57 72.7064C277.362 72.7264 277.077 72.6984 276.929 72.8694C276.84 72.9724 276.828 73.0894 276.885 73.2094C276.949 73.3444 277.054 73.3744 277.185 73.4284C277.163 73.2574 277.14 73.0864 277.118 72.9144C276.697 73.1284 276.689 73.5264 277.043 73.8204C277.435 74.1454 278.02 74.1774 278.465 74.4144C279.011 74.7044 279.492 75.1154 279.869 75.6044C280.053 75.8434 280.213 76.1034 280.331 76.3804C280.437 76.6294 280.441 76.9364 280.565 77.1704C280.73 77.4814 281.158 77.5684 281.451 77.3914C281.815 77.1724 281.793 76.5724 281.934 76.2104C282.312 75.2354 283.114 74.4454 284.099 74.0934C284.506 73.9474 285.094 73.9894 285.276 73.5174C285.427 73.1324 285.23 72.6964 284.829 72.5824C284.481 72.4834 284.332 73.0254 284.68 73.1244C284.756 73.1464 284.791 73.2324 284.759 73.3094C284.726 73.3874 284.65 73.3724 284.573 73.3894C284.328 73.4424 284.089 73.5014 283.854 73.5914C283.419 73.7584 283.02 73.9894 282.66 74.2854C281.954 74.8644 281.452 75.6854 281.238 76.5714C281.203 76.7154 281.142 77.1344 281.042 76.7714C280.976 76.5334 280.913 76.3044 280.811 76.0784C280.592 75.5934 280.265 75.1564 279.89 74.7814C279.496 74.3874 279.033 74.0544 278.527 73.8214C278.301 73.7174 278.071 73.6434 277.832 73.5744C277.728 73.5444 277.618 73.5204 277.522 73.4684C277.453 73.4364 277.393 73.3914 277.341 73.3344C277.29 73.4544 277.311 73.4774 277.404 73.4034C277.644 73.2814 277.539 72.9734 277.337 72.8894C277.3 72.8744 277.263 72.8584 277.225 72.8434C277.281 72.8864 277.337 72.9294 277.393 72.9724C277.386 72.9574 277.379 72.9434 277.373 72.9284C277.358 73.0424 277.344 73.1554 277.329 73.2684C277.339 73.2564 277.35 73.2444 277.36 73.2324C277.294 73.2594 277.228 73.2874 277.161 73.3144C277.709 73.2424 278.253 73.2364 278.765 73.0034C279.209 72.8014 279.607 72.5004 279.932 72.1374C280.276 71.7534 280.55 71.3124 280.773 70.8484C280.885 70.6144 280.986 70.3744 281.08 70.1324C281.129 70.0074 281.223 69.8454 281.237 69.7124C281.251 69.6724 281.265 69.6324 281.28 69.5924C281.204 69.4964 281.187 69.5124 281.228 69.6384C281.227 70.0354 281.456 70.5154 281.631 70.8624C281.821 71.2374 282.072 71.5864 282.364 71.8884C282.987 72.5324 283.802 72.9574 284.68 73.1244C285.032 73.1914 285.184 72.6504 284.829 72.5824Z" fill="black"/>
<path d="M24.9661 257.893C23.2531 257.591 21.9221 256.224 21.6931 254.495C21.6611 254.256 21.3471 254.188 21.2611 254.436C20.9421 255.356 20.5721 256.299 19.9011 257.026C19.5731 257.382 19.1721 257.667 18.7221 257.847C18.2771 258.025 17.8331 258.004 17.3711 258.072C17.3341 258.077 17.3291 258.136 17.3611 258.152C17.3971 258.17 17.4351 258.184 17.4731 258.198C17.4181 258.222 17.3641 258.253 17.3121 258.294C17.2611 258.335 17.2511 258.434 17.2871 258.487C17.5361 258.85 17.9761 258.851 18.3651 259.003C18.7911 259.169 19.1961 259.41 19.5501 259.699C20.2381 260.263 20.8681 261.101 21.0021 262.001C21.0501 262.327 21.6041 262.323 21.6561 262.001C21.9331 260.284 23.2361 258.949 24.9661 258.681C25.3601 258.621 25.3521 257.962 24.9661 257.893Z" fill="#F0F1E3"/>
<path d="M25.0403 257.622C24.0713 257.438 23.1943 256.921 22.6203 256.108C22.3503 255.726 22.1553 255.298 22.0443 254.844C21.9613 254.503 21.9553 254.033 21.4973 254.001C21.0283 253.968 20.9433 254.506 20.8173 254.842C20.6163 255.379 20.3793 255.906 20.0553 256.381C19.7353 256.85 19.3153 257.256 18.8003 257.505C18.4733 257.663 18.1383 257.711 17.7813 257.745C17.5733 257.765 17.2883 257.737 17.1403 257.908C17.0513 258.011 17.0393 258.127 17.0963 258.248C17.1603 258.383 17.2653 258.413 17.3963 258.467C17.3743 258.296 17.3513 258.125 17.3293 257.953C16.9073 258.167 16.9003 258.565 17.2543 258.859C17.6463 259.184 18.2313 259.216 18.6773 259.453C19.2233 259.743 19.7043 260.154 20.0823 260.644C20.2663 260.882 20.4263 261.143 20.5443 261.42C20.6503 261.669 20.6543 261.976 20.7783 262.21C20.9433 262.521 21.3713 262.608 21.6643 262.431C22.0283 262.212 22.0063 261.612 22.1473 261.25C22.5253 260.275 23.3273 259.485 24.3123 259.133C24.7193 258.987 25.3073 259.029 25.4893 258.557C25.6383 258.173 25.4413 257.737 25.0403 257.622C24.6923 257.522 24.5433 258.064 24.8913 258.164C24.9673 258.186 25.0023 258.273 24.9703 258.348C24.9363 258.426 24.8613 258.412 24.7833 258.428C24.5383 258.481 24.2993 258.539 24.0643 258.63C23.6293 258.797 23.2303 259.028 22.8703 259.324C22.1643 259.903 21.6623 260.724 21.4483 261.61C21.4133 261.754 21.3523 262.173 21.2523 261.81C21.1863 261.572 21.1233 261.343 21.0213 261.117C20.8023 260.632 20.4753 260.195 20.0993 259.82C19.7053 259.426 19.2423 259.093 18.7363 258.86C18.5103 258.756 18.2803 258.682 18.0413 258.613C17.9373 258.583 17.8273 258.559 17.7313 258.507C17.6623 258.475 17.6023 258.43 17.5503 258.373C17.4993 258.493 17.5203 258.516 17.6133 258.442C17.8533 258.32 17.7483 258.012 17.5463 257.928C17.5093 257.913 17.4713 257.897 17.4343 257.882C17.4903 257.925 17.5463 257.968 17.6023 258.011C17.5953 257.997 17.5883 257.982 17.5813 257.967C17.5663 258.081 17.5523 258.194 17.5373 258.307C17.5473 258.295 17.5583 258.283 17.5683 258.271C17.5023 258.299 17.4363 258.326 17.3693 258.353C17.9173 258.281 18.4613 258.275 18.9733 258.042C19.4173 257.84 19.8153 257.539 20.1403 257.176C20.4843 256.792 20.7583 256.351 20.9813 255.887C21.0933 255.653 21.1943 255.413 21.2883 255.171C21.3373 255.046 21.4313 254.884 21.4453 254.751C21.4593 254.711 21.4733 254.671 21.4883 254.631C21.4123 254.535 21.3953 254.551 21.4363 254.677C21.4353 255.074 21.6643 255.554 21.8393 255.901C22.0293 256.276 22.2803 256.625 22.5723 256.927C23.1943 257.571 24.0113 257.996 24.8893 258.163C25.2443 258.231 25.3963 257.69 25.0403 257.622Z" fill="black"/>
<path d="M27.0122 281.793C24.3962 281.332 22.3652 279.245 22.0152 276.606C21.9662 276.241 21.4872 276.137 21.3552 276.517C20.8682 277.922 20.3032 279.361 19.2792 280.471C18.7782 281.014 18.1672 281.45 17.4792 281.725C16.7992 281.997 16.1222 281.965 15.4162 282.069C15.3602 282.077 15.3522 282.166 15.4002 282.19C15.4562 282.218 15.5132 282.239 15.5712 282.261C15.4872 282.297 15.4052 282.345 15.3252 282.408C15.2472 282.47 15.2312 282.622 15.2872 282.703C15.6672 283.257 16.3392 283.258 16.9332 283.49C17.5832 283.744 18.2022 284.111 18.7422 284.553C19.7922 285.414 20.7552 286.693 20.9592 288.067C21.0332 288.564 21.8782 288.559 21.9572 288.067C22.3802 285.445 24.3692 283.407 27.0112 282.998C27.6142 282.904 27.6022 281.898 27.0122 281.793Z" fill="#F0F1E3"/>
<path d="M27.0886 281.523C25.5706 281.234 24.2016 280.416 23.3046 279.144C22.8866 278.551 22.5826 277.884 22.4096 277.179C22.3026 276.741 22.3216 276.049 21.7176 276.001C21.0906 275.952 20.9866 276.738 20.8226 277.176C20.5116 278.008 20.1466 278.826 19.6446 279.562C19.1416 280.299 18.4846 280.938 17.6766 281.331C17.1526 281.586 16.6186 281.663 16.0466 281.718C15.7716 281.745 15.3676 281.698 15.1726 281.924C15.0836 282.027 15.0716 282.144 15.1286 282.264C15.2086 282.435 15.3276 282.46 15.4986 282.53C15.4766 282.359 15.4536 282.188 15.4316 282.016C14.8846 282.294 14.8646 282.766 15.3316 283.155C15.9186 283.644 16.8196 283.694 17.4886 284.05C18.3386 284.502 19.0866 285.144 19.6746 285.906C19.9636 286.281 20.2136 286.687 20.3986 287.124C20.5566 287.496 20.5656 287.964 20.7486 288.313C20.9616 288.717 21.5186 288.827 21.8996 288.597C22.1116 288.469 22.1896 288.29 22.2456 288.059C22.3406 287.66 22.4206 287.268 22.5686 286.883C23.1606 285.342 24.4236 284.104 25.9776 283.547C26.5336 283.348 27.4116 283.409 27.6706 282.772C27.8786 282.259 27.6216 281.675 27.0886 281.523C26.7406 281.424 26.5916 281.966 26.9396 282.065C27.1346 282.121 27.2366 282.336 27.1636 282.529C27.0896 282.724 26.9556 282.713 26.7756 282.755C26.4016 282.843 26.0366 282.925 25.6776 283.063C25.0396 283.308 24.4476 283.65 23.9196 284.084C22.8596 284.954 22.1086 286.177 21.7876 287.508C21.7586 287.629 21.7616 287.888 21.6906 287.993C21.4506 288.344 21.2866 288.07 21.2036 287.814C21.0916 287.469 21.0166 287.126 20.8656 286.791C20.5366 286.061 20.0466 285.405 19.4816 284.84C18.8886 284.247 18.1926 283.749 17.4306 283.397C17.0976 283.244 16.7576 283.136 16.4056 283.035C16.2196 282.981 15.3116 282.71 15.7166 282.504C15.9566 282.382 15.8516 282.074 15.6496 281.99C15.6386 281.987 15.6266 281.985 15.6156 281.982C15.6006 282.095 15.5866 282.209 15.5716 282.322C15.6636 282.216 16.5806 282.229 16.7406 282.204C17.1076 282.147 17.4566 282.048 17.7946 281.895C18.4626 281.592 19.0586 281.141 19.5466 280.596C20.0636 280.019 20.4726 279.355 20.8066 278.658C20.9726 278.312 21.1206 277.957 21.2606 277.6C21.3396 277.397 21.3906 277.145 21.4996 276.958C21.5216 276.897 21.5426 276.836 21.5646 276.774C21.7256 276.618 21.7946 276.642 21.7706 276.844C21.8926 277.129 21.9036 277.495 22.0036 277.796C22.1036 278.098 22.2286 278.394 22.3716 278.677C22.6556 279.24 23.0296 279.761 23.4676 280.214C24.4016 281.181 25.6226 281.813 26.9396 282.063C27.2926 282.132 27.4436 281.59 27.0886 281.523Z" fill="black"/>
<path d="M46.7009 286.613C44.9879 286.311 43.6569 284.944 43.4279 283.215C43.3959 282.976 43.0819 282.908 42.9959 283.156C42.6769 284.076 42.3069 285.019 41.6359 285.746C41.3079 286.102 40.9069 286.387 40.4569 286.568C40.0119 286.746 39.5679 286.725 39.1059 286.793C39.0689 286.799 39.0639 286.857 39.0959 286.872C39.1319 286.89 39.1699 286.904 39.2079 286.918C39.1529 286.942 39.0989 286.973 39.0469 287.014C38.9959 287.055 38.9849 287.154 39.0219 287.207C39.2709 287.569 39.7109 287.57 40.0999 287.723C40.5259 287.889 40.9309 288.129 41.2849 288.419C41.9729 288.983 42.6029 289.821 42.7369 290.721C42.7849 291.046 43.3389 291.043 43.3909 290.721C43.6679 289.004 44.9709 287.669 46.7009 287.401C47.0949 287.341 47.0869 286.682 46.7009 286.613Z" fill="#F0F1E3"/>
<path d="M47.04 285.622C46.071 285.438 45.194 284.921 44.62 284.108C44.35 283.726 44.155 283.298 44.044 282.844C43.961 282.503 43.955 282.033 43.497 282.001C43.027 281.968 42.943 282.506 42.817 282.842C42.616 283.379 42.379 283.907 42.055 284.382C41.735 284.851 41.315 285.257 40.8 285.506C40.473 285.665 40.138 285.712 39.781 285.746C39.573 285.766 39.288 285.738 39.14 285.909C39.051 286.012 39.039 286.129 39.096 286.249C39.16 286.384 39.265 286.414 39.396 286.468C39.374 286.297 39.351 286.126 39.329 285.955C38.908 286.169 38.9 286.567 39.254 286.861C39.646 287.186 40.231 287.218 40.677 287.455C41.223 287.745 41.704 288.156 42.081 288.646C42.265 288.884 42.425 289.145 42.543 289.422C42.649 289.671 42.653 289.978 42.777 290.212C42.942 290.523 43.37 290.61 43.663 290.433C44.027 290.214 44.005 289.614 44.146 289.252C44.524 288.277 45.326 287.487 46.311 287.135C46.718 286.989 47.306 287.031 47.488 286.559C47.638 286.172 47.441 285.737 47.04 285.622C46.692 285.523 46.543 286.065 46.891 286.164C46.967 286.186 47.002 286.273 46.97 286.348C46.937 286.426 46.861 286.411 46.783 286.428C46.538 286.481 46.298 286.54 46.064 286.63C45.629 286.797 45.23 287.028 44.87 287.324C44.164 287.903 43.662 288.724 43.448 289.61C43.413 289.754 43.352 290.173 43.252 289.81C43.186 289.572 43.123 289.343 43.021 289.117C42.802 288.632 42.475 288.195 42.1 287.82C41.706 287.426 41.243 287.093 40.737 286.86C40.511 286.756 40.281 286.681 40.042 286.613C39.938 286.583 39.828 286.559 39.732 286.507C39.663 286.475 39.603 286.43 39.551 286.373C39.5 286.493 39.521 286.516 39.614 286.442C39.854 286.32 39.749 286.012 39.547 285.928C39.51 285.913 39.472 285.897 39.435 285.882C39.491 285.925 39.547 285.968 39.603 286.011C39.596 285.997 39.589 285.982 39.582 285.967C39.567 286.081 39.553 286.194 39.538 286.307C39.548 286.295 39.559 286.283 39.569 286.271C39.503 286.298 39.437 286.326 39.37 286.353C39.918 286.281 40.462 286.275 40.974 286.042C41.418 285.84 41.816 285.539 42.141 285.176C42.485 284.792 42.759 284.351 42.982 283.887C43.094 283.653 43.195 283.413 43.289 283.171C43.338 283.046 43.432 282.884 43.446 282.751C43.46 282.711 43.474 282.671 43.489 282.631C43.413 282.535 43.395 282.551 43.437 282.677C43.435 283.074 43.665 283.554 43.84 283.901C44.03 284.276 44.281 284.625 44.573 284.927C45.196 285.571 46.012 285.996 46.89 286.163C47.244 286.231 47.395 285.69 47.04 285.622Z" fill="black"/>
</svg>
