<svg width="1396" height="781" viewBox="0 0 1396 781" fill="none" xmlns="http://www.w3.org/2000/svg">
<g opacity="0.3" clip-path="url(#clip0_461_469)">
<path d="M1376.82 829.291V0.108398" stroke="#727272" stroke-dasharray="6 6"/>
<path d="M1327.39 829.291V0.108398" stroke="#727272" stroke-dasharray="6 6"/>
<path d="M1277.95 829.291V0.108398" stroke="#727272" stroke-dasharray="6 6"/>
<path d="M1228.51 829.291V0.108398" stroke="#727272" stroke-dasharray="6 6"/>
<path d="M1179.07 829.291V0.108398" stroke="#727272" stroke-dasharray="6 6"/>
<path d="M1129.62 829.291V0.108398" stroke="#727272" stroke-dasharray="6 6"/>
<path d="M1080.19 829.291V0.108398" stroke="#727272" stroke-dasharray="6 6"/>
<path d="M1030.75 829.291V0.108398" stroke="#727272" stroke-dasharray="6 6"/>
<path d="M981.312 829.291V0.108398" stroke="#727272" stroke-dasharray="6 6"/>
<path d="M931.867 829.291V0.108398" stroke="#727272" stroke-dasharray="6 6"/>
<path d="M882.43 829.291V0.108398" stroke="#727272" stroke-dasharray="6 6"/>
<path d="M832.992 829.291V0.108398" stroke="#727272" stroke-dasharray="6 6"/>
<path d="M783.551 829.291V0.108398" stroke="#727272" stroke-dasharray="6 6"/>
<path d="M734.105 829.291V0.108398" stroke="#727272" stroke-dasharray="6 6"/>
<path d="M684.641 829.303V0.120605" stroke="#727272" stroke-dasharray="6 6"/>
<path d="M635.203 829.303V0.120605" stroke="#727272" stroke-dasharray="6 6"/>
<path d="M585.758 829.303V0.120605" stroke="#727272" stroke-dasharray="6 6"/>
<path d="M536.32 829.303V0.120605" stroke="#727272" stroke-dasharray="6 6"/>
<path d="M486.883 829.303V0.120605" stroke="#727272" stroke-dasharray="6 6"/>
<path d="M437.441 829.303V0.120605" stroke="#727272" stroke-dasharray="6 6"/>
<path d="M388 829.303V0.120605" stroke="#727272" stroke-dasharray="6 6"/>
<path d="M338.555 829.303L338.556 0.121094" stroke="#727272" stroke-dasharray="6 6"/>
<path d="M289.121 829.303V0.121094" stroke="#727272" stroke-dasharray="6 6"/>
<path d="M239.684 829.303V0.120605" stroke="#727272" stroke-dasharray="6 6"/>
<path d="M190.234 829.303L190.236 0.121094" stroke="#727272" stroke-dasharray="6 6"/>
<path d="M140.793 829.303V0.120605" stroke="#727272" stroke-dasharray="6 6"/>
<path d="M91.3555 829.303V0.120605" stroke="#727272" stroke-dasharray="6 6"/>
<path d="M41.9141 829.303L41.9142 0.121094" stroke="#727272" stroke-dasharray="6 6"/>
<path d="M-40.6133 742.811H1510.82" stroke="#727272" stroke-dasharray="6 6"/>
<path d="M-40.6133 692.25H1510.82" stroke="#727272" stroke-dasharray="6 6"/>
<path d="M-40.6133 641.689L1510.82 641.691" stroke="#727272" stroke-dasharray="6 6"/>
<path d="M-40.6133 591.13H1510.82" stroke="#727272" stroke-dasharray="6 6"/>
<path d="M-40.6133 540.571H1510.82" stroke="#727272" stroke-dasharray="6 6"/>
<path d="M-40.6133 490.008L1510.82 490.009" stroke="#727272" stroke-dasharray="6 6"/>
<path d="M-40.6133 439.449H1510.82" stroke="#727272" stroke-dasharray="6 6"/>
<path d="M-40.6133 388.89H1510.82" stroke="#727272" stroke-dasharray="6 6"/>
<path d="M-40.6133 338.33L1510.82 338.331" stroke="#727272" stroke-dasharray="6 6"/>
<path d="M-40.6133 287.77H1510.82" stroke="#727272" stroke-dasharray="6 6"/>
<path d="M-40.6133 237.211H1510.82" stroke="#727272" stroke-dasharray="6 6"/>
<path d="M-40.6133 186.65L1510.82 186.651" stroke="#727272" stroke-dasharray="6 6"/>
<path d="M-40.6133 136.091H1510.82" stroke="#727272" stroke-dasharray="6 6"/>
<path d="M-40.6133 85.5303L1510.82 85.5305" stroke="#727272" stroke-dasharray="6 6"/>
<path d="M-40.6133 34.9717L1510.82 34.9719" stroke="#727272" stroke-dasharray="6 6"/>
</g>
<defs>
<clipPath id="clip0_461_469">
<rect width="1437" height="830" fill="white" transform="translate(-41)"/>
</clipPath>
</defs>
</svg>
