<svg width="232" height="79" viewBox="0 0 232 79" fill="none" xmlns="http://www.w3.org/2000/svg">
<g clip-path="url(#clip0_876_605)">
<rect x="0.679688" y="0.306641" width="230.44" height="78" rx="24" fill="#0D0D0D"/>
<path d="M49.9922 28.9941H40.6172V27.1191C40.6172 26.8705 40.5184 26.632 40.3426 26.4562C40.1668 26.2804 39.9283 26.1816 39.6797 26.1816C39.431 26.1816 39.1926 26.2804 39.0168 26.4562C38.841 26.632 38.7422 26.8705 38.7422 27.1191V28.9941H29.3672C28.8699 28.9941 28.393 29.1917 28.0414 29.5433C27.6897 29.8949 27.4922 30.3719 27.4922 30.8691V44.9316C27.4922 45.4289 27.6897 45.9058 28.0414 46.2575C28.393 46.6091 28.8699 46.8066 29.3672 46.8066H33.9797L31.4473 49.9707C31.2919 50.165 31.22 50.413 31.2475 50.6602C31.2749 50.9075 31.3995 51.1337 31.5938 51.2891C31.788 51.4445 32.036 51.5163 32.2833 51.4889C32.5305 51.4614 32.7567 51.3368 32.9121 51.1426L36.3797 46.8066H42.9797L46.4473 51.1426C46.5242 51.2388 46.6194 51.3188 46.7272 51.3783C46.8351 51.4377 46.9537 51.4753 47.0761 51.4889C47.1985 51.5025 47.3224 51.4918 47.4407 51.4575C47.559 51.4233 47.6694 51.366 47.7656 51.2891C47.8618 51.2121 47.9419 51.117 48.0013 51.0091C48.0607 50.9012 48.0983 50.7826 48.1119 50.6602C48.1255 50.5378 48.1149 50.4139 48.0806 50.2956C48.0463 50.1773 47.9891 50.0669 47.9121 49.9707L45.3797 46.8066H49.9922C50.4895 46.8066 50.9664 46.6091 51.318 46.2575C51.6696 45.9058 51.8672 45.4289 51.8672 44.9316V30.8691C51.8672 30.3719 51.6696 29.8949 51.318 29.5433C50.9664 29.1917 50.4895 28.9941 49.9922 28.9941ZM49.9922 44.9316H29.3672V30.8691H49.9922V44.9316Z" fill="#FBFAFC"/>
<path d="M66.7683 49.3066V30.2953H73.5448C75.0239 30.2953 76.2493 30.5645 77.2209 31.1029C78.1925 31.6413 78.9196 32.3777 79.4024 33.3122C79.8851 34.2405 80.1264 35.2864 80.1264 36.4498C80.1264 37.6195 79.882 38.6715 79.3931 39.606C78.9104 40.5343 78.1801 41.2707 77.2023 41.8153C76.2307 42.3538 75.0085 42.623 73.5356 42.623H68.8756V40.1908H73.2756C74.2101 40.1908 74.9682 40.0299 75.55 39.7081C76.1317 39.3801 76.5587 38.9346 76.831 38.3714C77.1033 37.8082 77.2394 37.1677 77.2394 36.4498C77.2394 35.732 77.1033 35.0945 76.831 34.5376C76.5587 33.9806 76.1286 33.5443 75.5407 33.2287C74.9589 32.9131 74.1916 32.7552 73.2385 32.7552H69.6368V49.3066H66.7683ZM82.7064 49.3066V35.0481H85.4819V49.3066H82.7064ZM84.1081 32.8481C83.6254 32.8481 83.2107 32.6872 82.8642 32.3654C82.5238 32.0374 82.3536 31.6475 82.3536 31.1957C82.3536 30.7378 82.5238 30.3479 82.8642 30.0261C83.2107 29.6981 83.6254 29.5341 84.1081 29.5341C84.5908 29.5341 85.0023 29.6981 85.3427 30.0261C85.6893 30.3479 85.8625 30.7378 85.8625 31.1957C85.8625 31.6475 85.6893 32.0374 85.3427 32.3654C85.0023 32.6872 84.5908 32.8481 84.1081 32.8481ZM95.3118 35.0481V37.276H87.5235V35.0481H95.3118ZM89.6121 31.632H92.3877V45.1201C92.3877 45.6585 92.4682 46.0638 92.6291 46.3361C92.79 46.6022 92.9973 46.7848 93.251 46.8838C93.5109 46.9766 93.7925 47.023 94.0958 47.023C94.3186 47.023 94.5135 47.0076 94.6806 46.9766C94.8477 46.9457 94.9776 46.9209 95.0705 46.9024L95.5717 49.1952C95.4108 49.2571 95.1819 49.319 94.8848 49.3809C94.5878 49.449 94.2164 49.4861 93.7709 49.4923C93.0406 49.5047 92.3599 49.3747 91.7286 49.1024C91.0974 48.8301 90.5868 48.4093 90.1969 47.8399C89.8071 47.2706 89.6121 46.5558 89.6121 45.6956V31.632ZM103.675 49.5944C102.295 49.5944 101.107 49.2819 100.11 48.6568C99.1202 48.0256 98.359 47.1561 97.8268 46.0483C97.2946 44.9406 97.0285 43.6719 97.0285 42.2424C97.0285 40.7942 97.3007 39.5163 97.8453 38.4085C98.3899 37.2946 99.1573 36.4251 100.148 35.8C101.138 35.175 102.304 34.8625 103.647 34.8625C104.73 34.8625 105.696 35.0636 106.543 35.4658C107.391 35.8619 108.075 36.4189 108.595 37.1368C109.121 37.8546 109.433 38.6932 109.533 39.6524H106.831C106.683 38.9841 106.342 38.4085 105.81 37.9258C105.284 37.4431 104.579 37.2017 103.694 37.2017C102.92 37.2017 102.242 37.406 101.661 37.8144C101.085 38.2167 100.636 38.7922 100.315 39.541C99.9928 40.2837 99.8319 41.1624 99.8319 42.1774C99.8319 43.2171 99.9897 44.1144 100.305 44.8694C100.621 45.6244 101.067 46.2092 101.642 46.6239C102.224 47.0385 102.908 47.2458 103.694 47.2458C104.22 47.2458 104.696 47.1499 105.123 46.9581C105.556 46.76 105.918 46.4785 106.209 46.1133C106.506 45.7482 106.714 45.3088 106.831 44.7952H109.533C109.433 45.7173 109.133 46.5403 108.632 47.2644C108.131 47.9885 107.459 48.5578 106.618 48.9725C105.782 49.3871 104.801 49.5944 103.675 49.5944ZM114.716 40.8406V49.3066H111.941V30.2953H114.679V37.3688H114.856C115.19 36.6015 115.7 35.9919 116.387 35.5401C117.074 35.0883 117.971 34.8625 119.079 34.8625C120.057 34.8625 120.911 35.0636 121.641 35.4658C122.378 35.8681 122.947 36.4684 123.349 37.2667C123.758 38.0589 123.962 39.049 123.962 40.2373V49.3066H121.186V40.5714C121.186 39.5256 120.917 38.7149 120.379 38.1393C119.84 37.5576 119.092 37.2667 118.132 37.2667C117.476 37.2667 116.888 37.406 116.369 37.6845C115.855 37.9629 115.45 38.3714 115.153 38.9098C114.862 39.442 114.716 40.0856 114.716 40.8406ZM139.841 49.3066H133.687V30.2953H140.036C141.899 30.2953 143.499 30.6759 144.836 31.4371C146.172 32.1921 147.196 33.2782 147.908 34.6954C148.626 36.1064 148.985 37.7989 148.985 39.7731C148.985 41.7535 148.623 43.4553 147.899 44.8787C147.181 46.3021 146.141 47.3975 144.78 48.1648C143.418 48.926 141.772 49.3066 139.841 49.3066ZM136.555 46.8003H139.684C141.132 46.8003 142.335 46.528 143.295 45.9834C144.254 45.4326 144.972 44.6373 145.448 43.5977C145.925 42.5518 146.163 41.2769 146.163 39.7731C146.163 38.2817 145.925 37.0161 145.448 35.9764C144.978 34.9367 144.275 34.1477 143.341 33.6093C142.407 33.0709 141.246 32.8017 139.86 32.8017H136.555V46.8003ZM157.914 49.5944C156.51 49.5944 155.3 49.2943 154.285 48.694C153.276 48.0875 152.496 47.2366 151.946 46.1412C151.401 45.0396 151.129 43.7493 151.129 42.2702C151.129 40.8097 151.401 39.5225 151.946 38.4085C152.496 37.2946 153.264 36.4251 154.248 35.8C155.238 35.175 156.395 34.8625 157.72 34.8625C158.524 34.8625 159.304 34.9955 160.059 35.2616C160.814 35.5277 161.491 35.9455 162.092 36.5148C162.692 37.0842 163.165 37.8237 163.512 38.7334C163.859 39.637 164.032 40.7354 164.032 42.0289V43.0128H152.697V40.9335H161.312C161.312 40.2032 161.163 39.5565 160.866 38.9933C160.569 38.424 160.152 37.9753 159.613 37.6473C159.081 37.3193 158.456 37.1553 157.738 37.1553C156.958 37.1553 156.278 37.3472 155.696 37.7309C155.12 38.1084 154.675 38.6035 154.359 39.2161C154.05 39.8226 153.895 40.4817 153.895 41.1934V42.8179C153.895 43.7709 154.062 44.5816 154.396 45.25C154.737 45.9184 155.21 46.4289 155.817 46.7817C156.423 47.1283 157.132 47.3015 157.942 47.3015C158.468 47.3015 158.948 47.2273 159.381 47.0787C159.814 46.924 160.189 46.6951 160.504 46.3918C160.82 46.0886 161.061 45.7142 161.228 45.2686L163.855 45.742C163.645 46.5156 163.268 47.1932 162.723 47.775C162.185 48.3505 161.507 48.7992 160.69 49.121C159.879 49.4366 158.954 49.5944 157.914 49.5944ZM172.557 49.5944C171.177 49.5944 169.989 49.2819 168.993 48.6568C168.003 48.0256 167.241 47.1561 166.709 46.0483C166.177 44.9406 165.911 43.6719 165.911 42.2424C165.911 40.7942 166.183 39.5163 166.728 38.4085C167.272 37.2946 168.04 36.4251 169.03 35.8C170.02 35.175 171.187 34.8625 172.53 34.8625C173.613 34.8625 174.578 35.0636 175.426 35.4658C176.274 35.8619 176.958 36.4189 177.477 37.1368C178.003 37.8546 178.316 38.6932 178.415 39.6524H175.714C175.565 38.9841 175.225 38.4085 174.693 37.9258C174.167 37.4431 173.461 37.2017 172.576 37.2017C171.802 37.2017 171.125 37.406 170.543 37.8144C169.968 38.2167 169.519 38.7922 169.197 39.541C168.875 40.2837 168.714 41.1624 168.714 42.1774C168.714 43.2171 168.872 44.1144 169.188 44.8694C169.503 45.6244 169.949 46.2092 170.525 46.6239C171.106 47.0385 171.79 47.2458 172.576 47.2458C173.102 47.2458 173.579 47.1499 174.006 46.9581C174.439 46.76 174.801 46.4785 175.092 46.1133C175.389 45.7482 175.596 45.3088 175.714 44.7952H178.415C178.316 45.7173 178.016 46.5403 177.515 47.2644C177.013 47.9885 176.342 48.5578 175.5 48.9725C174.665 49.3871 173.684 49.5944 172.557 49.5944ZM183.376 44.4703L183.357 41.082H183.84L189.521 35.0481H192.845L186.365 41.9175H185.929L183.376 44.4703ZM180.823 49.3066V30.2953H183.599V49.3066H180.823ZM189.828 49.3066L184.722 42.5301L186.634 40.59L193.234 49.3066H189.828ZM205.499 38.5292L202.983 38.9748C202.878 38.653 202.711 38.3466 202.482 38.0558C202.259 37.7649 201.956 37.5266 201.572 37.341C201.188 37.1553 200.709 37.0625 200.133 37.0625C199.347 37.0625 198.691 37.2389 198.165 37.5916C197.639 37.9382 197.376 38.3869 197.376 38.9376C197.376 39.4142 197.553 39.7979 197.905 40.0887C198.258 40.3796 198.827 40.6179 199.613 40.8035L201.878 41.3234C203.19 41.6266 204.168 42.0938 204.812 42.7251C205.455 43.3563 205.777 44.1763 205.777 45.185C205.777 46.0391 205.53 46.8003 205.035 47.4686C204.546 48.1308 203.862 48.6506 202.983 49.0282C202.11 49.4057 201.099 49.5944 199.948 49.5944C198.351 49.5944 197.048 49.254 196.039 48.5733C195.031 47.8864 194.412 46.9117 194.183 45.6492L196.866 45.2407C197.033 45.94 197.376 46.4692 197.896 46.8281C198.416 47.1809 199.094 47.3572 199.929 47.3572C200.839 47.3572 201.566 47.1685 202.11 46.791C202.655 46.4073 202.927 45.94 202.927 45.3893C202.927 44.9437 202.76 44.5693 202.426 44.266C202.098 43.9628 201.594 43.7338 200.913 43.5791L198.499 43.05C197.169 42.7467 196.185 42.264 195.547 41.6018C194.916 40.9397 194.601 40.1011 194.601 39.0862C194.601 38.2445 194.836 37.5081 195.306 36.8768C195.776 36.2456 196.426 35.7536 197.256 35.4009C198.085 35.0419 199.035 34.8625 200.105 34.8625C201.646 34.8625 202.859 35.1966 203.744 35.865C204.629 36.5272 205.214 37.4153 205.499 38.5292Z" fill="#FBFAFC"/>
<mask id="path-4-inside-1_876_605" fill="white">
<path d="M0.679688 24.3066C0.679688 11.0518 11.4249 0.306641 24.6797 0.306641H207.12C220.375 0.306641 231.12 11.0518 231.12 24.3066V54.3066C231.12 67.5615 220.375 78.3066 207.12 78.3066H24.6797C11.4249 78.3066 0.679688 67.5615 0.679688 54.3066V24.3066Z"/>
</mask>
<path d="M0.679688 24.3066C0.679688 10.4995 11.8726 -0.693359 25.6797 -0.693359H206.12C219.927 -0.693359 231.12 10.4995 231.12 24.3066C231.12 11.6041 220.375 1.30664 207.12 1.30664H24.6797C11.4249 1.30664 0.679688 11.6041 0.679688 24.3066ZM231.12 78.3066H0.679688H231.12ZM0.679688 78.3066V0.306641V78.3066ZM231.12 0.306641V78.3066V0.306641Z" fill="white" fill-opacity="0.1" mask="url(#path-4-inside-1_876_605)"/>
</g>
<defs>
<clipPath id="clip0_876_605">
<rect x="0.679688" y="0.306641" width="230.44" height="78" rx="24" fill="white"/>
</clipPath>
</defs>
</svg>
