<svg width="162" height="79" viewBox="0 0 162 79" fill="none" xmlns="http://www.w3.org/2000/svg">
<g clip-path="url(#clip0_876_571)">
<rect x="0.589844" y="0.306641" width="161.38" height="78" rx="24" fill="#0D0D0D"/>
<path d="M30.2157 31.8066C30.2157 31.558 30.3145 31.3195 30.4903 31.1437C30.6661 30.9679 30.9046 30.8691 31.1532 30.8691H33.0282V28.9941C33.0282 28.7455 33.127 28.507 33.3028 28.3312C33.4786 28.1554 33.7171 28.0566 33.9657 28.0566C34.2144 28.0566 34.4528 28.1554 34.6286 28.3312C34.8045 28.507 34.9032 28.7455 34.9032 28.9941V30.8691H36.7782C37.0269 30.8691 37.2653 30.9679 37.4411 31.1437C37.617 31.3195 37.7157 31.558 37.7157 31.8066C37.7157 32.0553 37.617 32.2937 37.4411 32.4696C37.2653 32.6454 37.0269 32.7441 36.7782 32.7441H34.9032V34.6191C34.9032 34.8678 34.8045 35.1062 34.6286 35.2821C34.4528 35.4579 34.2144 35.5566 33.9657 35.5566C33.7171 35.5566 33.4786 35.4579 33.3028 35.2821C33.127 35.1062 33.0282 34.8678 33.0282 34.6191V32.7441H31.1532C30.9046 32.7441 30.6661 32.6454 30.4903 32.4696C30.3145 32.2937 30.2157 32.0553 30.2157 31.8066ZM46.1532 46.8066H45.2157V45.8691C45.2157 45.6205 45.117 45.382 44.9411 45.2062C44.7653 45.0304 44.5269 44.9316 44.2782 44.9316C44.0296 44.9316 43.7911 45.0304 43.6153 45.2062C43.4395 45.382 43.3407 45.6205 43.3407 45.8691V46.8066H42.4032C42.1546 46.8066 41.9161 46.9054 41.7403 47.0812C41.5645 47.257 41.4657 47.4955 41.4657 47.7441C41.4657 47.9928 41.5645 48.2312 41.7403 48.4071C41.9161 48.5829 42.1546 48.6816 42.4032 48.6816H43.3407V49.6191C43.3407 49.8678 43.4395 50.1062 43.6153 50.2821C43.7911 50.4579 44.0296 50.5566 44.2782 50.5566C44.5269 50.5566 44.7653 50.4579 44.9411 50.2821C45.117 50.1062 45.2157 49.8678 45.2157 49.6191V48.6816H46.1532C46.4019 48.6816 46.6403 48.5829 46.8161 48.4071C46.992 48.2312 47.0907 47.9928 47.0907 47.7441C47.0907 47.4955 46.992 47.257 46.8161 47.0812C46.6403 46.9054 46.4019 46.8066 46.1532 46.8066ZM52.7157 41.1816H50.8407V39.3066C50.8407 39.058 50.742 38.8195 50.5661 38.6437C50.3903 38.4679 50.1519 38.3691 49.9032 38.3691C49.6546 38.3691 49.4161 38.4679 49.2403 38.6437C49.0645 38.8195 48.9657 39.058 48.9657 39.3066V41.1816H47.0907C46.8421 41.1816 46.6036 41.2804 46.4278 41.4562C46.252 41.632 46.1532 41.8705 46.1532 42.1191C46.1532 42.3678 46.252 42.6062 46.4278 42.7821C46.6036 42.9579 46.8421 43.0566 47.0907 43.0566H48.9657V44.9316C48.9657 45.1803 49.0645 45.4187 49.2403 45.5946C49.4161 45.7704 49.6546 45.8691 49.9032 45.8691C50.1519 45.8691 50.3903 45.7704 50.5661 45.5946C50.742 45.4187 50.8407 45.1803 50.8407 44.9316V43.0566H52.7157C52.9644 43.0566 53.2028 42.9579 53.3786 42.7821C53.5545 42.6062 53.6532 42.3678 53.6532 42.1191C53.6532 41.8705 53.5545 41.632 53.3786 41.4562C53.2028 41.2804 52.9644 41.1816 52.7157 41.1816ZM50.2911 33.6816L33.9657 50.007C33.6141 50.3584 33.1374 50.5558 32.6403 50.5558C32.1433 50.5558 31.6665 50.3584 31.315 50.007L28.8892 47.5836C28.715 47.4095 28.5769 47.2028 28.4826 46.9752C28.3884 46.7477 28.3398 46.5039 28.3398 46.2576C28.3398 46.0114 28.3884 45.7675 28.4826 45.54C28.5769 45.3125 28.715 45.1058 28.8892 44.9316L45.2157 28.6062C45.3898 28.4321 45.5966 28.2939 45.8241 28.1997C46.0516 28.1054 46.2954 28.0569 46.5417 28.0569C46.788 28.0569 47.0318 28.1054 47.2593 28.1997C47.4869 28.2939 47.6936 28.4321 47.8677 28.6062L50.2911 31.0297C50.4653 31.2038 50.6034 31.4105 50.6977 31.638C50.7919 31.8655 50.8405 32.1094 50.8405 32.3557C50.8405 32.6019 50.7919 32.8458 50.6977 33.0733C50.6034 33.3008 50.4653 33.5075 50.2911 33.6816ZM43.8892 37.4316L41.4657 35.007L30.2157 46.257L32.6392 48.6816L43.8892 37.4316ZM48.9657 32.3563L46.5411 29.9316L42.7911 33.6816L45.2157 36.1063L48.9657 32.3563Z" fill="#FBFAFC"/>
<path d="M66.661 48.3066V29.4544H69.5054V45.8581H78.0479V48.3066H66.661ZM86.4675 48.592C85.142 48.592 83.9852 48.2882 82.9972 47.6807C82.0092 47.0731 81.2421 46.2232 80.6959 45.1308C80.1497 44.0385 79.8766 42.762 79.8766 41.3015C79.8766 39.8348 80.1497 38.5522 80.6959 37.4537C81.2421 36.3552 82.0092 35.5022 82.9972 34.8946C83.9852 34.2871 85.142 33.9833 86.4675 33.9833C87.7931 33.9833 88.9499 34.2871 89.9379 34.8946C90.9259 35.5022 91.693 36.3552 92.2392 37.4537C92.7854 38.5522 93.0585 39.8348 93.0585 41.3015C93.0585 42.762 92.7854 44.0385 92.2392 45.1308C91.693 46.2232 90.9259 47.0731 89.9379 47.6807C88.9499 48.2882 87.7931 48.592 86.4675 48.592ZM86.4768 46.2815C87.3359 46.2815 88.0478 46.0544 88.6124 45.6003C89.1769 45.1462 89.5942 44.5417 89.8643 43.7869C90.1404 43.0321 90.2785 42.2005 90.2785 41.2923C90.2785 40.3902 90.1404 39.5617 89.8643 38.8069C89.5942 38.0459 89.1769 37.4353 88.6124 36.975C88.0478 36.5148 87.3359 36.2846 86.4768 36.2846C85.6115 36.2846 84.8935 36.5148 84.3227 36.975C83.7581 37.4353 83.3378 38.0459 83.0616 38.8069C82.7916 39.5617 82.6566 40.3902 82.6566 41.2923C82.6566 42.2005 82.7916 43.0321 83.0616 43.7869C83.3378 44.5417 83.7581 45.1462 84.3227 45.6003C84.8935 46.0544 85.6115 46.2815 86.4768 46.2815ZM101.499 53.9034C100.376 53.9034 99.4093 53.7561 98.5992 53.4616C97.7953 53.167 97.1387 52.7773 96.6293 52.2925C96.12 51.8077 95.7395 51.2769 95.4879 50.7L97.8536 49.7242C98.0193 49.9943 98.2402 50.2796 98.5164 50.5803C98.7987 50.8872 99.1792 51.148 99.6578 51.3628C100.143 51.5776 100.766 51.685 101.526 51.685C102.57 51.685 103.432 51.4303 104.113 50.9209C104.794 50.4177 105.135 49.6138 105.135 48.5092V45.7292H104.96C104.794 46.0299 104.555 46.3643 104.242 46.7325C103.935 47.1008 103.512 47.4199 102.972 47.6899C102.432 47.9599 101.729 48.0949 100.864 48.0949C99.7468 48.0949 98.7404 47.8341 97.8444 47.3125C96.9546 46.7847 96.2488 46.0084 95.7272 44.9836C95.2117 43.9526 94.954 42.6853 94.954 41.1818C94.954 39.6783 95.2086 38.3896 95.718 37.3156C96.2335 36.2417 96.9392 35.4193 97.8352 34.8486C98.7312 34.2718 99.7468 33.9833 100.882 33.9833C101.76 33.9833 102.468 34.1306 103.009 34.4252C103.549 34.7136 103.969 35.0511 104.27 35.4378C104.576 35.8244 104.813 36.165 104.978 36.4595H105.181V34.1674H107.878V48.6196C107.878 49.8347 107.596 50.8319 107.031 51.6113C106.467 52.3907 105.703 52.9675 104.739 53.3419C103.782 53.7162 102.702 53.9034 101.499 53.9034ZM101.471 45.812C102.263 45.812 102.932 45.6279 103.478 45.2597C104.03 44.8854 104.448 44.3515 104.73 43.658C105.018 42.9584 105.163 42.1207 105.163 41.145C105.163 40.1938 105.021 39.3561 104.739 38.632C104.457 37.9078 104.043 37.3432 103.496 36.9382C102.95 36.527 102.275 36.3215 101.471 36.3215C100.643 36.3215 99.9524 36.5362 99.4001 36.9658C98.8478 37.3893 98.4305 37.9661 98.1482 38.6964C97.872 39.4267 97.7339 40.2429 97.7339 41.145C97.7339 42.0716 97.8751 42.8848 98.1574 43.5844C98.4397 44.284 98.857 44.8301 99.4093 45.2229C99.9677 45.6157 100.655 45.812 101.471 45.812ZM116.965 48.592C115.64 48.592 114.483 48.2882 113.495 47.6807C112.507 47.0731 111.74 46.2232 111.193 45.1308C110.647 44.0385 110.374 42.762 110.374 41.3015C110.374 39.8348 110.647 38.5522 111.193 37.4537C111.74 36.3552 112.507 35.5022 113.495 34.8946C114.483 34.2871 115.64 33.9833 116.965 33.9833C118.291 33.9833 119.447 34.2871 120.436 34.8946C121.424 35.5022 122.191 36.3552 122.737 37.4537C123.283 38.5522 123.556 39.8348 123.556 41.3015C123.556 42.762 123.283 44.0385 122.737 45.1308C122.191 46.2232 121.424 47.0731 120.436 47.6807C119.447 48.2882 118.291 48.592 116.965 48.592ZM116.974 46.2815C117.834 46.2815 118.545 46.0544 119.11 45.6003C119.675 45.1462 120.092 44.5417 120.362 43.7869C120.638 43.0321 120.776 42.2005 120.776 41.2923C120.776 40.3902 120.638 39.5617 120.362 38.8069C120.092 38.0459 119.675 37.4353 119.11 36.975C118.545 36.5148 117.834 36.2846 116.974 36.2846C116.109 36.2846 115.391 36.5148 114.82 36.975C114.256 37.4353 113.835 38.0459 113.559 38.8069C113.289 39.5617 113.154 40.3902 113.154 41.2923C113.154 42.2005 113.289 43.0321 113.559 43.7869C113.835 44.5417 114.256 45.1462 114.82 45.6003C115.391 46.0544 116.109 46.2815 116.974 46.2815ZM136.664 37.6194L134.169 38.0612C134.065 37.7421 133.899 37.4384 133.672 37.1499C133.451 36.8615 133.15 36.6252 132.77 36.4411C132.389 36.257 131.914 36.165 131.343 36.165C130.564 36.165 129.913 36.3399 129.391 36.6897C128.87 37.0333 128.609 37.4782 128.609 38.0244C128.609 38.497 128.784 38.8774 129.134 39.1659C129.483 39.4543 130.048 39.6906 130.827 39.8747L133.073 40.3902C134.374 40.6909 135.344 41.1542 135.982 41.7801C136.621 42.4061 136.94 43.2192 136.94 44.2195C136.94 45.0664 136.694 45.8212 136.203 46.484C135.718 47.1406 135.04 47.6561 134.169 48.0305C133.304 48.4048 132.3 48.592 131.159 48.592C129.576 48.592 128.284 48.2545 127.283 47.5794C126.283 46.8982 125.669 45.9317 125.442 44.6798L128.103 44.2748C128.268 44.9682 128.609 45.4929 129.124 45.8488C129.64 46.1986 130.312 46.3735 131.14 46.3735C132.042 46.3735 132.764 46.1864 133.304 45.812C133.844 45.4315 134.114 44.9682 134.114 44.422C134.114 43.9802 133.948 43.6089 133.617 43.3082C133.291 43.0075 132.791 42.7804 132.116 42.627L129.723 42.1023C128.403 41.8016 127.428 41.323 126.796 40.6663C126.17 40.0097 125.857 39.1781 125.857 38.1717C125.857 37.3371 126.09 36.6068 126.556 35.9809C127.023 35.3549 127.667 34.867 128.489 34.5172C129.312 34.1613 130.254 33.9833 131.315 33.9833C132.843 33.9833 134.046 34.3147 134.924 34.9775C135.801 35.6341 136.381 36.5148 136.664 37.6194Z" fill="#FBFAFC"/>
<mask id="path-4-inside-1_876_571" fill="white">
<path d="M0.589844 24.3066C0.589844 11.0518 11.335 0.306641 24.5898 0.306641H137.97C151.225 0.306641 161.97 11.0518 161.97 24.3066V54.3066C161.97 67.5615 151.225 78.3066 137.97 78.3066H24.5899C11.335 78.3066 0.589844 67.5615 0.589844 54.3066V24.3066Z"/>
</mask>
<path d="M0.589844 24.3066C0.589844 10.4995 11.7827 -0.693359 25.5898 -0.693359H136.97C150.777 -0.693359 161.97 10.4995 161.97 24.3066C161.97 11.6041 151.225 1.30664 137.97 1.30664H24.5898C11.335 1.30664 0.589844 11.6041 0.589844 24.3066ZM161.97 78.3066H0.589844H161.97ZM0.589844 78.3066V0.306641V78.3066ZM161.97 0.306641V78.3066V0.306641Z" fill="white" fill-opacity="0.1" mask="url(#path-4-inside-1_876_571)"/>
</g>
<defs>
<clipPath id="clip0_876_571">
<rect x="0.589844" y="0.306641" width="161.38" height="78" rx="24" fill="white"/>
</clipPath>
</defs>
</svg>
