<svg width="280" height="79" viewBox="0 0 280 79" fill="none" xmlns="http://www.w3.org/2000/svg">
<g clip-path="url(#clip0_876_589)">
<rect x="0.789062" y="0.306641" width="279.14" height="78" rx="24" fill="#0D0D0D"/>
<path d="M50.1016 28.9941H29.4766C28.9793 28.9941 28.5024 29.1917 28.1507 29.5433C27.7991 29.8949 27.6016 30.3719 27.6016 30.8691V47.7441C27.6016 48.2414 27.7991 48.7183 28.1507 49.07C28.5024 49.4216 28.9793 49.6191 29.4766 49.6191H50.1016C50.5988 49.6191 51.0758 49.4216 51.4274 49.07C51.779 48.7183 51.9766 48.2414 51.9766 47.7441V30.8691C51.9766 30.3719 51.779 29.8949 51.4274 29.5433C51.0758 29.1917 50.5988 28.9941 50.1016 28.9941ZM50.1016 47.7441H29.4766V30.8691H50.1016V47.7441ZM45.4141 34.6191C45.4141 36.111 44.8214 37.5417 43.7665 38.5966C42.7116 39.6515 41.2809 40.2441 39.7891 40.2441C38.2972 40.2441 36.8665 39.6515 35.8116 38.5966C34.7567 37.5417 34.1641 36.111 34.1641 34.6191C34.1641 34.3705 34.2628 34.132 34.4387 33.9562C34.6145 33.7804 34.8529 33.6816 35.1016 33.6816C35.3502 33.6816 35.5887 33.7804 35.7645 33.9562C35.9403 34.132 36.0391 34.3705 36.0391 34.6191C36.0391 35.6137 36.4342 36.5675 37.1374 37.2708C37.8407 37.9741 38.7945 38.3691 39.7891 38.3691C40.7836 38.3691 41.7375 37.9741 42.4407 37.2708C43.144 36.5675 43.5391 35.6137 43.5391 34.6191C43.5391 34.3705 43.6378 34.132 43.8136 33.9562C43.9895 33.7804 44.2279 33.6816 44.4766 33.6816C44.7252 33.6816 44.9637 33.7804 45.1395 33.9562C45.3153 34.132 45.4141 34.3705 45.4141 34.6191Z" fill="#FBFAFC"/>
<path d="M73.0668 49.3066H66.8865V30.2157H73.2625C75.1331 30.2157 76.7395 30.5979 78.0819 31.3623C79.4242 32.1205 80.4527 33.2111 81.1673 34.6342C81.8882 36.0511 82.2487 37.7508 82.2487 39.7332C82.2487 41.7219 81.8851 43.4308 81.158 44.8602C80.4371 46.2895 79.3931 47.3895 78.0259 48.1601C76.6587 48.9244 75.0057 49.3066 73.0668 49.3066ZM69.7669 46.7898H72.9083C74.3625 46.7898 75.5712 46.5163 76.5344 45.9695C77.4977 45.4164 78.2186 44.6178 78.6971 43.5738C79.1756 42.5235 79.4149 41.2433 79.4149 39.7332C79.4149 38.2355 79.1756 36.9647 78.6971 35.9206C78.2248 34.8766 77.5194 34.0842 76.5811 33.5436C75.6427 33.0029 74.4775 32.7326 73.0854 32.7326H69.7669V46.7898ZM85.0468 49.3066V34.9885H87.834V49.3066H85.0468ZM86.4544 32.7792C85.9697 32.7792 85.5533 32.6176 85.2053 32.2945C84.8635 31.9651 84.6926 31.5736 84.6926 31.1199C84.6926 30.6601 84.8635 30.2686 85.2053 29.9454C85.5533 29.616 85.9697 29.4513 86.4544 29.4513C86.9391 29.4513 87.3524 29.616 87.6942 29.9454C88.0422 30.2686 88.2162 30.6601 88.2162 31.1199C88.2162 31.5736 88.0422 31.9651 87.6942 32.2945C87.3524 32.6176 86.9391 32.7792 86.4544 32.7792ZM97.0269 54.9743C95.8896 54.9743 94.9108 54.8251 94.0905 54.5268C93.2764 54.2285 92.6115 53.8339 92.0957 53.343C91.5799 52.852 91.1946 52.3145 90.9398 51.7303L93.3355 50.7422C93.5033 51.0156 93.727 51.3046 94.0066 51.6091C94.2925 51.9198 94.6778 52.1839 95.1625 52.4015C95.6535 52.619 96.2843 52.7277 97.0548 52.7277C98.1113 52.7277 98.9844 52.4698 99.6743 51.954C100.364 51.4444 100.709 50.6303 100.709 49.5117V46.6966H100.532C100.364 47.0011 100.122 47.3398 99.8048 47.7126C99.494 48.0855 99.0652 48.4086 98.5184 48.6821C97.9715 48.9555 97.2599 49.0922 96.3837 49.0922C95.2526 49.0922 94.2335 48.8281 93.3262 48.2999C92.4251 47.7654 91.7104 46.9793 91.1822 45.9415C90.6601 44.8975 90.3991 43.6142 90.3991 42.0916C90.3991 40.5691 90.657 39.264 91.1728 38.1765C91.6949 37.089 92.4095 36.2562 93.3168 35.6783C94.2241 35.0941 95.2526 34.802 96.4023 34.802C97.291 34.802 98.0088 34.9512 98.5556 35.2495C99.1025 35.5415 99.5282 35.8833 99.8327 36.2749C100.143 36.6664 100.383 37.0113 100.55 37.3096H100.756V34.9885H103.487V49.6236C103.487 50.854 103.201 51.8639 102.629 52.6531C102.058 53.4424 101.284 54.0265 100.308 54.4056C99.3387 54.7847 98.2449 54.9743 97.0269 54.9743ZM96.9989 46.7805C97.8006 46.7805 98.478 46.594 99.0311 46.2211C99.5904 45.8421 100.013 45.3014 100.299 44.5992C100.591 43.8907 100.737 43.0424 100.737 42.0543C100.737 41.0911 100.594 40.2428 100.308 39.5095C100.022 38.7762 99.6028 38.2045 99.0497 37.7943C98.4966 37.3779 97.813 37.1697 96.9989 37.1697C96.16 37.1697 95.4608 37.3873 94.9015 37.8223C94.3422 38.2511 93.9196 38.8352 93.6338 39.5748C93.3541 40.3143 93.2143 41.1408 93.2143 42.0543C93.2143 42.9927 93.3572 43.8161 93.6431 44.5246C93.929 45.233 94.3515 45.7861 94.9108 46.1839C95.4764 46.5816 96.1724 46.7805 96.9989 46.7805ZM106.665 49.3066V34.9885H109.452V49.3066H106.665ZM108.072 32.7792C107.588 32.7792 107.171 32.6176 106.823 32.2945C106.482 31.9651 106.311 31.5736 106.311 31.1199C106.311 30.6601 106.482 30.2686 106.823 29.9454C107.171 29.616 107.588 29.4513 108.072 29.4513C108.557 29.4513 108.97 29.616 109.312 29.9454C109.66 30.2686 109.834 30.6601 109.834 31.1199C109.834 31.5736 109.66 31.9651 109.312 32.2945C108.97 32.6176 108.557 32.7792 108.072 32.7792ZM119.325 34.9885V37.2257H111.504V34.9885H119.325ZM113.602 31.5581H116.389V45.1025C116.389 45.6432 116.47 46.0502 116.631 46.3237C116.793 46.5909 117.001 46.7742 117.256 46.8737C117.517 46.9669 117.8 47.0135 118.104 47.0135C118.328 47.0135 118.524 46.998 118.692 46.9669C118.859 46.9358 118.99 46.911 119.083 46.8923L119.586 49.1948C119.425 49.2569 119.195 49.3191 118.897 49.3812C118.598 49.4496 118.225 49.4869 117.778 49.4931C117.045 49.5055 116.361 49.375 115.727 49.1016C115.093 48.8281 114.581 48.4055 114.189 47.8338C113.798 47.2621 113.602 46.5443 113.602 45.6805V31.5581ZM126.015 49.6236C125.108 49.6236 124.288 49.4558 123.554 49.1202C122.821 48.7784 122.24 48.2844 121.811 47.6381C121.389 46.9917 121.177 46.1994 121.177 45.261C121.177 44.4531 121.333 43.7882 121.643 43.2662C121.954 42.7441 122.374 42.3309 122.902 42.0264C123.43 41.7219 124.021 41.4919 124.673 41.3366C125.326 41.1812 125.991 41.0631 126.668 40.9823C127.526 40.8829 128.222 40.8021 128.756 40.74C129.29 40.6716 129.679 40.5629 129.921 40.4137C130.164 40.2646 130.285 40.0222 130.285 39.6866V39.6214C130.285 38.8073 130.055 38.1765 129.595 37.729C129.141 37.2816 128.464 37.0579 127.563 37.0579C126.624 37.0579 125.885 37.2661 125.344 37.6824C124.81 38.0926 124.44 38.5494 124.235 39.0527L121.616 38.4561C121.926 37.5861 122.38 36.8839 122.977 36.3494C123.579 35.8088 124.272 35.4173 125.055 35.1749C125.838 34.9263 126.662 34.802 127.526 34.802C128.097 34.802 128.703 34.8704 129.343 35.0071C129.99 35.1376 130.592 35.38 131.152 35.7342C131.717 36.0884 132.18 36.5949 132.541 37.2536C132.901 37.9062 133.081 38.7544 133.081 39.7985V49.3066H130.359V47.3491H130.247C130.067 47.7095 129.797 48.0637 129.436 48.4118C129.076 48.7598 128.613 49.0487 128.048 49.2787C127.482 49.5086 126.805 49.6236 126.015 49.6236ZM126.621 47.3864C127.392 47.3864 128.051 47.2341 128.598 46.9296C129.151 46.6251 129.57 46.2274 129.856 45.7364C130.148 45.2393 130.294 44.7079 130.294 44.1424V42.2967C130.195 42.3961 130.002 42.4893 129.716 42.5763C129.436 42.6571 129.116 42.7286 128.756 42.7907C128.396 42.8467 128.044 42.8995 127.703 42.9492C127.361 42.9927 127.075 43.03 126.845 43.0611C126.304 43.1294 125.81 43.2444 125.363 43.406C124.922 43.5676 124.567 43.8006 124.3 44.1051C124.039 44.4034 123.909 44.8011 123.909 45.2983C123.909 45.9881 124.163 46.5101 124.673 46.8643C125.183 47.2124 125.832 47.3864 126.621 47.3864ZM139.021 30.2157V49.3066H136.234V30.2157H139.021ZM148.821 49.3066V30.2157H155.626C157.111 30.2157 158.342 30.4861 159.318 31.0267C160.293 31.5674 161.023 32.3069 161.508 33.2453C161.993 34.1775 162.235 35.2277 162.235 36.396C162.235 37.5706 161.99 38.627 161.499 39.5654C161.014 40.4976 160.281 41.2371 159.299 41.784C158.323 42.3247 157.096 42.595 155.617 42.595H150.937V40.1527H155.356C156.294 40.1527 157.055 39.9911 157.64 39.668C158.224 39.3386 158.653 38.8912 158.926 38.3256C159.199 37.7601 159.336 37.1169 159.336 36.396C159.336 35.6752 159.199 35.0351 158.926 34.4758C158.653 33.9165 158.221 33.4783 157.63 33.1614C157.046 32.8445 156.276 32.686 155.318 32.686H151.702V49.3066H148.821ZM164.828 49.3066V34.9885H167.522V37.263H167.671C167.932 36.4924 168.392 35.8865 169.051 35.4452C169.716 34.9978 170.468 34.7741 171.307 34.7741C171.481 34.7741 171.686 34.7803 171.922 34.7927C172.165 34.8051 172.354 34.8207 172.491 34.8393V37.5053C172.379 37.4743 172.18 37.4401 171.894 37.4028C171.608 37.3593 171.322 37.3375 171.037 37.3375C170.378 37.3375 169.791 37.4774 169.275 37.757C168.765 38.0305 168.361 38.4126 168.063 38.9036C167.765 39.3883 167.615 39.9414 167.615 40.5629V49.3066H164.828ZM179.861 49.5956C178.519 49.5956 177.347 49.288 176.347 48.6728C175.346 48.0575 174.57 47.1968 174.017 46.0906C173.463 44.9845 173.187 43.6918 173.187 42.2128C173.187 40.7275 173.463 39.4287 174.017 38.3163C174.57 37.2039 175.346 36.3401 176.347 35.7249C177.347 35.1096 178.519 34.802 179.861 34.802C181.204 34.802 182.375 35.1096 183.376 35.7249C184.376 36.3401 185.153 37.2039 185.706 38.3163C186.259 39.4287 186.536 40.7275 186.536 42.2128C186.536 43.6918 186.259 44.9845 185.706 46.0906C185.153 47.1968 184.376 48.0575 183.376 48.6728C182.375 49.288 181.204 49.5956 179.861 49.5956ZM179.871 47.2559C180.741 47.2559 181.461 47.0259 182.033 46.5661C182.605 46.1062 183.028 45.4941 183.301 44.7297C183.581 43.9653 183.72 43.1232 183.72 42.2035C183.72 41.2899 183.581 40.451 183.301 39.6866C183.028 38.916 182.605 38.2977 182.033 37.8316C181.461 37.3655 180.741 37.1325 179.871 37.1325C178.994 37.1325 178.267 37.3655 177.689 37.8316C177.118 38.2977 176.692 38.916 176.412 39.6866C176.139 40.451 176.002 41.2899 176.002 42.2035C176.002 43.1232 176.139 43.9653 176.412 44.7297C176.692 45.4941 177.118 46.1062 177.689 46.5661C178.267 47.0259 178.994 47.2559 179.871 47.2559ZM194.447 49.5863C193.291 49.5863 192.259 49.2911 191.352 48.7007C190.451 48.1041 189.742 47.2559 189.227 46.1559C188.717 45.0497 188.462 43.7229 188.462 42.1755C188.462 40.6281 188.72 39.3044 189.236 38.2045C189.758 37.1045 190.473 36.2624 191.38 35.6783C192.287 35.0941 193.316 34.802 194.465 34.802C195.354 34.802 196.069 34.9512 196.609 35.2495C197.156 35.5415 197.579 35.8833 197.877 36.2749C198.182 36.6664 198.418 37.0113 198.586 37.3096H198.753V30.2157H201.541V49.3066H198.819V47.0787H198.586C198.418 47.3833 198.175 47.7313 197.858 48.1228C197.548 48.5143 197.119 48.8561 196.572 49.1482C196.025 49.4403 195.317 49.5863 194.447 49.5863ZM195.062 47.2093C195.864 47.2093 196.541 46.998 197.094 46.5754C197.653 46.1466 198.076 45.5531 198.362 44.7949C198.654 44.0368 198.8 43.1543 198.8 42.1475C198.8 41.1532 198.657 40.2832 198.371 39.5375C198.085 38.7917 197.666 38.2107 197.113 37.7943C196.56 37.3779 195.876 37.1697 195.062 37.1697C194.223 37.1697 193.524 37.3873 192.965 37.8223C192.405 38.2573 191.983 38.8508 191.697 39.6027C191.417 40.3547 191.277 41.2029 191.277 42.1475C191.277 43.1046 191.42 43.9653 191.706 44.7297C191.992 45.4941 192.415 46.1 192.974 46.5474C193.539 46.9886 194.235 47.2093 195.062 47.2093ZM214.029 43.3687V34.9885H216.825V49.3066H214.085V46.8271H213.935C213.606 47.5914 213.078 48.2284 212.351 48.738C211.63 49.2414 210.732 49.4931 209.657 49.4931C208.737 49.4931 207.923 49.2911 207.214 48.8872C206.512 48.477 205.959 47.8711 205.555 47.0694C205.157 46.2678 204.959 45.2765 204.959 44.0958V34.9885H207.746V43.7602C207.746 44.7359 208.016 45.5127 208.557 46.0906C209.097 46.6686 209.8 46.9576 210.663 46.9576C211.186 46.9576 211.704 46.8271 212.22 46.5661C212.742 46.305 213.174 45.9104 213.516 45.3822C213.864 44.854 214.035 44.1828 214.029 43.3687ZM226.041 49.5956C224.656 49.5956 223.462 49.2818 222.462 48.6541C221.467 48.0202 220.703 47.1471 220.169 46.0347C219.634 44.9223 219.367 43.6483 219.367 42.2128C219.367 40.7586 219.64 39.4753 220.187 38.3629C220.734 37.2443 221.505 36.3712 222.499 35.7435C223.493 35.1159 224.665 34.802 226.013 34.802C227.101 34.802 228.07 35.004 228.922 35.4079C229.773 35.8057 230.46 36.365 230.982 37.0858C231.51 37.8067 231.824 38.6488 231.923 39.612H229.211C229.062 38.9409 228.72 38.3629 228.185 37.8782C227.657 37.3935 226.949 37.1511 226.06 37.1511C225.283 37.1511 224.603 37.3562 224.019 37.7663C223.441 38.1703 222.99 38.7482 222.667 39.5002C222.344 40.2459 222.182 41.1284 222.182 42.1475C222.182 43.1916 222.341 44.0927 222.658 44.8509C222.974 45.609 223.422 46.1963 224 46.6127C224.584 47.029 225.271 47.2372 226.06 47.2372C226.588 47.2372 227.067 47.1409 227.496 46.9482C227.931 46.7494 228.294 46.4666 228.586 46.1C228.884 45.7333 229.093 45.2921 229.211 44.7763H231.923C231.824 45.7022 231.523 46.5288 231.019 47.2559C230.516 47.983 229.841 48.5547 228.996 48.9711C228.157 49.3874 227.172 49.5956 226.041 49.5956ZM241.028 34.9885V37.2257H233.207V34.9885H241.028ZM235.304 31.5581H238.091V45.1025C238.091 45.6432 238.172 46.0502 238.334 46.3237C238.495 46.5909 238.703 46.7742 238.958 46.8737C239.219 46.9669 239.502 47.0135 239.807 47.0135C240.03 47.0135 240.226 46.998 240.394 46.9669C240.562 46.9358 240.692 46.911 240.785 46.8923L241.289 49.1948C241.127 49.2569 240.897 49.3191 240.599 49.3812C240.301 49.4496 239.928 49.4869 239.48 49.4931C238.747 49.5055 238.063 49.375 237.429 49.1016C236.796 48.8281 236.283 48.4055 235.891 47.8338C235.5 47.2621 235.304 46.5443 235.304 45.6805V31.5581ZM254.049 38.4841L251.523 38.9316C251.418 38.6084 251.25 38.3008 251.02 38.0087C250.796 37.7166 250.492 37.4774 250.106 37.2909C249.721 37.1045 249.239 37.0113 248.661 37.0113C247.872 37.0113 247.213 37.1884 246.685 37.5426C246.157 37.8906 245.893 38.3412 245.893 38.8943C245.893 39.3728 246.07 39.7581 246.424 40.0502C246.778 40.3422 247.35 40.5815 248.139 40.7679L250.414 41.2899C251.731 41.5945 252.713 42.0637 253.36 42.6975C254.006 43.3314 254.329 44.1548 254.329 45.1678C254.329 46.0254 254.08 46.7898 253.583 47.4609C253.092 48.1259 252.406 48.6479 251.523 49.027C250.647 49.4061 249.631 49.5956 248.475 49.5956C246.872 49.5956 245.564 49.2538 244.551 48.5702C243.538 47.8804 242.916 46.9016 242.686 45.6339L245.38 45.2237C245.548 45.926 245.893 46.4573 246.415 46.8177C246.937 47.172 247.617 47.3491 248.456 47.3491C249.37 47.3491 250.1 47.1595 250.647 46.7805C251.194 46.3952 251.467 45.926 251.467 45.3729C251.467 44.9254 251.3 44.5494 250.964 44.2449C250.635 43.9404 250.128 43.7105 249.444 43.5551L247.021 43.0238C245.685 42.7193 244.697 42.2346 244.057 41.5696C243.423 40.9047 243.106 40.0626 243.106 39.0434C243.106 38.1982 243.342 37.4587 243.814 36.8248C244.286 36.191 244.939 35.6969 245.772 35.3427C246.604 34.9822 247.558 34.802 248.633 34.802C250.181 34.802 251.399 35.1376 252.288 35.8088C253.176 36.4737 253.764 37.3655 254.049 38.4841Z" fill="#FBFAFC"/>
<mask id="path-4-inside-1_876_589" fill="white">
<path d="M0.789062 24.3066C0.789062 11.0518 11.5342 0.306641 24.7891 0.306641H255.929C269.184 0.306641 279.929 11.0518 279.929 24.3066V54.3066C279.929 67.5615 269.184 78.3066 255.929 78.3066H24.7891C11.5343 78.3066 0.789062 67.5615 0.789062 54.3066V24.3066Z"/>
</mask>
<path d="M0.789062 24.3066C0.789062 10.4995 11.9819 -0.693359 25.7891 -0.693359H254.929C268.736 -0.693359 279.929 10.4995 279.929 24.3066C279.929 11.6041 269.184 1.30664 255.929 1.30664H24.7891C11.5342 1.30664 0.789062 11.6041 0.789062 24.3066ZM279.929 78.3066H0.789062H279.929ZM0.789062 78.3066V0.306641V78.3066ZM279.929 0.306641V78.3066V0.306641Z" fill="white" fill-opacity="0.1" mask="url(#path-4-inside-1_876_589)"/>
</g>
<defs>
<clipPath id="clip0_876_589">
<rect x="0.789062" y="0.306641" width="279.14" height="78" rx="24" fill="white"/>
</clipPath>
</defs>
</svg>
