<svg width="240" height="79" viewBox="0 0 240 79" fill="none" xmlns="http://www.w3.org/2000/svg">
<g clip-path="url(#clip0_876_611)">
<rect x="0.121094" y="0.306641" width="239.48" height="78" rx="24" fill="#0D0D0D"/>
<path d="M44.7461 26.1816H33.4961C32.7502 26.1816 32.0348 26.478 31.5074 27.0054C30.9799 27.5328 30.6836 28.2482 30.6836 28.9941V49.6191C30.6836 50.3651 30.9799 51.0804 31.5074 51.6079C32.0348 52.1353 32.7502 52.4316 33.4961 52.4316H44.7461C45.492 52.4316 46.2074 52.1353 46.7348 51.6079C47.2623 51.0804 47.5586 50.3651 47.5586 49.6191V28.9941C47.5586 28.2482 47.2623 27.5328 46.7348 27.0054C46.2074 26.478 45.492 26.1816 44.7461 26.1816ZM32.5586 31.8066H45.6836V46.8066H32.5586V31.8066ZM33.4961 28.0566H44.7461C44.9947 28.0566 45.2332 28.1554 45.409 28.3312C45.5848 28.507 45.6836 28.7455 45.6836 28.9941V29.9316H32.5586V28.9941C32.5586 28.7455 32.6574 28.507 32.8332 28.3312C33.009 28.1554 33.2475 28.0566 33.4961 28.0566ZM44.7461 50.5566H33.4961C33.2475 50.5566 33.009 50.4579 32.8332 50.2821C32.6574 50.1062 32.5586 49.8678 32.5586 49.6191V48.6816H45.6836V49.6191C45.6836 49.8678 45.5848 50.1062 45.409 50.2821C45.2332 50.4579 44.9947 50.5566 44.7461 50.5566Z" fill="#FBFAFC"/>
<path d="M66.2272 30.1362H69.7374L75.8405 45.0382H76.0652L82.1683 30.1362H85.6785V49.3066H82.9265V35.4343H82.7486L77.0948 49.2786H74.8109L69.1571 35.4249H68.9792V49.3066H66.2272V30.1362ZM95.1554 49.5968C93.8074 49.5968 92.6311 49.2879 91.6264 48.6701C90.6217 48.0523 89.8417 47.188 89.2863 46.0772C88.7309 44.9665 88.4532 43.6685 88.4532 42.1832C88.4532 40.6918 88.7309 39.3876 89.2863 38.2705C89.8417 37.1535 90.6217 36.2861 91.6264 35.6683C92.6311 35.0505 93.8074 34.7416 95.1554 34.7416C96.5033 34.7416 97.6796 35.0505 98.6843 35.6683C99.689 36.2861 100.469 37.1535 101.024 38.2705C101.58 39.3876 101.858 40.6918 101.858 42.1832C101.858 43.6685 101.58 44.9665 101.024 46.0772C100.469 47.188 99.689 48.0523 98.6843 48.6701C97.6796 49.2879 96.5033 49.5968 95.1554 49.5968ZM95.1647 47.2473C96.0384 47.2473 96.7623 47.0164 97.3364 46.5546C97.9105 46.0928 98.3348 45.4782 98.6094 44.7106C98.8902 43.943 99.0306 43.0975 99.0306 42.1739C99.0306 41.2565 98.8902 40.4141 98.6094 39.6465C98.3348 38.8727 97.9105 38.2518 97.3364 37.7838C96.7623 37.3157 96.0384 37.0817 95.1647 37.0817C94.2848 37.0817 93.5547 37.3157 92.9744 37.7838C92.4002 38.2518 91.9728 38.8727 91.692 39.6465C91.4174 40.4141 91.2801 41.2565 91.2801 42.1739C91.2801 43.0975 91.4174 43.943 91.692 44.7106C91.9728 45.4782 92.4002 46.0928 92.9744 46.5546C93.5547 47.0164 94.2848 47.2473 95.1647 47.2473ZM104.646 49.3066V30.1362H107.445V37.2596H107.614C107.776 36.96 108.01 36.6137 108.316 36.2206C108.621 35.8274 109.046 35.4842 109.589 35.1909C110.132 34.8914 110.849 34.7416 111.742 34.7416C112.902 34.7416 113.938 35.0349 114.849 35.6215C115.76 36.2081 116.475 37.0536 116.993 38.1582C117.517 39.2627 117.779 40.5919 117.779 42.1458C117.779 43.6997 117.52 45.032 117.002 46.1428C116.484 47.2473 115.773 48.0991 114.868 48.6982C113.963 49.291 112.93 49.5875 111.77 49.5875C110.896 49.5875 110.182 49.4408 109.626 49.1475C109.077 48.8542 108.646 48.511 108.334 48.1178C108.022 47.7247 107.782 47.3752 107.614 47.0695H107.38V49.3066H104.646ZM107.389 42.1177C107.389 43.1287 107.536 44.0148 107.829 44.7761C108.122 45.5374 108.547 46.1334 109.102 46.564C109.657 46.9883 110.338 47.2005 111.143 47.2005C111.979 47.2005 112.678 46.979 113.239 46.5359C113.801 46.0866 114.225 45.4782 114.512 44.7106C114.806 43.943 114.952 43.0787 114.952 42.1177C114.952 41.1692 114.809 40.3174 114.522 39.5623C114.241 38.8072 113.817 38.2112 113.249 37.7744C112.687 37.3376 111.985 37.1192 111.143 37.1192C110.331 37.1192 109.645 37.3282 109.083 37.7463C108.528 38.1644 108.107 38.7479 107.82 39.4968C107.532 40.2456 107.389 41.1193 107.389 42.1177ZM120.362 49.3066V34.9288H123.161V49.3066H120.362ZM121.775 32.7103C121.289 32.7103 120.871 32.5481 120.521 32.2236C120.178 31.8929 120.006 31.4997 120.006 31.0442C120.006 30.5824 120.178 30.1892 120.521 29.8647C120.871 29.534 121.289 29.3686 121.775 29.3686C122.262 29.3686 122.677 29.534 123.02 29.8647C123.37 30.1892 123.545 30.5824 123.545 31.0442C123.545 31.4997 123.37 31.8929 123.02 32.2236C122.677 32.5481 122.262 32.7103 121.775 32.7103ZM129.165 30.1362V49.3066H126.366V30.1362H129.165ZM138.567 49.5968C137.15 49.5968 135.93 49.2942 134.907 48.6888C133.89 48.0773 133.103 47.2192 132.548 46.1147C131.999 45.0039 131.724 43.7028 131.724 42.2113C131.724 40.7386 131.999 39.4406 132.548 38.3173C133.103 37.1941 133.877 36.3173 134.869 35.687C135.868 35.0567 137.035 34.7416 138.37 34.7416C139.182 34.7416 139.968 34.8758 140.729 35.1441C141.491 35.4124 142.174 35.8337 142.779 36.4078C143.384 36.9819 143.862 37.7276 144.211 38.6449C144.561 39.556 144.736 40.6637 144.736 41.968V42.9602H133.306V40.8634H141.993C141.993 40.127 141.843 39.4749 141.544 38.907C141.244 38.3329 140.823 37.8805 140.28 37.5498C139.743 37.219 139.113 37.0536 138.389 37.0536C137.603 37.0536 136.916 37.2471 136.33 37.634C135.749 38.0147 135.3 38.5139 134.982 39.1317C134.67 39.7433 134.514 40.4079 134.514 41.1255V42.7636C134.514 43.7246 134.682 44.5421 135.019 45.2161C135.362 45.89 135.84 46.4049 136.451 46.7606C137.063 47.11 137.777 47.2848 138.595 47.2848C139.125 47.2848 139.609 47.2099 140.046 47.0601C140.483 46.9041 140.86 46.6732 141.178 46.3674C141.497 46.0616 141.74 45.6841 141.909 45.2348L144.558 45.7122C144.345 46.4922 143.965 47.1755 143.416 47.7621C142.873 48.3425 142.189 48.7949 141.366 49.1194C140.548 49.4377 139.615 49.5968 138.567 49.5968ZM155.541 49.3066H152.471L159.369 30.1362H162.711L169.61 49.3066H166.54L161.12 33.6183H160.97L155.541 49.3066ZM156.056 41.7995H166.015V44.2332H156.056V41.7995ZM171.594 54.6983V34.9288H174.327V37.2596H174.561C174.723 36.96 174.957 36.6137 175.263 36.2206C175.569 35.8274 175.993 35.4842 176.536 35.1909C177.079 34.8914 177.796 34.7416 178.689 34.7416C179.85 34.7416 180.885 35.0349 181.797 35.6215C182.708 36.2081 183.422 37.0536 183.94 38.1582C184.464 39.2627 184.726 40.5919 184.726 42.1458C184.726 43.6997 184.467 45.032 183.95 46.1428C183.432 47.2473 182.72 48.0991 181.815 48.6982C180.91 49.291 179.878 49.5875 178.717 49.5875C177.843 49.5875 177.129 49.4408 176.573 49.1475C176.024 48.8542 175.594 48.511 175.282 48.1178C174.97 47.7247 174.729 47.3752 174.561 47.0695H174.392V54.6983H171.594ZM174.336 42.1177C174.336 43.1287 174.483 44.0148 174.776 44.7761C175.069 45.5374 175.494 46.1334 176.049 46.564C176.605 46.9883 177.285 47.2005 178.09 47.2005C178.926 47.2005 179.625 46.979 180.187 46.5359C180.748 46.0866 181.173 45.4782 181.46 44.7106C181.753 43.943 181.9 43.0787 181.9 42.1177C181.9 41.1692 181.756 40.3174 181.469 39.5623C181.188 38.8072 180.764 38.2112 180.196 37.7744C179.634 37.3376 178.932 37.1192 178.09 37.1192C177.279 37.1192 176.592 37.3282 176.03 37.7463C175.475 38.1644 175.054 38.7479 174.767 39.4968C174.48 40.2456 174.336 41.1193 174.336 42.1177ZM187.302 54.6983V34.9288H190.036V37.2596H190.27C190.432 36.96 190.666 36.6137 190.972 36.2206C191.277 35.8274 191.702 35.4842 192.245 35.1909C192.788 34.8914 193.505 34.7416 194.398 34.7416C195.558 34.7416 196.594 35.0349 197.505 35.6215C198.416 36.2081 199.131 37.0536 199.649 38.1582C200.173 39.2627 200.435 40.5919 200.435 42.1458C200.435 43.6997 200.176 45.032 199.658 46.1428C199.14 47.2473 198.429 48.0991 197.524 48.6982C196.619 49.291 195.586 49.5875 194.426 49.5875C193.552 49.5875 192.837 49.4408 192.282 49.1475C191.733 48.8542 191.302 48.511 190.99 48.1178C190.678 47.7247 190.438 47.3752 190.27 47.0695H190.101V54.6983H187.302ZM190.045 42.1177C190.045 43.1287 190.192 44.0148 190.485 44.7761C190.778 45.5374 191.202 46.1334 191.758 46.564C192.313 46.9883 192.993 47.2005 193.798 47.2005C194.635 47.2005 195.334 46.979 195.895 46.5359C196.457 46.0866 196.881 45.4782 197.168 44.7106C197.462 43.943 197.608 43.0787 197.608 42.1177C197.608 41.1692 197.465 40.3174 197.178 39.5623C196.897 38.8072 196.472 38.2112 195.905 37.7744C195.343 37.3376 194.641 37.1192 193.798 37.1192C192.987 37.1192 192.301 37.3282 191.739 37.7463C191.184 38.1644 190.763 38.7479 190.475 39.4968C190.188 40.2456 190.045 41.1193 190.045 42.1177ZM213.785 38.439L211.248 38.8883C211.142 38.5638 210.974 38.2549 210.743 37.9616C210.518 37.6683 210.212 37.4281 209.825 37.2409C209.438 37.0536 208.955 36.96 208.375 36.96C207.582 36.96 206.921 37.1379 206.39 37.4936C205.86 37.8431 205.594 38.2955 205.594 38.8509C205.594 39.3314 205.772 39.7183 206.128 40.0116C206.484 40.3049 207.058 40.5451 207.85 40.7324L210.134 41.2565C211.457 41.5623 212.443 42.0335 213.092 42.67C213.741 43.3065 214.066 44.1334 214.066 45.1505C214.066 46.0117 213.816 46.7793 213.317 47.4532C212.824 48.121 212.134 48.6452 211.248 49.0258C210.368 49.4065 209.348 49.5968 208.187 49.5968C206.577 49.5968 205.264 49.2536 204.246 48.5672C203.229 47.8745 202.605 46.8916 202.374 45.6186L205.08 45.2067C205.248 45.9119 205.594 46.4454 206.119 46.8074C206.643 47.1631 207.326 47.3409 208.169 47.3409C209.086 47.3409 209.819 47.1506 210.368 46.7699C210.917 46.383 211.192 45.9119 211.192 45.3565C211.192 44.9072 211.024 44.5296 210.687 44.2238C210.356 43.9181 209.847 43.6872 209.161 43.5312L206.727 42.9976C205.385 42.6918 204.393 42.2051 203.75 41.5374C203.114 40.8696 202.796 40.0241 202.796 39.0006C202.796 38.152 203.033 37.4094 203.507 36.7728C203.981 36.1363 204.637 35.6402 205.473 35.2845C206.309 34.9226 207.267 34.7416 208.346 34.7416C209.9 34.7416 211.123 35.0786 212.016 35.7525C212.908 36.4203 213.498 37.3157 213.785 38.439Z" fill="#FBFAFC"/>
<mask id="path-4-inside-1_876_611" fill="white">
<path d="M0.121094 24.3066C0.121094 11.0518 10.8663 0.306641 24.1211 0.306641H215.601C228.856 0.306641 239.601 11.0518 239.601 24.3066V54.3066C239.601 67.5615 228.856 78.3066 215.601 78.3066H24.1211C10.8663 78.3066 0.121094 67.5615 0.121094 54.3066V24.3066Z"/>
</mask>
<path d="M0.121094 24.3066C0.121094 10.4995 11.314 -0.693359 25.1211 -0.693359H214.601C228.408 -0.693359 239.601 10.4995 239.601 24.3066C239.601 11.6041 228.856 1.30664 215.601 1.30664H24.1211C10.8663 1.30664 0.121094 11.6041 0.121094 24.3066ZM239.601 78.3066H0.121094H239.601ZM0.121094 78.3066V0.306641V78.3066ZM239.601 0.306641V78.3066V0.306641Z" fill="white" fill-opacity="0.1" mask="url(#path-4-inside-1_876_611)"/>
</g>
<defs>
<clipPath id="clip0_876_611">
<rect x="0.121094" y="0.306641" width="239.48" height="78" rx="24" fill="white"/>
</clipPath>
</defs>
</svg>
