<svg width="198" height="79" viewBox="0 0 198 79" fill="none" xmlns="http://www.w3.org/2000/svg">
<g clip-path="url(#clip0_876_583)">
<rect x="0.449219" y="0.306641" width="197.34" height="78" rx="24" fill="#0D0D0D"/>
<path d="M51.6367 43.9941H50.6992V32.7441C50.6992 31.9982 50.4029 31.2828 49.8755 30.7554C49.348 30.228 48.6326 29.9316 47.8867 29.9316H31.0117C30.2658 29.9316 29.5504 30.228 29.023 30.7554C28.4955 31.2828 28.1992 31.9982 28.1992 32.7441V43.9941H27.2617C27.0131 43.9941 26.7746 44.0929 26.5988 44.2687C26.423 44.4445 26.3242 44.683 26.3242 44.9316V46.8066C26.3242 47.5526 26.6205 48.2679 27.148 48.7954C27.6754 49.3228 28.3908 49.6191 29.1367 49.6191H49.7617C50.5076 49.6191 51.223 49.3228 51.7505 48.7954C52.2779 48.2679 52.5742 47.5526 52.5742 46.8066V44.9316C52.5742 44.683 52.4754 44.4445 52.2996 44.2687C52.1238 44.0929 51.8854 43.9941 51.6367 43.9941ZM30.0742 32.7441C30.0742 32.4955 30.173 32.257 30.3488 32.0812C30.5246 31.9054 30.7631 31.8066 31.0117 31.8066H47.8867C48.1354 31.8066 48.3738 31.9054 48.5496 32.0812C48.7254 32.257 48.8242 32.4955 48.8242 32.7441V43.9941H30.0742V32.7441ZM50.6992 46.8066C50.6992 47.0553 50.6004 47.2937 50.4246 47.4696C50.2488 47.6454 50.0104 47.7441 49.7617 47.7441H29.1367C28.8881 47.7441 28.6496 47.6454 28.4738 47.4696C28.298 47.2937 28.1992 47.0553 28.1992 46.8066V45.8691H50.6992V46.8066ZM42.2617 34.6191C42.2617 34.8678 42.1629 35.1062 41.9871 35.2821C41.8113 35.4579 41.5729 35.5566 41.3242 35.5566H37.5742C37.3256 35.5566 37.0871 35.4579 36.9113 35.2821C36.7355 35.1062 36.6367 34.8678 36.6367 34.6191C36.6367 34.3705 36.7355 34.132 36.9113 33.9562C37.0871 33.7804 37.3256 33.6816 37.5742 33.6816H41.3242C41.5729 33.6816 41.8113 33.7804 41.9871 33.9562C42.1629 34.132 42.2617 34.3705 42.2617 34.6191Z" fill="#FBFAFC"/>
<path d="M70.1631 48.3066L64.9786 29.6135H67.9451L71.5869 44.0897H71.7604L75.5483 29.6135H78.4874L82.2753 44.0988H82.4487L86.0815 29.6135H89.057L83.8635 48.3066H81.0248L77.0908 34.305H76.9448L73.0108 48.3066H70.1631ZM95.5115 48.5896C94.1302 48.5896 92.9406 48.2945 91.9427 47.7042C90.9508 47.1079 90.1841 46.2712 89.6425 45.1942C89.1071 44.111 88.8393 42.8423 88.8393 41.388C88.8393 39.9519 89.1071 38.6862 89.6425 37.5909C90.1841 36.4956 90.9387 35.6407 91.9062 35.0261C92.8798 34.4115 94.0177 34.1042 95.3199 34.1042C96.1109 34.1042 96.8776 34.235 97.62 34.4967C98.3624 34.7583 99.0287 35.1691 99.6189 35.7289C100.209 36.2887 100.675 37.0159 101.015 37.9104C101.356 38.7988 101.527 39.8789 101.527 41.1507V42.1182H90.3819V40.0736H98.8522C98.8522 39.3556 98.7062 38.7197 98.4141 38.166C98.122 37.6061 97.7113 37.165 97.1819 36.8425C96.6586 36.52 96.044 36.3587 95.3381 36.3587C94.5714 36.3587 93.9021 36.5473 93.3301 36.9246C92.7642 37.2958 92.326 37.7826 92.0157 38.385C91.7115 38.9813 91.5593 39.6294 91.5593 40.3292V41.9265C91.5593 42.8636 91.7236 43.6607 92.0522 44.3179C92.3869 44.9751 92.8524 45.4771 93.4487 45.824C94.0451 46.1647 94.7418 46.3351 95.5389 46.3351C96.0562 46.3351 96.5277 46.2621 96.9537 46.116C97.3796 45.9639 97.7478 45.7388 98.0581 45.4406C98.3685 45.1424 98.6058 44.7743 98.7701 44.3362L101.353 44.8017C101.146 45.5623 100.775 46.2286 100.24 46.8006C99.7102 47.3665 99.0439 47.8077 98.2407 48.1241C97.4435 48.4344 96.5338 48.5896 95.5115 48.5896ZM104.214 48.3066V29.6135H106.943V36.5595H107.107C107.265 36.2674 107.494 35.9297 107.792 35.5464C108.09 35.163 108.504 34.8283 109.033 34.5423C109.562 34.2502 110.262 34.1042 111.132 34.1042C112.264 34.1042 113.274 34.3902 114.163 34.9622C115.051 35.5342 115.748 36.3587 116.253 37.4358C116.764 38.5128 117.02 39.8089 117.02 41.3241C117.02 42.8392 116.767 44.1384 116.262 45.2215C115.757 46.2986 115.063 47.1292 114.181 47.7134C113.299 48.2914 112.292 48.5805 111.16 48.5805C110.308 48.5805 109.611 48.4375 109.07 48.1515C108.534 47.8655 108.114 47.5308 107.81 47.1474C107.506 46.7641 107.271 46.4233 107.107 46.1252H106.879V48.3066H104.214ZM106.888 41.2967C106.888 42.2825 107.031 43.1465 107.317 43.8889C107.603 44.6313 108.017 45.2124 108.558 45.6323C109.1 46.0461 109.763 46.2529 110.548 46.2529C111.364 46.2529 112.045 46.0369 112.593 45.6049C113.14 45.1668 113.554 44.5735 113.834 43.825C114.12 43.0766 114.263 42.2338 114.263 41.2967C114.263 40.3718 114.123 39.5412 113.843 38.8049C113.569 38.0686 113.156 37.4875 112.602 37.0615C112.054 36.6356 111.37 36.4226 110.548 36.4226C109.757 36.4226 109.088 36.6264 108.54 37.0341C107.999 37.4418 107.588 38.0108 107.308 38.741C107.028 39.4712 106.888 40.3231 106.888 41.2967ZM130.03 37.7096L127.556 38.1477C127.453 37.8313 127.289 37.5301 127.064 37.2441C126.844 36.9581 126.546 36.7238 126.169 36.5413C125.792 36.3587 125.32 36.2674 124.754 36.2674C123.981 36.2674 123.336 36.4409 122.819 36.7877C122.302 37.1285 122.043 37.5696 122.043 38.1112C122.043 38.5797 122.217 38.957 122.564 39.243C122.911 39.529 123.47 39.7633 124.243 39.9458L126.47 40.457C127.76 40.7551 128.722 41.2145 129.355 41.8352C129.987 42.4559 130.304 43.2622 130.304 44.254C130.304 45.0938 130.06 45.8422 129.574 46.4994C129.093 47.1505 128.421 47.6616 127.556 48.0328C126.698 48.404 125.704 48.5896 124.572 48.5896C123.002 48.5896 121.721 48.2549 120.729 47.5856C119.737 46.9101 119.129 45.9517 118.904 44.7104L121.541 44.3088C121.706 44.9964 122.043 45.5167 122.555 45.8696C123.066 46.2164 123.732 46.3899 124.553 46.3899C125.448 46.3899 126.163 46.2043 126.698 45.8331C127.234 45.4558 127.502 44.9964 127.502 44.4548C127.502 44.0167 127.337 43.6486 127.009 43.3504C126.686 43.0522 126.19 42.8271 125.521 42.675L123.148 42.1547C121.84 41.8565 120.872 41.3819 120.245 40.7308C119.625 40.0797 119.314 39.2552 119.314 38.2572C119.314 37.4297 119.545 36.7055 120.008 36.0849C120.47 35.4642 121.109 34.9804 121.925 34.6336C122.74 34.2807 123.674 34.1042 124.727 34.1042C126.242 34.1042 127.435 34.4328 128.305 35.09C129.175 35.7411 129.75 36.6143 130.03 37.7096ZM132.744 48.3066V34.2868H135.474V48.3066H132.744ZM134.123 32.1235C133.648 32.1235 133.24 31.9653 132.9 31.6489C132.565 31.3264 132.398 30.943 132.398 30.4988C132.398 30.0485 132.565 29.6652 132.9 29.3488C133.24 29.0263 133.648 28.865 134.123 28.865C134.597 28.865 135.002 29.0263 135.337 29.3488C135.677 29.6652 135.848 30.0485 135.848 30.4988C135.848 30.943 135.677 31.3264 135.337 31.6489C135.002 31.9653 134.597 32.1235 134.123 32.1235ZM145.13 34.2868V36.4774H137.472V34.2868H145.13ZM139.525 30.9278H142.254V44.1901C142.254 44.7195 142.334 45.1181 142.492 45.3858C142.65 45.6475 142.854 45.827 143.103 45.9244C143.359 46.0156 143.636 46.0613 143.934 46.0613C144.153 46.0613 144.345 46.0461 144.509 46.0156C144.673 45.9852 144.801 45.9609 144.892 45.9426L145.385 48.1971C145.227 48.258 145.002 48.3188 144.71 48.3797C144.418 48.4466 144.053 48.4831 143.614 48.4892C142.896 48.5014 142.227 48.3736 141.606 48.1058C140.986 47.8381 140.484 47.4243 140.1 46.8645C139.717 46.3047 139.525 45.6018 139.525 44.756V30.9278ZM153.48 48.5896C152.099 48.5896 150.909 48.2945 149.911 47.7042C148.92 47.1079 148.153 46.2712 147.611 45.1942C147.076 44.111 146.808 42.8423 146.808 41.388C146.808 39.9519 147.076 38.6862 147.611 37.5909C148.153 36.4956 148.907 35.6407 149.875 35.0261C150.849 34.4115 151.986 34.1042 153.289 34.1042C154.08 34.1042 154.846 34.235 155.589 34.4967C156.331 34.7583 156.998 35.1691 157.588 35.7289C158.178 36.2887 158.644 37.0159 158.984 37.9104C159.325 38.7988 159.495 39.8789 159.495 41.1507V42.1182H148.351V40.0736H156.821C156.821 39.3556 156.675 38.7197 156.383 38.166C156.091 37.6061 155.68 37.165 155.151 36.8425C154.627 36.52 154.013 36.3587 153.307 36.3587C152.54 36.3587 151.871 36.5473 151.299 36.9246C150.733 37.2958 150.295 37.7826 149.985 38.385C149.68 38.9813 149.528 39.6294 149.528 40.3292V41.9265C149.528 42.8636 149.692 43.6607 150.021 44.3179C150.356 44.9751 150.821 45.4771 151.418 45.824C152.014 46.1647 152.711 46.3351 153.508 46.3351C154.025 46.3351 154.497 46.2621 154.923 46.116C155.348 45.9639 155.717 45.7388 156.027 45.4406C156.337 45.1424 156.575 44.7743 156.739 44.3362L159.322 44.8017C159.115 45.5623 158.744 46.2286 158.208 46.8006C157.679 47.3665 157.013 47.8077 156.209 48.1241C155.412 48.4344 154.503 48.5896 153.48 48.5896ZM172.469 37.7096L169.996 38.1477C169.892 37.8313 169.728 37.5301 169.503 37.2441C169.284 36.9581 168.986 36.7238 168.608 36.5413C168.231 36.3587 167.759 36.2674 167.194 36.2674C166.421 36.2674 165.776 36.4409 165.259 36.7877C164.741 37.1285 164.483 37.5696 164.483 38.1112C164.483 38.5797 164.656 38.957 165.003 39.243C165.35 39.529 165.91 39.7633 166.682 39.9458L168.91 40.457C170.2 40.7551 171.161 41.2145 171.794 41.8352C172.427 42.4559 172.743 43.2622 172.743 44.254C172.743 45.0938 172.5 45.8422 172.013 46.4994C171.532 47.1505 170.86 47.6616 169.996 48.0328C169.138 48.404 168.143 48.5896 167.011 48.5896C165.441 48.5896 164.16 48.2549 163.168 47.5856C162.176 46.9101 161.568 45.9517 161.343 44.7104L163.981 44.3088C164.145 44.9964 164.483 45.5167 164.994 45.8696C165.505 46.2164 166.171 46.3899 166.993 46.3899C167.887 46.3899 168.602 46.2043 169.138 45.8331C169.673 45.4558 169.941 44.9964 169.941 44.4548C169.941 44.0167 169.777 43.6486 169.448 43.3504C169.126 43.0522 168.63 42.8271 167.96 42.675L165.587 42.1547C164.279 41.8565 163.311 41.3819 162.685 40.7308C162.064 40.0797 161.754 39.2552 161.754 38.2572C161.754 37.4297 161.985 36.7055 162.447 36.0849C162.91 35.4642 163.549 34.9804 164.364 34.6336C165.179 34.2807 166.113 34.1042 167.166 34.1042C168.681 34.1042 169.874 34.4328 170.744 35.09C171.614 35.7411 172.189 36.6143 172.469 37.7096Z" fill="#FBFAFC"/>
<mask id="path-4-inside-1_876_583" fill="white">
<path d="M0.449219 24.3066C0.449219 11.0518 11.1944 0.306641 24.4492 0.306641H173.789C187.044 0.306641 197.789 11.0518 197.789 24.3066V54.3066C197.789 67.5615 187.044 78.3066 173.789 78.3066H24.4492C11.1944 78.3066 0.449219 67.5615 0.449219 54.3066V24.3066Z"/>
</mask>
<path d="M0.449219 24.3066C0.449219 10.4995 11.6421 -0.693359 25.4492 -0.693359H172.789C186.596 -0.693359 197.789 10.4995 197.789 24.3066C197.789 11.6041 187.044 1.30664 173.789 1.30664H24.4492C11.1944 1.30664 0.449219 11.6041 0.449219 24.3066ZM197.789 78.3066H0.449219H197.789ZM0.449219 78.3066V0.306641V78.3066ZM197.789 0.306641V78.3066V0.306641Z" fill="white" fill-opacity="0.1" mask="url(#path-4-inside-1_876_583)"/>
</g>
<defs>
<clipPath id="clip0_876_583">
<rect x="0.449219" y="0.306641" width="197.34" height="78" rx="24" fill="white"/>
</clipPath>
</defs>
</svg>
