<svg width="276" height="79" viewBox="0 0 276 79" fill="none" xmlns="http://www.w3.org/2000/svg">
<g clip-path="url(#clip0_876_623)">
<rect x="0.171875" y="0.306641" width="274.86" height="78" rx="24" fill="#0D0D0D"/>
<path d="M51.3594 48.6816C51.3594 48.9303 51.2606 49.1687 51.0848 49.3446C50.909 49.5204 50.6705 49.6191 50.4219 49.6191H27.9219C27.6732 49.6191 27.4348 49.5204 27.259 49.3446C27.0831 49.1687 26.9844 48.9303 26.9844 48.6816V29.9316C26.9844 29.683 27.0831 29.4445 27.259 29.2687C27.4348 29.0929 27.6732 28.9941 27.9219 28.9941C28.1705 28.9941 28.409 29.0929 28.5848 29.2687C28.7606 29.4445 28.8594 29.683 28.8594 29.9316V40.9906L34.8043 35.791C34.9661 35.6494 35.1716 35.5677 35.3864 35.5596C35.6013 35.5515 35.8124 35.6175 35.9844 35.7465L42.8762 40.9156L49.8043 34.8535C49.8951 34.7636 50.0034 34.6932 50.1224 34.6467C50.2415 34.6001 50.3688 34.5784 50.4965 34.5829C50.6243 34.5873 50.7497 34.6178 50.8653 34.6726C50.9808 34.7273 51.0839 34.8051 51.1682 34.9011C51.2526 34.9971 51.3164 35.1094 51.3558 35.231C51.3951 35.3526 51.4092 35.481 51.3972 35.6082C51.3851 35.7355 51.3471 35.8589 51.2856 35.971C51.2241 36.083 51.1403 36.1813 51.0395 36.2598L43.5395 42.8223C43.3777 42.9639 43.1722 43.0456 42.9573 43.0537C42.7425 43.0618 42.5314 42.9958 42.3594 42.8668L35.4676 37.7L28.8594 43.482V47.7441H50.4219C50.6705 47.7441 50.909 47.8429 51.0848 48.0187C51.2606 48.1945 51.3594 48.433 51.3594 48.6816Z" fill="#FBFAFC"/>
<path d="M66.2867 49.3066V30.0566H73.1483C74.646 30.0566 75.8867 30.3292 76.8705 30.8744C77.8543 31.4196 78.5906 32.1652 79.0793 33.1114C79.5681 34.0514 79.8125 35.1104 79.8125 36.2885C79.8125 37.4728 79.565 38.538 79.0699 39.4843C78.5812 40.4242 77.8418 41.1699 76.8517 41.7213C75.8679 42.2665 74.6303 42.5391 73.1389 42.5391H68.4204V40.0764H72.8757C73.8219 40.0764 74.5896 39.9135 75.1786 39.5876C75.7676 39.2555 76.2 38.8044 76.4757 38.2341C76.7514 37.6639 76.8893 37.0153 76.8893 36.2885C76.8893 35.5616 76.7514 34.9161 76.4757 34.3522C76.2 33.7882 75.7645 33.3464 75.1692 33.0269C74.5802 32.7073 73.8031 32.5475 72.8381 32.5475H69.1912V49.3066H66.2867ZM82.4319 49.3066V34.8691H85.1483V37.1626H85.2987C85.5619 36.3856 86.0256 35.7746 86.6898 35.3297C87.3603 34.8785 88.1185 34.653 88.9644 34.653C89.1399 34.653 89.3467 34.6592 89.5848 34.6718C89.8292 34.6843 90.0203 34.7 90.1582 34.7187V37.407C90.0454 37.3757 89.8449 37.3412 89.5566 37.3036C89.2684 37.2597 88.9801 37.2378 88.6919 37.2378C88.0276 37.2378 87.4355 37.3788 86.9154 37.6608C86.4015 37.9365 85.9942 38.3219 85.6934 38.8169C85.3927 39.3057 85.2423 39.8634 85.2423 40.49V49.3066H82.4319ZM97.5947 49.598C96.2412 49.598 95.06 49.2878 94.0511 48.6675C93.0423 48.0471 92.259 47.1792 91.7013 46.0638C91.1436 44.9484 90.8647 43.6451 90.8647 42.1537C90.8647 40.656 91.1436 39.3464 91.7013 38.2247C92.259 37.1031 93.0423 36.2321 94.0511 35.6117C95.06 34.9913 96.2412 34.6812 97.5947 34.6812C98.9482 34.6812 100.129 34.9913 101.138 35.6117C102.147 36.2321 102.93 37.1031 103.488 38.2247C104.046 39.3464 104.325 40.656 104.325 42.1537C104.325 43.6451 104.046 44.9484 103.488 46.0638C102.93 47.1792 102.147 48.0471 101.138 48.6675C100.129 49.2878 98.9482 49.598 97.5947 49.598ZM97.6041 47.2388C98.4814 47.2388 99.2083 47.0069 99.7848 46.5432C100.361 46.0795 100.787 45.4623 101.063 44.6915C101.345 43.9208 101.486 43.0717 101.486 42.1443C101.486 41.2231 101.345 40.3772 101.063 39.6064C100.787 38.8294 100.361 38.2059 99.7848 37.736C99.2083 37.266 98.4814 37.031 97.6041 37.031C96.7206 37.031 95.9874 37.266 95.4047 37.736C94.8282 38.2059 94.3989 38.8294 94.1169 39.6064C93.8412 40.3772 93.7034 41.2231 93.7034 42.1443C93.7034 43.0717 93.8412 43.9208 94.1169 44.6915C94.3989 45.4623 94.8282 46.0795 95.4047 46.5432C95.9874 47.0069 96.7206 47.2388 97.6041 47.2388ZM112.306 49.5886C111.141 49.5886 110.101 49.291 109.186 48.6957C108.277 48.0941 107.563 47.2388 107.043 46.1296C106.529 45.0142 106.272 43.6764 106.272 42.1161C106.272 40.5558 106.532 39.2211 107.052 38.1119C107.579 37.0028 108.299 36.1537 109.214 35.5647C110.129 34.9757 111.166 34.6812 112.325 34.6812C113.221 34.6812 113.942 34.8315 114.487 35.1323C115.039 35.4268 115.465 35.7715 115.765 36.1663C116.072 36.561 116.311 36.9088 116.48 37.2096H116.649V30.0566H119.459V49.3066H116.715V47.0602H116.48C116.311 47.3672 116.066 47.7181 115.747 48.1129C115.433 48.5077 115.001 48.8523 114.449 49.1469C113.898 49.4414 113.184 49.5886 112.306 49.5886ZM112.927 47.1918C113.735 47.1918 114.418 46.9787 114.976 46.5526C115.54 46.1202 115.966 45.5218 116.254 44.7573C116.549 43.9928 116.696 43.103 116.696 42.0879C116.696 41.0853 116.552 40.208 116.264 39.4561C115.975 38.7041 115.552 38.1182 114.995 37.6984C114.437 37.2785 113.748 37.0686 112.927 37.0686C112.081 37.0686 111.376 37.2879 110.812 37.7266C110.248 38.1652 109.822 38.7636 109.534 39.5219C109.252 40.2801 109.111 41.1354 109.111 42.0879C109.111 43.0529 109.255 43.9208 109.543 44.6915C109.831 45.4623 110.257 46.0732 110.821 46.5244C111.392 46.9693 112.093 47.1918 112.927 47.1918ZM132.056 43.3192V34.8691H134.876V49.3066H132.113V46.8064H131.962C131.63 47.5771 131.097 48.2194 130.364 48.7333C129.637 49.2408 128.732 49.4946 127.648 49.4946C126.72 49.4946 125.9 49.291 125.185 48.8837C124.477 48.4701 123.919 47.8591 123.512 47.0508C123.111 46.2424 122.911 45.243 122.911 44.0524V34.8691H125.721V43.714C125.721 44.6978 125.994 45.4811 126.539 46.0638C127.084 46.6466 127.792 46.938 128.663 46.938C129.189 46.938 129.713 46.8064 130.233 46.5432C130.759 46.28 131.195 45.8821 131.539 45.3495C131.89 44.8169 132.062 44.1401 132.056 43.3192ZM144.174 49.598C142.776 49.598 141.573 49.2816 140.564 48.6487C139.562 48.0095 138.791 47.1291 138.252 46.0074C137.713 44.8858 137.444 43.6012 137.444 42.1537C137.444 40.6874 137.719 39.3934 138.271 38.2717C138.822 37.1438 139.599 36.2634 140.602 35.6305C141.604 34.9976 142.786 34.6812 144.145 34.6812C145.242 34.6812 146.22 34.8848 147.078 35.2921C147.937 35.6932 148.629 36.2571 149.155 36.984C149.688 37.7109 150.004 38.56 150.105 39.5312H147.369C147.219 38.8545 146.874 38.2717 146.336 37.783C145.803 37.2942 145.089 37.0498 144.192 37.0498C143.409 37.0498 142.723 37.2566 142.134 37.6702C141.551 38.0775 141.097 38.6602 140.771 39.4185C140.445 40.1704 140.282 41.0602 140.282 42.0879C140.282 43.1406 140.442 44.0492 140.762 44.8137C141.081 45.5782 141.532 46.1704 142.115 46.5902C142.704 47.0101 143.397 47.22 144.192 47.22C144.725 47.22 145.208 47.1228 145.64 46.9286C146.079 46.7281 146.445 46.443 146.74 46.0732C147.04 45.7035 147.25 45.2586 147.369 44.7385H150.105C150.004 45.6722 149.701 46.5056 149.193 47.2388C148.685 47.9719 148.005 48.5484 147.153 48.9683C146.307 49.3881 145.314 49.598 144.174 49.598ZM159.29 34.8691V37.125H151.403V34.8691H159.29ZM153.518 31.4102H156.329V45.0675C156.329 45.6127 156.41 46.0231 156.573 46.2988C156.736 46.5683 156.946 46.7531 157.203 46.8534C157.466 46.9474 157.751 46.9944 158.058 46.9944C158.284 46.9944 158.481 46.9787 158.65 46.9474C158.82 46.9161 158.951 46.891 159.045 46.8722L159.553 49.1938C159.39 49.2565 159.158 49.3192 158.857 49.3818C158.556 49.4508 158.18 49.4884 157.729 49.4946C156.99 49.5072 156.301 49.3756 155.661 49.0999C155.022 48.8241 154.505 48.398 154.11 47.8215C153.716 47.245 153.518 46.5213 153.518 45.6503V31.4102ZM174.741 49.3066H168.509V30.0566H174.938C176.824 30.0566 178.444 30.442 179.798 31.2128C181.151 31.9773 182.188 33.077 182.909 34.512C183.636 35.9407 183.999 37.6545 183.999 39.6534C183.999 41.6587 183.633 43.3819 182.899 44.8231C182.173 46.2644 181.12 47.3735 179.741 48.1505C178.363 48.9213 176.696 49.3066 174.741 49.3066ZM171.413 46.7688H174.581C176.047 46.7688 177.266 46.4931 178.237 45.9417C179.209 45.384 179.935 44.5787 180.418 43.526C180.9 42.467 181.142 41.1761 181.142 39.6534C181.142 38.1433 180.9 36.8618 180.418 35.8091C179.942 34.7563 179.23 33.9574 178.284 33.4122C177.338 32.8671 176.163 32.5945 174.759 32.5945H171.413V46.7688ZM193.048 49.598C191.625 49.598 190.4 49.2941 189.373 48.6863C188.351 48.0722 187.562 47.2106 187.004 46.1014C186.452 44.986 186.177 43.6795 186.177 42.1819C186.177 40.703 186.452 39.3997 187.004 38.2717C187.562 37.1438 188.339 36.2634 189.335 35.6305C190.338 34.9976 191.509 34.6812 192.85 34.6812C193.665 34.6812 194.454 34.8159 195.219 35.0853C195.983 35.3548 196.67 35.7778 197.277 36.3542C197.885 36.9307 198.365 37.6796 198.716 38.6007C199.066 39.5156 199.242 40.6278 199.242 41.9375V42.9338H187.765V40.8284H196.488C196.488 40.0889 196.337 39.4341 196.037 38.8639C195.736 38.2874 195.313 37.8331 194.768 37.501C194.229 37.1689 193.596 37.0028 192.869 37.0028C192.08 37.0028 191.39 37.1971 190.801 37.5856C190.218 37.9678 189.767 38.4691 189.448 39.0895C189.134 39.7036 188.978 40.3709 188.978 41.0916V42.7365C188.978 43.7015 189.147 44.5223 189.485 45.1991C189.83 45.8759 190.309 46.3928 190.923 46.75C191.538 47.1009 192.255 47.2764 193.076 47.2764C193.609 47.2764 194.094 47.2012 194.533 47.0508C194.971 46.8941 195.351 46.6623 195.67 46.3552C195.99 46.0482 196.234 45.6691 196.403 45.2179L199.063 45.6973C198.85 46.4805 198.468 47.1667 197.917 47.7557C197.371 48.3385 196.685 48.7928 195.858 49.1187C195.037 49.4382 194.1 49.598 193.048 49.598ZM212.619 38.3939L210.072 38.8451C209.965 38.5192 209.796 38.2091 209.564 37.9146C209.338 37.62 209.031 37.3788 208.643 37.1908C208.254 37.0028 207.769 36.9088 207.186 36.9088C206.39 36.9088 205.726 37.0874 205.193 37.4446C204.661 37.7955 204.394 38.2498 204.394 38.8075C204.394 39.29 204.573 39.6785 204.93 39.973C205.287 40.2675 205.864 40.5088 206.66 40.6968L208.953 41.2231C210.282 41.5302 211.272 42.0033 211.923 42.6425C212.575 43.2816 212.901 44.1119 212.901 45.1333C212.901 45.998 212.65 46.7688 212.149 47.4456C211.654 48.116 210.961 48.6424 210.072 49.0247C209.188 49.4069 208.164 49.598 206.998 49.598C205.381 49.598 204.062 49.2534 203.041 48.5641C202.019 47.8685 201.393 46.8816 201.161 45.6033L203.877 45.1897C204.047 45.8978 204.394 46.4336 204.921 46.797C205.447 47.1542 206.133 47.3328 206.979 47.3328C207.9 47.3328 208.637 47.1416 209.188 46.7594C209.74 46.3709 210.015 45.8978 210.015 45.3401C210.015 44.8889 209.846 44.5098 209.508 44.2028C209.176 43.8957 208.665 43.6639 207.976 43.5072L205.532 42.9714C204.184 42.6644 203.188 42.1756 202.543 41.5051C201.904 40.8346 201.584 39.9856 201.584 38.9579C201.584 38.1057 201.822 37.36 202.298 36.7208C202.775 36.0817 203.433 35.5835 204.272 35.2263C205.112 34.8629 206.074 34.6812 207.158 34.6812C208.718 34.6812 209.946 35.0195 210.842 35.6963C211.738 36.3668 212.331 37.266 212.619 38.3939ZM215.431 49.3066V34.8691H218.241V49.3066H215.431ZM216.85 32.6415C216.361 32.6415 215.942 32.4786 215.591 32.1527C215.246 31.8206 215.074 31.4258 215.074 30.9684C215.074 30.5047 215.246 30.1099 215.591 29.7841C215.942 29.4519 216.361 29.2859 216.85 29.2859C217.339 29.2859 217.756 29.4519 218.1 29.7841C218.451 30.1099 218.627 30.5047 218.627 30.9684C218.627 31.4258 218.451 31.8206 218.1 32.1527C217.756 32.4786 217.339 32.6415 216.85 32.6415ZM227.515 55.0215C226.369 55.0215 225.382 54.8711 224.555 54.5703C223.734 54.2695 223.063 53.8716 222.543 53.3766C222.023 52.8816 221.635 52.3395 221.378 51.7505L223.793 50.7542C223.962 51.0299 224.188 51.3212 224.47 51.6283C224.758 51.9416 225.147 52.2079 225.636 52.4272C226.131 52.6466 226.767 52.7562 227.544 52.7562C228.609 52.7562 229.489 52.4962 230.185 51.9761C230.88 51.4622 231.228 50.6414 231.228 49.5134V46.6748H231.05C230.88 46.9819 230.636 47.3234 230.316 47.6993C230.003 48.0753 229.571 48.4012 229.019 48.6769C228.468 48.9526 227.75 49.0905 226.867 49.0905C225.726 49.0905 224.699 48.8241 223.784 48.2915C222.875 47.7526 222.155 46.9599 221.622 45.9135C221.096 44.8607 220.832 43.5667 220.832 42.0315C220.832 40.4963 221.093 39.1803 221.613 38.0837C222.139 36.9871 222.86 36.1475 223.775 35.5647C224.689 34.9757 225.726 34.6812 226.886 34.6812C227.782 34.6812 228.506 34.8315 229.057 35.1323C229.608 35.4268 230.038 35.7715 230.345 36.1663C230.658 36.561 230.899 36.9088 231.068 37.2096H231.275V34.8691H234.029V49.6262C234.029 50.8669 233.741 51.8852 233.165 52.681C232.588 53.4768 231.808 54.0659 230.824 54.4481C229.847 54.8304 228.744 55.0215 227.515 55.0215ZM227.487 46.7594C228.296 46.7594 228.979 46.5714 229.536 46.1954C230.1 45.8132 230.526 45.268 230.815 44.5599C231.109 43.8456 231.256 42.9902 231.256 41.9939C231.256 41.0226 231.112 40.1673 230.824 39.4279C230.536 38.6884 230.113 38.1119 229.555 37.6984C228.997 37.2785 228.308 37.0686 227.487 37.0686C226.641 37.0686 225.936 37.2879 225.372 37.7266C224.808 38.1589 224.382 38.748 224.094 39.4937C223.812 40.2393 223.671 41.0728 223.671 41.9939C223.671 42.9401 223.815 43.7704 224.103 44.4847C224.392 45.1991 224.818 45.7568 225.382 46.1578C225.952 46.5589 226.654 46.7594 227.487 46.7594ZM240.049 40.7344V49.3066H237.238V34.8691H239.936V37.219H240.115C240.447 36.4545 240.967 35.8404 241.675 35.3767C242.389 34.913 243.289 34.6812 244.373 34.6812C245.356 34.6812 246.218 34.8879 246.957 35.3015C247.697 35.7088 248.27 36.3167 248.678 37.125C249.085 37.9333 249.288 38.9328 249.288 40.1234V49.3066H246.478V40.4618C246.478 39.4153 246.205 38.5976 245.66 38.0085C245.115 37.4132 244.366 37.1156 243.414 37.1156C242.762 37.1156 242.183 37.2566 241.675 37.5386C241.174 37.8206 240.776 38.2341 240.481 38.7793C240.193 39.3182 240.049 39.9699 240.049 40.7344Z" fill="#FBFAFC"/>
<mask id="path-4-inside-1_876_623" fill="white">
<path d="M0.171875 24.3066C0.171875 11.0518 10.917 0.306641 24.1719 0.306641H251.032C264.287 0.306641 275.032 11.0518 275.032 24.3066V54.3066C275.032 67.5615 264.287 78.3066 251.032 78.3066H24.1719C10.917 78.3066 0.171875 67.5615 0.171875 54.3066V24.3066Z"/>
</mask>
<path d="M0.171875 24.3066C0.171875 10.4995 11.3648 -0.693359 25.1719 -0.693359H250.032C263.839 -0.693359 275.032 10.4995 275.032 24.3066C275.032 11.6041 264.287 1.30664 251.032 1.30664H24.1719C10.917 1.30664 0.171875 11.6041 0.171875 24.3066ZM275.032 78.3066H0.171875H275.032ZM0.171875 78.3066V0.306641V78.3066ZM275.032 0.306641V78.3066V0.306641Z" fill="white" fill-opacity="0.1" mask="url(#path-4-inside-1_876_623)"/>
</g>
<defs>
<clipPath id="clip0_876_623">
<rect x="0.171875" y="0.306641" width="274.86" height="78" rx="24" fill="white"/>
</clipPath>
</defs>
</svg>
