<svg width="268" height="79" viewBox="0 0 268 79" fill="none" xmlns="http://www.w3.org/2000/svg">
<g clip-path="url(#clip0_876_577)">
<rect x="0.96875" y="0.306641" width="266.48" height="78" rx="24" fill="#0D0D0D"/>
<path d="M49.3438 28.9941H30.5938C29.8478 28.9941 29.1325 29.2905 28.605 29.8179C28.0776 30.3453 27.7812 31.0607 27.7812 31.8066V44.9316C27.7812 45.6776 28.0776 46.3929 28.605 46.9204C29.1325 47.4478 29.8478 47.7441 30.5938 47.7441H39.0312V49.6191H36.2188C35.9701 49.6191 35.7317 49.7179 35.5558 49.8937C35.38 50.0695 35.2812 50.308 35.2812 50.5566C35.2812 50.8053 35.38 51.0437 35.5558 51.2196C35.7317 51.3954 35.9701 51.4941 36.2188 51.4941H43.7188C43.9674 51.4941 44.2058 51.3954 44.3817 51.2196C44.5575 51.0437 44.6562 50.8053 44.6562 50.5566C44.6562 50.308 44.5575 50.0695 44.3817 49.8937C44.2058 49.7179 43.9674 49.6191 43.7188 49.6191H40.9062V47.7441H49.3438C50.0897 47.7441 50.805 47.4478 51.3325 46.9204C51.8599 46.3929 52.1562 45.6776 52.1562 44.9316V31.8066C52.1562 31.0607 51.8599 30.3453 51.3325 29.8179C50.805 29.2905 50.0897 28.9941 49.3438 28.9941ZM30.5938 30.8691H49.3438C49.5924 30.8691 49.8308 30.9679 50.0067 31.1437C50.1825 31.3195 50.2812 31.558 50.2812 31.8066V41.1816H29.6562V31.8066C29.6562 31.558 29.755 31.3195 29.9308 31.1437C30.1067 30.9679 30.3451 30.8691 30.5938 30.8691ZM49.3438 45.8691H30.5938C30.3451 45.8691 30.1067 45.7704 29.9308 45.5946C29.755 45.4187 29.6562 45.1803 29.6562 44.9316V43.0566H50.2812V44.9316C50.2812 45.1803 50.1825 45.4187 50.0067 45.5946C49.8308 45.7704 49.5924 45.8691 49.3438 45.8691Z" fill="#FBFAFC"/>
<path d="M67.0749 49.3066V30.1362H69.9673V46.8167H78.6539V49.3066H67.0749ZM85.353 49.6249C84.4419 49.6249 83.6182 49.4564 82.8818 49.1194C82.1455 48.7762 81.562 48.2801 81.1314 47.6311C80.7071 46.9821 80.4949 46.1864 80.4949 45.2442C80.4949 44.4329 80.6509 43.7652 80.9629 43.241C81.2749 42.7168 81.6962 42.3018 82.2266 41.996C82.757 41.6903 83.3499 41.4594 84.0051 41.3034C84.6604 41.1473 85.3281 41.0288 86.0083 40.9476C86.8694 40.8478 87.5684 40.7667 88.105 40.7043C88.6417 40.6356 89.0317 40.5264 89.2751 40.3767C89.5185 40.2269 89.6402 39.9835 89.6402 39.6465V39.581C89.6402 38.7635 89.4093 38.1301 88.9475 37.6808C88.4919 37.2315 87.8117 37.0068 86.9069 37.0068C85.9646 37.0068 85.222 37.2159 84.6791 37.634C84.1424 38.0459 83.7711 38.5045 83.5652 39.01L80.9348 38.4109C81.2469 37.5373 81.7024 36.8321 82.3015 36.2954C82.9068 35.7525 83.6026 35.3594 84.3889 35.116C85.1752 34.8664 86.002 34.7416 86.8694 34.7416C87.4436 34.7416 88.052 34.8102 88.6948 34.9475C89.3438 35.0786 89.9491 35.3219 90.5107 35.6776C91.0786 36.0333 91.5435 36.5419 91.9054 37.2034C92.2674 37.8587 92.4483 38.7105 92.4483 39.7589V49.3066H89.7151V47.3409H89.6027C89.4218 47.7029 89.1503 48.0586 88.7884 48.408C88.4264 48.7575 87.9615 49.0477 87.3936 49.2786C86.8258 49.5095 86.1456 49.6249 85.353 49.6249ZM85.9615 47.3784C86.7353 47.3784 87.3968 47.2255 87.9459 46.9197C88.5013 46.6139 88.9225 46.2145 89.2096 45.7215C89.5029 45.2223 89.6495 44.6888 89.6495 44.1209V42.2675C89.5497 42.3673 89.3562 42.4609 89.0692 42.5483C88.7884 42.6294 88.467 42.7012 88.105 42.7636C87.7431 42.8198 87.3905 42.8728 87.0473 42.9227C86.7041 42.9664 86.417 43.0039 86.1861 43.0351C85.6432 43.1037 85.1471 43.2191 84.6978 43.3814C84.2547 43.5436 83.899 43.7777 83.6307 44.0834C83.3686 44.383 83.2375 44.7824 83.2375 45.2816C83.2375 45.9743 83.4934 46.4985 84.0051 46.8542C84.5168 47.2036 85.1689 47.3784 85.9615 47.3784ZM98.415 40.7698V49.3066H95.6162V34.9288H98.3027V37.2689H98.4805C98.8113 36.5076 99.3292 35.8961 100.034 35.4343C100.746 34.9725 101.641 34.7416 102.721 34.7416C103.701 34.7416 104.559 34.9475 105.295 35.3594C106.031 35.765 106.602 36.3703 107.008 37.1753C107.414 37.9803 107.616 38.9757 107.616 40.1614V49.3066H104.818V40.4983C104.818 39.4562 104.546 38.6418 104.003 38.0552C103.46 37.4624 102.715 37.166 101.766 37.166C101.117 37.166 100.54 37.3064 100.034 37.5872C99.5352 37.868 99.1389 38.2799 98.8456 38.8228C98.5585 39.3595 98.415 40.0085 98.415 40.7698ZM116.192 49.5875C115.032 49.5875 113.996 49.291 113.085 48.6982C112.18 48.0991 111.468 47.2473 110.95 46.1428C110.439 45.032 110.183 43.6997 110.183 42.1458C110.183 40.5919 110.442 39.2627 110.96 38.1582C111.484 37.0536 112.202 36.2081 113.113 35.6215C114.024 35.0349 115.057 34.7416 116.211 34.7416C117.103 34.7416 117.821 34.8914 118.364 35.1909C118.913 35.4842 119.338 35.8274 119.637 36.2206C119.943 36.6137 120.18 36.96 120.348 37.2596H120.517V30.1362H123.316V49.3066H120.582V47.0695H120.348C120.18 47.3752 119.937 47.7247 119.618 48.1178C119.306 48.511 118.876 48.8542 118.327 49.1475C117.777 49.4408 117.066 49.5875 116.192 49.5875ZM116.81 47.2005C117.615 47.2005 118.295 46.9883 118.851 46.564C119.412 46.1334 119.837 45.5374 120.124 44.7761C120.417 44.0148 120.564 43.1287 120.564 42.1177C120.564 41.1193 120.42 40.2456 120.133 39.4968C119.846 38.7479 119.425 38.1644 118.869 37.7463C118.314 37.3282 117.628 37.1192 116.81 37.1192C115.968 37.1192 115.266 37.3376 114.704 37.7744C114.142 38.2112 113.718 38.8072 113.431 39.5623C113.15 40.3174 113.01 41.1692 113.01 42.1177C113.01 43.0787 113.153 43.943 113.44 44.7106C113.727 45.4782 114.152 46.0866 114.713 46.5359C115.281 46.979 115.98 47.2005 116.81 47.2005ZM126.75 49.3066V34.9288H129.549V49.3066H126.75ZM128.164 32.7103C127.677 32.7103 127.259 32.5481 126.91 32.2236C126.566 31.8929 126.395 31.4997 126.395 31.0442C126.395 30.5824 126.566 30.1892 126.91 29.8647C127.259 29.534 127.677 29.3686 128.164 29.3686C128.651 29.3686 129.066 29.534 129.409 29.8647C129.758 30.1892 129.933 30.5824 129.933 31.0442C129.933 31.4997 129.758 31.8929 129.409 32.2236C129.066 32.5481 128.651 32.7103 128.164 32.7103ZM135.553 40.7698V49.3066H132.754V34.9288H135.441V37.2689H135.619C135.95 36.5076 136.468 35.8961 137.173 35.4343C137.884 34.9725 138.78 34.7416 139.859 34.7416C140.839 34.7416 141.697 34.9475 142.433 35.3594C143.17 35.765 143.741 36.3703 144.146 37.1753C144.552 37.9803 144.755 38.9757 144.755 40.1614V49.3066H141.956V40.4983C141.956 39.4562 141.684 38.6418 141.142 38.0552C140.599 37.4624 139.853 37.166 138.904 37.166C138.255 37.166 137.678 37.3064 137.173 37.5872C136.673 37.868 136.277 38.2799 135.984 38.8228C135.697 39.3595 135.553 40.0085 135.553 40.7698ZM153.977 54.9979C152.835 54.9979 151.852 54.8481 151.028 54.5486C150.21 54.249 149.543 53.8528 149.025 53.3598C148.507 52.8668 148.12 52.327 147.864 51.7404L150.27 50.7482C150.438 51.0227 150.663 51.3129 150.944 51.6187C151.231 51.9307 151.618 52.1959 152.104 52.4144C152.597 52.6328 153.231 52.742 154.005 52.742C155.065 52.742 155.942 52.483 156.635 51.965C157.328 51.4533 157.674 50.6358 157.674 49.5126V46.6857H157.496C157.328 46.9915 157.084 47.3316 156.766 47.706C156.454 48.0804 156.023 48.4049 155.474 48.6795C154.925 48.9541 154.211 49.0913 153.331 49.0913C152.195 49.0913 151.171 48.8261 150.26 48.2957C149.356 47.759 148.638 46.9696 148.107 45.9275C147.583 44.8791 147.321 43.5905 147.321 42.0616C147.321 40.5327 147.58 39.2222 148.098 38.1301C148.622 37.038 149.34 36.2018 150.251 35.6215C151.162 35.0349 152.195 34.7416 153.349 34.7416C154.242 34.7416 154.963 34.8914 155.512 35.1909C156.061 35.4842 156.488 35.8274 156.794 36.2206C157.106 36.6137 157.346 36.96 157.515 37.2596H157.721V34.9288H160.463V49.6249C160.463 50.8605 160.176 51.8746 159.602 52.6671C159.028 53.4596 158.251 54.0462 157.271 54.4269C156.298 54.8075 155.2 54.9979 153.977 54.9979ZM153.948 46.7699C154.753 46.7699 155.434 46.5827 155.989 46.2083C156.551 45.8276 156.975 45.2847 157.262 44.5796C157.555 43.8681 157.702 43.0163 157.702 42.0241C157.702 41.0569 157.559 40.205 157.271 39.4687C156.984 38.7323 156.563 38.1582 156.008 37.7463C155.452 37.3282 154.766 37.1192 153.948 37.1192C153.106 37.1192 152.404 37.3376 151.842 37.7744C151.281 38.205 150.856 38.7916 150.569 39.5342C150.288 40.2768 150.148 41.1068 150.148 42.0241C150.148 42.9664 150.292 43.7933 150.579 44.5047C150.866 45.2161 151.29 45.7715 151.852 46.1708C152.42 46.5702 153.118 46.7699 153.948 46.7699ZM170.298 49.3066V30.1362H177.131C178.622 30.1362 179.858 30.4076 180.838 30.9506C181.817 31.4935 182.551 32.2361 183.037 33.1784C183.524 34.1144 183.768 35.1691 183.768 36.3422C183.768 37.5217 183.521 38.5825 183.028 39.5248C182.541 40.4609 181.805 41.2035 180.819 41.7527C179.839 42.2956 178.607 42.567 177.121 42.567H172.422V40.1146H176.859C177.802 40.1146 178.566 39.9523 179.153 39.6278C179.739 39.2971 180.17 38.8478 180.444 38.2799C180.719 37.712 180.856 37.0661 180.856 36.3422C180.856 35.6184 180.719 34.9756 180.444 34.414C180.17 33.8523 179.736 33.4124 179.143 33.0941C178.557 32.7759 177.783 32.6167 176.822 32.6167H173.19V49.3066H170.298ZM190.429 49.6249C189.518 49.6249 188.694 49.4564 187.958 49.1194C187.222 48.7762 186.638 48.2801 186.208 47.6311C185.783 46.9821 185.571 46.1864 185.571 45.2442C185.571 44.4329 185.727 43.7652 186.039 43.241C186.351 42.7168 186.772 42.3018 187.303 41.996C187.833 41.6903 188.426 41.4594 189.081 41.3034C189.737 41.1473 190.404 41.0288 191.084 40.9476C191.946 40.8478 192.645 40.7667 193.181 40.7043C193.718 40.6356 194.108 40.5264 194.351 40.3767C194.595 40.2269 194.716 39.9835 194.716 39.6465V39.581C194.716 38.7635 194.485 38.1301 194.024 37.6808C193.568 37.2315 192.888 37.0068 191.983 37.0068C191.041 37.0068 190.298 37.2159 189.755 37.634C189.219 38.0459 188.847 38.5045 188.641 39.01L186.011 38.4109C186.323 37.5373 186.779 36.8321 187.378 36.2954C187.983 35.7525 188.679 35.3594 189.465 35.116C190.251 34.8664 191.078 34.7416 191.946 34.7416C192.52 34.7416 193.128 34.8102 193.771 34.9475C194.42 35.0786 195.025 35.3219 195.587 35.6776C196.155 36.0333 196.62 36.5419 196.982 37.2034C197.344 37.8587 197.524 38.7105 197.524 39.7589V49.3066H194.791V47.3409H194.679C194.498 47.7029 194.226 48.0586 193.865 48.408C193.503 48.7575 193.038 49.0477 192.47 49.2786C191.902 49.5095 191.222 49.6249 190.429 49.6249ZM191.038 47.3784C191.811 47.3784 192.473 47.2255 193.022 46.9197C193.577 46.6139 193.999 46.2145 194.286 45.7215C194.579 45.2223 194.726 44.6888 194.726 44.1209V42.2675C194.626 42.3673 194.432 42.4609 194.145 42.5483C193.865 42.6294 193.543 42.7012 193.181 42.7636C192.819 42.8198 192.467 42.8728 192.123 42.9227C191.78 42.9664 191.493 43.0039 191.262 43.0351C190.719 43.1037 190.223 43.2191 189.774 43.3814C189.331 43.5436 188.975 43.7777 188.707 44.0834C188.445 44.383 188.314 44.7824 188.314 45.2816C188.314 45.9743 188.57 46.4985 189.081 46.8542C189.593 47.2036 190.245 47.3784 191.038 47.3784ZM206.721 54.9979C205.579 54.9979 204.596 54.8481 203.772 54.5486C202.954 54.249 202.287 53.8528 201.769 53.3598C201.251 52.8668 200.864 52.327 200.608 51.7404L203.014 50.7482C203.182 51.0227 203.407 51.3129 203.688 51.6187C203.975 51.9307 204.362 52.1959 204.848 52.4144C205.341 52.6328 205.975 52.742 206.749 52.742C207.809 52.742 208.686 52.483 209.379 51.965C210.072 51.4533 210.418 50.6358 210.418 49.5126V46.6857H210.24C210.072 46.9915 209.828 47.3316 209.51 47.706C209.198 48.0804 208.767 48.4049 208.218 48.6795C207.669 48.9541 206.955 49.0913 206.075 49.0913C204.939 49.0913 203.916 48.8261 203.004 48.2957C202.1 47.759 201.382 46.9696 200.851 45.9275C200.327 44.8791 200.065 43.5905 200.065 42.0616C200.065 40.5327 200.324 39.2222 200.842 38.1301C201.366 37.038 202.084 36.2018 202.995 35.6215C203.906 35.0349 204.939 34.7416 206.093 34.7416C206.986 34.7416 207.707 34.8914 208.256 35.1909C208.805 35.4842 209.232 35.8274 209.538 36.2206C209.85 36.6137 210.09 36.96 210.259 37.2596H210.465V34.9288H213.207V49.6249C213.207 50.8605 212.92 51.8746 212.346 52.6671C211.772 53.4596 210.995 54.0462 210.015 54.4269C209.042 54.8075 207.944 54.9979 206.721 54.9979ZM206.692 46.7699C207.497 46.7699 208.178 46.5827 208.733 46.2083C209.295 45.8276 209.719 45.2847 210.006 44.5796C210.299 43.8681 210.446 43.0163 210.446 42.0241C210.446 41.0569 210.303 40.205 210.015 39.4687C209.728 38.7323 209.307 38.1582 208.752 37.7463C208.196 37.3282 207.51 37.1192 206.692 37.1192C205.85 37.1192 205.148 37.3376 204.586 37.7744C204.025 38.205 203.6 38.7916 203.313 39.5342C203.032 40.2768 202.892 41.1068 202.892 42.0241C202.892 42.9664 203.036 43.7933 203.323 44.5047C203.61 45.2161 204.034 45.7715 204.596 46.1708C205.164 46.5702 205.862 46.7699 206.692 46.7699ZM222.598 49.5968C221.181 49.5968 219.961 49.2942 218.938 48.6888C217.921 48.0773 217.134 47.2192 216.579 46.1147C216.03 45.0039 215.755 43.7028 215.755 42.2113C215.755 40.7386 216.03 39.4406 216.579 38.3173C217.134 37.1941 217.908 36.3173 218.9 35.687C219.899 35.0567 221.066 34.7416 222.401 34.7416C223.212 34.7416 223.999 34.8758 224.76 35.1441C225.521 35.4124 226.205 35.8337 226.81 36.4078C227.415 36.9819 227.893 37.7276 228.242 38.6449C228.592 39.556 228.766 40.6637 228.766 41.968V42.9602H217.337V40.8634H226.024C226.024 40.127 225.874 39.4749 225.574 38.907C225.275 38.3329 224.854 37.8805 224.311 37.5498C223.774 37.219 223.144 37.0536 222.42 37.0536C221.634 37.0536 220.947 37.2471 220.361 37.634C219.78 38.0147 219.331 38.5139 219.013 39.1317C218.701 39.7433 218.545 40.4079 218.545 41.1255V42.7636C218.545 43.7246 218.713 44.5421 219.05 45.2161C219.393 45.89 219.871 46.4049 220.482 46.7606C221.094 47.11 221.808 47.2848 222.626 47.2848C223.156 47.2848 223.64 47.2099 224.077 47.0601C224.514 46.9041 224.891 46.6732 225.209 46.3674C225.528 46.0616 225.771 45.6841 225.939 45.2348L228.588 45.7122C228.376 46.4922 227.996 47.1755 227.446 47.7621C226.904 48.3425 226.22 48.7949 225.397 49.1194C224.579 49.4377 223.646 49.5968 222.598 49.5968ZM242.086 38.439L239.549 38.8883C239.443 38.5638 239.274 38.2549 239.044 37.9616C238.819 37.6683 238.513 37.4281 238.126 37.2409C237.739 37.0536 237.256 36.96 236.675 36.96C235.883 36.96 235.221 37.1379 234.691 37.4936C234.16 37.8431 233.895 38.2955 233.895 38.8509C233.895 39.3314 234.073 39.7183 234.429 40.0116C234.784 40.3049 235.359 40.5451 236.151 40.7324L238.435 41.2565C239.758 41.5623 240.744 42.0335 241.393 42.67C242.042 43.3065 242.367 44.1334 242.367 45.1505C242.367 46.0117 242.117 46.7793 241.618 47.4532C241.125 48.121 240.435 48.6452 239.549 49.0258C238.669 49.4065 237.649 49.5968 236.488 49.5968C234.878 49.5968 233.564 49.2536 232.547 48.5672C231.53 47.8745 230.906 46.8916 230.675 45.6186L233.38 45.2067C233.549 45.9119 233.895 46.4454 234.419 46.8074C234.944 47.1631 235.627 47.3409 236.469 47.3409C237.387 47.3409 238.12 47.1506 238.669 46.7699C239.218 46.383 239.493 45.9119 239.493 45.3565C239.493 44.9072 239.324 44.5296 238.987 44.2238C238.657 43.9181 238.148 43.6872 237.462 43.5312L235.028 42.9976C233.686 42.6918 232.694 42.2051 232.051 41.5374C231.415 40.8696 231.096 40.0241 231.096 39.0006C231.096 38.152 231.334 37.4094 231.808 36.7728C232.282 36.1363 232.937 35.6402 233.774 35.2845C234.61 34.9226 235.568 34.7416 236.647 34.7416C238.201 34.7416 239.424 35.0786 240.317 35.7525C241.209 36.4203 241.799 37.3157 242.086 38.439Z" fill="#FBFAFC"/>
<mask id="path-4-inside-1_876_577" fill="white">
<path d="M0.96875 24.3066C0.96875 11.0518 11.7139 0.306641 24.9688 0.306641H243.449C256.704 0.306641 267.449 11.0518 267.449 24.3066V54.3066C267.449 67.5615 256.704 78.3066 243.449 78.3066H24.9687C11.7139 78.3066 0.96875 67.5615 0.96875 54.3066V24.3066Z"/>
</mask>
<path d="M0.96875 24.3066C0.96875 10.4995 12.1616 -0.693359 25.9688 -0.693359H242.449C256.256 -0.693359 267.449 10.4995 267.449 24.3066C267.449 11.6041 256.704 1.30664 243.449 1.30664H24.9688C11.7139 1.30664 0.96875 11.6041 0.96875 24.3066ZM267.449 78.3066H0.96875H267.449ZM0.96875 78.3066V0.306641V78.3066ZM267.449 0.306641V78.3066V0.306641Z" fill="white" fill-opacity="0.1" mask="url(#path-4-inside-1_876_577)"/>
</g>
<defs>
<clipPath id="clip0_876_577">
<rect x="0.96875" y="0.306641" width="266.48" height="78" rx="24" fill="white"/>
</clipPath>
</defs>
</svg>
