<svg width="246" height="79" viewBox="0 0 246 79" fill="none" xmlns="http://www.w3.org/2000/svg">
<g clip-path="url(#clip0_876_617)">
<rect x="0.609375" y="0.306641" width="244.56" height="78" rx="24" fill="#0D0D0D"/>
<path d="M50.8594 29.9316H28.3594C28.1107 29.9316 27.8723 30.0304 27.6965 30.2062C27.5206 30.382 27.4219 30.6205 27.4219 30.8691V46.8066C27.4219 47.3039 27.6194 47.7808 27.971 48.1325C28.3227 48.4841 28.7996 48.6816 29.2969 48.6816H49.9219C50.4192 48.6816 50.8961 48.4841 51.2477 48.1325C51.5993 47.7808 51.7969 47.3039 51.7969 46.8066V30.8691C51.7969 30.6205 51.6981 30.382 51.5223 30.2062C51.3465 30.0304 51.108 29.9316 50.8594 29.9316ZM39.6094 39.9102L30.7699 31.8066H48.4488L39.6094 39.9102ZM36.177 39.3066L29.2969 45.6125V33.0008L36.177 39.3066ZM37.5645 40.5781L38.9707 41.873C39.1437 42.0318 39.3699 42.1199 39.6047 42.1199C39.8395 42.1199 40.0657 42.0318 40.2387 41.873L41.6449 40.5781L48.4418 46.8066H30.7699L37.5645 40.5781ZM43.0418 39.3066L49.9219 32.9996V45.6137L43.0418 39.3066Z" fill="#FBFAFC"/>
<path d="M66.733 49.3066V29.9771H78.8517V32.4877H69.6494V38.3771H78.2193V40.8783H69.6494V46.7961H78.965V49.3066H66.733ZM81.9608 49.3066V34.8095H84.6696V37.169H84.8489C85.151 36.3699 85.6449 35.747 86.3307 35.3003C87.0166 34.8472 87.8377 34.6207 88.7941 34.6207C89.7631 34.6207 90.5748 34.8472 91.2292 35.3003C91.8899 35.7533 92.3775 36.3762 92.6921 37.169H92.8431C93.1892 36.3951 93.7398 35.7785 94.4948 35.3191C95.2499 34.8535 96.1497 34.6207 97.1942 34.6207C98.5092 34.6207 99.582 35.0329 100.413 35.8571C101.249 36.6814 101.668 37.9241 101.668 39.5852V49.3066H98.8459V39.8495C98.8459 38.8679 98.5784 38.1569 98.0436 37.7165C97.5088 37.276 96.8701 37.0558 96.1276 37.0558C95.209 37.0558 94.4948 37.3389 93.9852 37.9052C93.4755 38.4652 93.2207 39.1857 93.2207 40.0666V49.3066H90.4081V39.6702C90.4081 38.8837 90.1627 38.2513 89.6719 37.7731C89.1811 37.2949 88.5424 37.0558 87.7559 37.0558C87.2211 37.0558 86.7271 37.1974 86.2741 37.4805C85.8274 37.7574 85.4656 38.1443 85.1887 38.6414C84.9181 39.1385 84.7829 39.7142 84.7829 40.3686V49.3066H81.9608ZM109.109 49.6275C108.191 49.6275 107.36 49.4577 106.617 49.1179C105.875 48.7718 105.287 48.2716 104.853 47.6172C104.425 46.9628 104.211 46.1606 104.211 45.2104C104.211 44.3925 104.368 43.7192 104.683 43.1907C104.997 42.6621 105.422 42.2437 105.957 41.9354C106.492 41.627 107.089 41.3942 107.75 41.2369C108.411 41.0796 109.084 40.9601 109.77 40.8783C110.638 40.7776 111.343 40.6958 111.884 40.6329C112.425 40.5637 112.818 40.4536 113.064 40.3025C113.309 40.1515 113.432 39.9061 113.432 39.5664V39.5003C113.432 38.676 113.199 38.0374 112.733 37.5843C112.274 37.1313 111.588 36.9048 110.676 36.9048C109.726 36.9048 108.977 37.1156 108.43 37.5371C107.888 37.9524 107.514 38.4149 107.306 38.9246L104.654 38.3205C104.969 37.4396 105.428 36.7286 106.032 36.1875C106.643 35.64 107.344 35.2436 108.137 34.9982C108.93 34.7466 109.764 34.6207 110.638 34.6207C111.217 34.6207 111.831 34.6899 112.479 34.8284C113.133 34.9605 113.743 35.2059 114.31 35.5645C114.882 35.9232 115.351 36.436 115.716 37.103C116.081 37.7637 116.263 38.6225 116.263 39.6796V49.3066H113.507V47.3246H113.394C113.212 47.6896 112.938 48.0482 112.573 48.4006C112.208 48.7529 111.739 49.0455 111.167 49.2783C110.594 49.5111 109.908 49.6275 109.109 49.6275ZM109.723 47.3624C110.503 47.3624 111.17 47.2082 111.724 46.8999C112.284 46.5916 112.708 46.1889 112.998 45.6918C113.293 45.1884 113.441 44.6504 113.441 44.0778V42.2091C113.341 42.3097 113.146 42.4041 112.856 42.4922C112.573 42.574 112.249 42.6464 111.884 42.7093C111.519 42.7659 111.164 42.8194 110.818 42.8698C110.471 42.9138 110.182 42.9515 109.949 42.983C109.402 43.0522 108.902 43.1686 108.449 43.3322C108.002 43.4958 107.643 43.7318 107.373 44.0401C107.108 44.3421 106.976 44.7448 106.976 45.2482C106.976 45.9466 107.234 46.4752 107.75 46.8338C108.266 47.1862 108.924 47.3624 109.723 47.3624ZM119.462 49.3066V34.8095H122.284V49.3066H119.462ZM120.887 32.5726C120.397 32.5726 119.975 32.409 119.623 32.0818C119.277 31.7483 119.104 31.3519 119.104 30.8926C119.104 30.427 119.277 30.0306 119.623 29.7034C119.975 29.3699 120.397 29.2032 120.887 29.2032C121.378 29.2032 121.797 29.3699 122.143 29.7034C122.495 30.0306 122.671 30.427 122.671 30.8926C122.671 31.3519 122.495 31.7483 122.143 32.0818C121.797 32.409 121.378 32.5726 120.887 32.5726ZM128.343 29.9771V49.3066H125.521V29.9771H128.343ZM144.537 49.3066H138.28V29.9771H144.735C146.629 29.9771 148.256 30.3641 149.615 31.138C150.974 31.9056 152.015 33.0099 152.739 34.4508C153.469 35.8854 153.834 37.6064 153.834 39.6136C153.834 41.627 153.466 43.3574 152.73 44.8046C152 46.2518 150.943 47.3655 149.558 48.1457C148.174 48.9197 146.5 49.3066 144.537 49.3066ZM141.196 46.7583H144.377C145.849 46.7583 147.073 46.4815 148.048 45.9277C149.024 45.3677 149.753 44.5592 150.238 43.5021C150.722 42.4387 150.965 41.1426 150.965 39.6136C150.965 38.0971 150.722 36.8104 150.238 35.7533C149.76 34.6962 149.046 33.894 148.095 33.3466C147.145 32.7991 145.966 32.5254 144.556 32.5254H141.196V46.7583ZM162.922 49.5992C161.494 49.5992 160.264 49.2941 159.232 48.6837C158.206 48.0671 157.413 47.2019 156.853 46.0882C156.3 44.9682 156.023 43.6563 156.023 42.1524C156.023 40.6675 156.3 39.3587 156.853 38.2261C157.413 37.0935 158.194 36.2095 159.194 35.574C160.201 34.9385 161.377 34.6207 162.724 34.6207C163.542 34.6207 164.335 34.756 165.102 35.0266C165.87 35.2971 166.559 35.7218 167.169 36.3007C167.78 36.8796 168.261 37.6315 168.613 38.5565C168.966 39.4751 169.142 40.592 169.142 41.907V42.9075H157.618V40.7933H166.377C166.377 40.0509 166.226 39.3933 165.924 38.8207C165.622 38.2419 165.197 37.7857 164.649 37.4522C164.108 37.1187 163.473 36.952 162.743 36.952C161.95 36.952 161.258 37.147 160.666 37.5371C160.081 37.921 159.628 38.4243 159.307 39.0473C158.993 39.6639 158.835 40.334 158.835 41.0576V42.7093C158.835 43.6783 159.005 44.5026 159.345 45.1821C159.691 45.8617 160.173 46.3808 160.789 46.7394C161.406 47.0918 162.126 47.268 162.951 47.268C163.485 47.268 163.973 47.1925 164.413 47.0415C164.854 46.8842 165.235 46.6513 165.555 46.343C165.876 46.0347 166.122 45.654 166.292 45.201L168.963 45.6824C168.749 46.4689 168.365 47.1579 167.811 47.7493C167.264 48.3345 166.575 48.7907 165.744 49.1179C164.92 49.4388 163.979 49.5992 162.922 49.5992ZM182.577 38.3488L180.019 38.8019C179.912 38.4747 179.742 38.1632 179.509 37.8675C179.283 37.5717 178.974 37.3295 178.584 37.1407C178.194 36.952 177.706 36.8576 177.121 36.8576C176.322 36.8576 175.655 37.0369 175.12 37.3956C174.586 37.7479 174.318 38.2041 174.318 38.7641C174.318 39.2486 174.497 39.6387 174.856 39.9345C175.215 40.2302 175.794 40.4724 176.593 40.6612L178.896 41.1897C180.23 41.4981 181.224 41.9731 181.878 42.6149C182.533 43.2567 182.86 44.0904 182.86 45.1161C182.86 45.9844 182.608 46.7583 182.105 47.4379C181.608 48.1111 180.912 48.6397 180.019 49.0235C179.132 49.4073 178.103 49.5992 176.932 49.5992C175.309 49.5992 173.985 49.2532 172.959 48.561C171.933 47.8626 171.304 46.8716 171.071 45.588L173.799 45.1727C173.969 45.8837 174.318 46.4217 174.847 46.7866C175.375 47.1453 176.064 47.3246 176.914 47.3246C177.839 47.3246 178.578 47.1327 179.132 46.7489C179.685 46.3588 179.962 45.8837 179.962 45.3237C179.962 44.8707 179.792 44.49 179.453 44.1817C179.119 43.8734 178.606 43.6405 177.914 43.4832L175.46 42.9453C174.107 42.6369 173.107 42.1462 172.459 41.4729C171.817 40.7996 171.496 39.947 171.496 38.9151C171.496 38.0594 171.735 37.3106 172.213 36.6688C172.692 36.027 173.352 35.5268 174.195 35.1681C175.039 34.8032 176.004 34.6207 177.093 34.6207C178.66 34.6207 179.893 34.9605 180.793 35.64C181.693 36.3133 182.287 37.2162 182.577 38.3488ZM185.403 49.3066V34.8095H188.225V49.3066H185.403ZM186.828 32.5726C186.337 32.5726 185.915 32.409 185.563 32.0818C185.217 31.7483 185.044 31.3519 185.044 30.8926C185.044 30.427 185.217 30.0306 185.563 29.7034C185.915 29.3699 186.337 29.2032 186.828 29.2032C187.319 29.2032 187.737 29.3699 188.083 29.7034C188.435 30.0306 188.612 30.427 188.612 30.8926C188.612 31.3519 188.435 31.7483 188.083 32.0818C187.737 32.409 187.319 32.5726 186.828 32.5726ZM197.539 55.0451C196.388 55.0451 195.397 54.8941 194.566 54.5921C193.742 54.29 193.069 53.8905 192.547 53.3934C192.024 52.8963 191.634 52.3521 191.376 51.7606L193.802 50.7601C193.972 51.037 194.198 51.3296 194.481 51.6379C194.771 51.9525 195.161 52.2199 195.652 52.4401C196.149 52.6604 196.787 52.7705 197.568 52.7705C198.637 52.7705 199.521 52.5094 200.22 51.9871C200.918 51.4711 201.267 50.6469 201.267 49.5143V46.6639H201.088C200.918 46.9722 200.673 47.3152 200.352 47.6927C200.037 48.0702 199.603 48.3974 199.049 48.6743C198.496 48.9511 197.775 49.0896 196.888 49.0896C195.743 49.0896 194.711 48.8221 193.792 48.2873C192.88 47.7462 192.156 46.9502 191.622 45.8994C191.093 44.8423 190.829 43.543 190.829 42.0014C190.829 40.4598 191.09 39.1385 191.612 38.0374C192.141 36.9362 192.864 36.0931 193.783 35.5079C194.702 34.9164 195.743 34.6207 196.907 34.6207C197.807 34.6207 198.534 34.7717 199.087 35.0738C199.641 35.3695 200.072 35.7156 200.38 36.112C200.695 36.5084 200.937 36.8576 201.107 37.1596H201.315V34.8095H204.08V49.6275C204.08 50.8734 203.791 51.8959 203.212 52.695C202.633 53.4941 201.849 54.0855 200.862 54.4694C199.88 54.8532 198.773 55.0451 197.539 55.0451ZM197.511 46.7489C198.323 46.7489 199.009 46.5601 199.569 46.1826C200.135 45.7988 200.563 45.2513 200.852 44.5403C201.148 43.823 201.296 42.9641 201.296 41.9637C201.296 40.9884 201.151 40.1295 200.862 39.387C200.572 38.6446 200.147 38.0657 199.587 37.6504C199.027 37.2288 198.335 37.018 197.511 37.018C196.662 37.018 195.954 37.2383 195.387 37.6787C194.821 38.1129 194.393 38.7043 194.104 39.4531C193.821 40.2019 193.679 41.0387 193.679 41.9637C193.679 42.9138 193.824 43.7475 194.113 44.4648C194.403 45.1821 194.831 45.7421 195.397 46.1448C195.969 46.5475 196.674 46.7489 197.511 46.7489ZM210.127 40.699V49.3066H207.305V34.8095H210.014V37.169H210.193C210.526 36.4014 211.049 35.7848 211.76 35.3191C212.477 34.8535 213.38 34.6207 214.468 34.6207C215.456 34.6207 216.321 34.8284 217.064 35.2436C217.806 35.6526 218.382 36.263 218.791 37.0747C219.2 37.8864 219.405 38.89 219.405 40.0855V49.3066H216.583V40.4252C216.583 39.3745 216.309 38.5533 215.761 37.9619C215.214 37.3641 214.462 37.0652 213.506 37.0652C212.851 37.0652 212.269 37.2068 211.76 37.4899C211.256 37.7731 210.857 38.1884 210.561 38.7358C210.272 39.2769 210.127 39.9313 210.127 40.699Z" fill="#FBFAFC"/>
<mask id="path-4-inside-1_876_617" fill="white">
<path d="M0.609375 24.3066C0.609375 11.0518 11.3545 0.306641 24.6094 0.306641H221.169C234.424 0.306641 245.169 11.0518 245.169 24.3066V54.3066C245.169 67.5615 234.424 78.3066 221.169 78.3066H24.6094C11.3545 78.3066 0.609375 67.5615 0.609375 54.3066V24.3066Z"/>
</mask>
<path d="M0.609375 24.3066C0.609375 10.4995 11.8023 -0.693359 25.6094 -0.693359H220.169C233.976 -0.693359 245.169 10.4995 245.169 24.3066C245.169 11.6041 234.424 1.30664 221.169 1.30664H24.6094C11.3545 1.30664 0.609375 11.6041 0.609375 24.3066ZM245.169 78.3066H0.609375H245.169ZM0.609375 78.3066V0.306641V78.3066ZM245.169 0.306641V78.3066V0.306641Z" fill="white" fill-opacity="0.1" mask="url(#path-4-inside-1_876_617)"/>
</g>
<defs>
<clipPath id="clip0_876_617">
<rect x="0.609375" y="0.306641" width="244.56" height="78" rx="24" fill="white"/>
</clipPath>
</defs>
</svg>
