<svg width="836" height="269" viewBox="0 0 836 269" fill="none" xmlns="http://www.w3.org/2000/svg">
<path d="M160.015 52.0321C129.159 40.0321 89.129 45.6987 73.4923 52.0321V202.242C72.6583 208.642 68.6275 210.575 66.7164 210.742H58.898V218.242H112.063V210.742H102.16C103.723 209.909 105.808 208.642 101.638 210.242C97.4685 211.842 95.3836 207.242 94.8624 204.742V152.242L114.669 174.242C111.75 165.442 115.885 154.242 118.317 149.742L113.105 143.742L160.015 97.242C164.602 94.042 171.656 93.5753 174.61 93.742C179.613 92.942 179.474 90.742 178.779 89.742H136.039C134.302 90.5753 132.078 92.542 137.082 93.742C142.085 94.942 141.946 96.242 141.251 96.742L137.082 102.742L94.8624 146.242V62.742C111.959 57.942 135.865 64.5321 145.942 66.5321C184.721 78.132 198.239 102.032 203.277 112.032C219.956 140.999 220.13 163.978 217.35 174.242C214.848 198.242 200.845 211.909 192.331 219.742C191.497 226.142 190.42 243.075 189.204 246.742C196.709 241.942 211.095 226.742 217.35 219.742C229.859 204.142 236.983 177.575 237.678 166.242C241.431 143.042 228.296 115.575 222.562 104.742C214.223 92.742 190.872 64.0321 160.015 52.0321Z" fill="white"/>
<path d="M182.428 138.242V163.742H179.301C180.691 159.075 179.405 148.542 163.143 143.742C146.881 138.942 137.603 149.409 134.997 155.242C134.752 168.042 144.972 177.575 150.113 180.742C153.449 181.942 164.707 191.242 169.919 195.742C179.093 202.942 183.818 213.742 185.035 218.242C187.954 230.242 184.513 240.909 182.429 244.742C179.927 258.342 151.503 265.409 137.603 267.242C107.581 270.042 80.2686 266.199 71.4076 262.032C57.8552 259.532 34.9214 237.242 22.9338 224.742C14.0213 215.449 3.96777 187.548 0.639082 173.485C0.232805 171.769 1.17201 170.05 2.80315 169.378C5.76043 168.161 15.0043 166.103 18.1933 166.343C20.5841 166.522 22.6635 167.485 22.9338 170.532C23.8025 175.365 26.4781 186.432 30.231 194.032C33.9838 201.632 38.0493 208.242 40.1342 210.742C44.999 219.075 61.0874 236.742 90.6929 246.742C120.298 256.742 142.294 249.575 153.24 244.742C170.44 232.742 166.27 227.242 165.749 224.742C165.251 222.356 152.718 211.742 145.942 206.742C125.615 192.242 127.699 190.242 122.487 182.742C118.562 177.094 118.317 164.742 119.36 158.742C121.097 151.909 129.055 137.742 146.985 135.742C164.915 133.742 178.084 136.575 182.428 138.242Z" fill="white"/>
<path d="M66.7166 61.742L66.7164 89.742L27.1034 126.532V92.032L66.7166 61.742Z" fill="white"/>
<path d="M287.632 193C284.56 193 282.213 192.531 280.592 191.592C278.971 190.568 277.819 188.904 277.136 186.6C276.453 184.211 276.112 180.797 276.112 176.36V108.52H292.752V176.36C292.752 180.712 293.349 183.955 294.544 186.088C295.739 188.136 298.128 189.16 301.712 189.16H302.992V193H287.632ZM385.643 194.28C380.267 194.28 375.104 193.213 370.155 191.08C365.291 188.861 360.043 184.808 354.411 178.92L333.803 157.416V193H317.163L317.035 125.16C317.035 120.808 316.438 117.608 315.243 115.56C314.048 113.427 311.659 112.36 308.075 112.36H306.795V108.52H322.155C325.142 108.52 327.446 109.032 329.067 110.056C330.774 111.08 331.968 112.787 332.651 115.176C333.419 117.565 333.803 120.893 333.803 125.16V149.48L355.947 121.96C359.104 117.864 362.475 114.621 366.059 112.232C369.728 109.757 373.91 108.52 378.603 108.52H387.563V113C382.272 113 377.707 113.683 373.867 115.048C370.112 116.328 366.87 118.675 364.139 122.088L345.067 145.64L374.635 176.36C377.792 179.859 381.334 182.931 385.259 185.576C389.27 188.136 392.512 189.587 394.987 189.928V193C392.427 193.853 389.312 194.28 385.643 194.28ZM474.009 193.512C468.633 193.512 463.769 192.403 459.417 190.184C455.065 187.88 451.524 183.443 448.793 176.872L445.849 169.704H411.801L401.305 193H394.649L432.409 108.52H438.169L466.841 176.872C470.084 184.808 474.521 189.075 480.153 189.672V192.872C478.617 193.299 476.569 193.512 474.009 193.512ZM414.489 163.944H443.417L429.337 130.536L414.489 163.944ZM556.884 193.512C551.508 193.512 546.644 192.403 542.292 190.184C537.94 187.88 534.399 183.443 531.668 176.872L528.724 169.704H494.676L484.18 193H477.524L515.284 108.52H521.044L549.716 176.872C552.959 184.808 557.396 189.075 563.028 189.672V192.872C561.492 193.299 559.444 193.512 556.884 193.512ZM497.364 163.944H526.292L512.212 130.536L497.364 163.944ZM578.319 129.64V193H571.919V123.88C571.919 120.296 571.023 117.48 569.231 115.432C567.524 113.384 564.58 112.36 560.399 112.36H559.759V108.52H568.719C573.498 108.52 577.38 109.16 580.367 110.44C583.439 111.635 585.999 113.555 588.047 116.2L632.079 167.4V108.52H638.479V193.384H632.591L578.319 129.64ZM682.944 195.176C678.165 195.176 673.557 194.536 669.12 193.256C664.683 192.061 661.056 190.312 658.24 188.008C655.424 185.619 654.016 182.888 654.016 179.816V164.84H657.6C658.88 173.544 661.568 179.816 665.664 183.656C669.76 187.496 675.477 189.416 682.816 189.416C687.765 189.416 691.691 188.349 694.592 186.216C697.493 184.083 698.944 181.011 698.944 177C698.944 173.587 697.877 170.685 695.744 168.296C693.611 165.907 690.283 163.304 685.76 160.488L670.016 151.016C664.299 147.688 660.203 144.232 657.728 140.648C655.339 137.064 654.144 132.883 654.144 128.104C654.144 121.363 656.704 116.029 661.824 112.104C667.029 108.179 674.027 106.216 682.816 106.216C687.595 106.216 692.203 106.856 696.64 108.136C701.077 109.331 704.704 111.123 707.52 113.512C710.336 115.816 711.744 118.504 711.744 121.576V136.552H708.16C706.709 127.848 704.021 121.576 700.096 117.736C696.171 113.896 690.88 111.976 684.224 111.976C679.616 111.976 675.947 113.085 673.216 115.304C670.571 117.523 669.248 120.552 669.248 124.392C669.248 127.72 670.272 130.493 672.32 132.712C674.453 134.845 677.867 137.277 682.56 140.008L698.304 149.352C704.277 152.851 708.544 156.264 711.104 159.592C713.749 162.835 715.072 166.76 715.072 171.368C715.072 178.792 712.256 184.637 706.624 188.904C701.077 193.085 693.184 195.176 682.944 195.176ZM731.91 125.16C731.91 120.808 731.313 117.608 730.118 115.56C728.923 113.427 726.534 112.36 722.95 112.36H721.67V108.52H737.03C740.102 108.52 742.449 109.032 744.07 110.056C745.691 111.08 746.843 112.787 747.526 115.176C748.209 117.48 748.55 120.808 748.55 125.16V146.28H783.11V108.52H799.75V176.36C799.75 180.712 800.347 183.955 801.542 186.088C802.737 188.136 805.126 189.16 808.71 189.16H809.99V193H794.63C791.558 193 789.211 192.531 787.59 191.592C785.969 190.568 784.817 188.904 784.134 186.6C783.451 184.211 783.11 180.797 783.11 176.36V152.04H748.55V193H731.91V125.16Z" fill="white"/>
<ellipse cx="17.4335" cy="14.6439" rx="17.4335" ry="14.6439" transform="matrix(0.990112 0.140283 0.028864 0.999583 57.332 0)" fill="white"/>
</svg>
