<svg width="532" height="216" viewBox="0 0 532 216" fill="none" xmlns="http://www.w3.org/2000/svg">
<rect width="175" height="216" rx="14" fill="white"/>
<path d="M61.5598 25.826C25.1598 49.426 40.3931 82.326 52.5598 95.826C36.5598 101.026 29.2265 119.326 27.5599 127.826C19.1599 163.826 46.7265 185.159 61.5598 191.326C105.16 207.326 134.393 180.993 143.56 165.826C164.36 125.826 138.56 102.493 123.06 95.826C144.26 79.8261 139.227 56.4927 134.06 46.826C113.26 10.026 77.0598 17.4927 61.5598 25.826Z" fill="black"/>
<circle cx="88.5598" cy="66.3262" r="17.5" fill="white"/>
<circle cx="88.0598" cy="137.826" r="26" fill="white"/>
<path d="M198.149 128.954L212.285 120.092C217.705 130.688 226.445 135.985 238.506 135.985C244.561 135.985 249.028 134.667 251.909 132.03C254.79 129.394 256.23 126.171 256.23 122.362C256.23 117.87 254.229 114.306 250.225 111.669C248.174 110.253 246.147 109.081 244.146 108.153C242.192 107.226 239.116 106.005 234.917 104.491C229.839 102.587 225.762 100.854 222.686 99.291C219.609 97.6797 216.631 95.7266 213.75 93.4316C207.842 88.5488 204.888 81.6885 204.888 72.8506C204.888 64.5498 207.988 57.7383 214.189 52.416C220.391 47.2402 228.105 44.6523 237.334 44.6523C251.641 44.6523 262.383 50.292 269.561 61.5713L256.23 70.7266C252.178 64.5254 245.977 61.4248 237.627 61.4248C233.477 61.4248 230.059 62.4746 227.373 64.5742C224.688 66.6738 223.345 69.335 223.345 72.5576C223.345 74.5596 223.687 76.1953 224.37 77.4648C225.054 78.6855 226.152 80.0527 227.666 81.5664C228.154 81.9082 228.887 82.3232 229.863 82.8115C230.84 83.2998 231.914 83.8369 233.086 84.4229C234.307 85.0088 235.112 85.3994 235.503 85.5947L240.923 87.7188L247.075 90.1357C256.792 94.0908 263.872 98.4365 268.315 103.173C272.759 107.909 274.98 114.159 274.98 121.923C274.98 131.347 271.807 138.866 265.459 144.481C259.111 150.048 250.078 152.831 238.359 152.831C228.789 152.831 220.513 150.731 213.53 146.532C206.597 142.333 201.47 136.474 198.149 128.954ZM284.868 113.793V113.207C284.868 101.342 288.579 91.6982 296.001 84.2764C303.472 76.9521 312.969 73.29 324.492 73.29C335.527 73.29 344.487 76.9521 351.372 84.2764C358.354 91.5518 361.846 100.585 361.846 111.376C361.846 112.938 361.748 115.038 361.553 117.675H302.739C303.032 123.681 305.229 128.49 309.331 132.104C313.481 135.717 318.877 137.523 325.518 137.523C333.33 137.523 340.142 134.618 345.952 128.808L356.719 139.281C348.125 148.314 337.529 152.831 324.932 152.831C313.066 152.831 303.423 149.267 296.001 142.138C288.579 135.009 284.868 125.561 284.868 113.793ZM303.179 105.077H343.535C343.535 100.634 341.631 96.8008 337.822 93.5781C334.062 90.2578 329.619 88.5977 324.492 88.5977C318.926 88.5977 314.092 90.209 309.99 93.4316C305.889 96.6543 303.618 100.536 303.179 105.077ZM410.039 151H394.878L362.432 75.4141H381.035L402.495 126.684L423.809 75.4141H442.412L410.039 151ZM481.67 73.7295C487.773 73.7295 492.974 74.9014 497.271 77.2451C501.616 79.54 504.448 82.5674 505.767 86.3271V75.4141H523.784V151H505.767V140.014C504.448 143.773 501.616 146.825 497.271 149.169C492.974 151.513 487.773 152.685 481.67 152.685C471.025 152.685 462.017 148.925 454.644 141.405C447.417 133.739 443.804 124.34 443.804 113.207C443.804 102.025 447.417 92.6748 454.644 85.1553C461.968 77.5381 470.977 73.7295 481.67 73.7295ZM484.014 136.278C490.557 136.278 496.025 134.081 500.42 129.687C504.912 125.341 507.158 119.848 507.158 113.207C507.158 106.566 504.912 101.073 500.42 96.7275C496.025 92.333 490.557 90.1357 484.014 90.1357C477.715 90.1357 472.368 92.333 467.974 96.7275C463.774 101.073 461.675 106.566 461.675 113.207C461.675 119.848 463.774 125.341 467.974 129.687C472.368 134.081 477.715 136.278 484.014 136.278Z" fill="white"/>
</svg>
