<svg width="1512" height="979" viewBox="0 0 1512 979" fill="none" xmlns="http://www.w3.org/2000/svg">
<g opacity="0.1">
<path opacity="0.5" d="M1863.47 1.01765L-405 1.01758" stroke="#9676FF" stroke-width="2"/>
<path opacity="0.5" d="M1863.47 82.4327L-405 82.4326" stroke="#9676FF" stroke-width="2"/>
<path opacity="0.5" d="M1863.47 163.848L-405 163.848" stroke="#9676FF" stroke-width="2"/>
<path opacity="0.5" d="M1863.47 245.263H-405" stroke="#9676FF" stroke-width="2"/>
<path opacity="0.5" d="M1863.47 326.678H-405" stroke="#9676FF" stroke-width="2"/>
<path opacity="0.5" d="M1863.47 408.093H-405" stroke="#9676FF" stroke-width="2"/>
<path opacity="0.5" d="M1863.47 489.508H-405" stroke="#9676FF" stroke-width="2"/>
<path opacity="0.5" d="M1863.47 570.924L-405 570.923" stroke="#9676FF" stroke-width="2"/>
<path opacity="0.5" d="M1863.47 652.34H-405" stroke="#9676FF" stroke-width="2"/>
<path opacity="0.5" d="M1863.47 733.755H-405" stroke="#9676FF" stroke-width="2"/>
<path opacity="0.5" d="M1863.47 815.17H-405" stroke="#9676FF" stroke-width="2"/>
<path opacity="0.5" d="M1863.47 896.585H-405" stroke="#9676FF" stroke-width="2"/>
<path opacity="0.5" d="M1863.47 978H-405" stroke="#9676FF" stroke-width="2"/>
<path opacity="0.5" d="M24.9375 0V976.98" stroke="#9676FF" stroke-width="2"/>
<path opacity="0.5" d="M86.2461 0V976.98" stroke="#9676FF" stroke-width="2"/>
<path opacity="0.5" d="M147.555 0V976.98" stroke="#9676FF" stroke-width="2"/>
<path opacity="0.5" d="M208.867 0V976.98" stroke="#9676FF" stroke-width="2"/>
<path opacity="0.5" d="M270.176 0V976.98" stroke="#9676FF" stroke-width="2"/>
<path opacity="0.5" d="M331.484 0V976.98" stroke="#9676FF" stroke-width="2"/>
<path opacity="0.5" d="M392.797 0V976.98" stroke="#9676FF" stroke-width="2"/>
<path opacity="0.5" d="M454.105 0V976.98" stroke="#9676FF" stroke-width="2"/>
<path opacity="0.5" d="M515.418 0V976.98" stroke="#9676FF" stroke-width="2"/>
<path opacity="0.5" d="M576.727 0V976.98" stroke="#9676FF" stroke-width="2"/>
<path opacity="0.5" d="M638.035 0V976.98" stroke="#9676FF" stroke-width="2"/>
<path opacity="0.5" d="M699.348 0V976.98" stroke="#9676FF" stroke-width="2"/>
<path opacity="0.5" d="M760.656 0V976.98" stroke="#9676FF" stroke-width="2"/>
<path opacity="0.5" d="M821.965 0V976.98" stroke="#9676FF" stroke-width="2"/>
<path opacity="0.5" d="M883.277 0V976.98" stroke="#9676FF" stroke-width="2"/>
<path opacity="0.5" d="M944.586 0V976.98" stroke="#9676FF" stroke-width="2"/>
<path opacity="0.5" d="M1005.89 0V976.98" stroke="#9676FF" stroke-width="2"/>
<path opacity="0.5" d="M1067.21 0V976.98" stroke="#9676FF" stroke-width="2"/>
<path opacity="0.5" d="M1128.52 0V976.98" stroke="#9676FF" stroke-width="2"/>
<path opacity="0.5" d="M1189.82 0V976.98" stroke="#9676FF" stroke-width="2"/>
<path opacity="0.5" d="M1251.13 0V976.98" stroke="#9676FF" stroke-width="2"/>
<path opacity="0.5" d="M1312.45 0V976.98" stroke="#9676FF" stroke-width="2"/>
<path opacity="0.5" d="M1373.75 0V976.98" stroke="#9676FF" stroke-width="2"/>
<path opacity="0.5" d="M1435.06 0V976.98" stroke="#9676FF" stroke-width="2"/>
<path opacity="0.5" d="M1496.38 0V976.98" stroke="#9676FF" stroke-width="2"/>
</g>
</svg>
