<svg width="858" height="101" viewBox="0 0 858 101" fill="none" xmlns="http://www.w3.org/2000/svg">
<path d="M709.869 100.811C671.152 100.811 651.274 76.8999 633.736 55.8046C616.865 35.5103 600.929 16.3409 569.423 16.3409C537.92 16.3409 521.985 35.5103 505.115 55.8031C487.578 76.8999 467.702 100.811 428.986 100.811C390.273 100.811 370.396 76.8999 352.859 55.8031C335.99 35.5088 320.056 16.3409 288.553 16.3409C257.05 16.3409 241.114 35.5103 224.245 55.8046C206.708 76.8999 186.833 100.811 148.117 100.811C109.402 100.811 89.527 76.8999 71.9901 55.8031C55.1207 35.5088 39.1868 16.3409 7.6837 16.3409C3.4411 16.3409 0 12.9018 0 8.66166C0 4.42152 3.4411 0.982422 7.6837 0.982422C46.3974 0.982422 66.2741 24.8934 83.811 45.9887C100.68 66.283 116.616 85.4524 148.119 85.4524C179.622 85.4524 195.556 66.283 212.427 45.9902C229.964 24.8934 249.84 0.983938 288.556 0.983938C327.269 0.983938 347.146 24.8949 364.683 45.9902C381.552 66.2845 397.486 85.4524 428.989 85.4524C460.493 85.4524 476.428 66.283 493.297 45.9902C510.834 24.8934 530.711 0.983938 569.426 0.983938C608.143 0.983938 628.021 24.8949 645.56 45.9902C662.431 66.2845 678.366 85.4539 709.872 85.4539C741.377 85.4539 757.312 66.2845 774.183 45.9917C791.721 24.8949 811.599 0.985432 850.316 0.985432C854.559 0.985432 858 4.42302 858 8.66467C858 12.9048 854.559 16.3439 850.316 16.3439C818.81 16.3439 802.875 35.5134 786.004 55.8076C768.462 76.8999 748.586 100.811 709.869 100.811Z" fill="white"/>
</svg>
