<svg width="249" height="100" viewBox="0 0 249 100" fill="none" xmlns="http://www.w3.org/2000/svg">
<rect width="81.9079" height="99.7368" rx="14" fill="#75DBDB"/>
<path d="M28.8077 11.9253C11.7708 22.8225 18.9007 38.0139 24.5952 44.2474C17.1065 46.6486 13.6742 55.0984 12.8942 59.0232C8.96259 75.646 21.865 85.4966 28.8077 88.344C49.2144 95.7319 62.897 83.5726 67.1874 76.5695C76.9227 58.0997 64.8472 47.3257 57.5925 44.2474C67.515 36.8596 65.1592 26.0855 62.741 21.622C53.0056 4.62976 36.0624 8.07745 28.8077 11.9253Z" fill="white"/>
<ellipse cx="41.4486" cy="30.6259" rx="8.19079" ry="8.08053" fill="#75DBDB"/>
<ellipse cx="41.216" cy="63.6406" rx="12.1692" ry="12.0054" fill="#75DBDB"/>
<path d="M92.6174 62.9797L98.6334 59.2037C100.937 63.7477 104.649 65.9877 109.833 65.9877C115.401 65.9877 117.385 63.0437 117.385 60.1637C117.385 58.1797 116.681 56.8357 114.825 55.6197C112.969 54.3397 111.625 53.7637 108.297 52.5477C104.201 51.0117 101.833 49.8597 99.2734 47.8117C96.7134 45.6997 95.4974 42.8197 95.4974 39.0437C95.4974 35.4597 96.8414 32.5797 99.4654 30.3397C102.153 28.0997 105.417 27.0117 109.321 27.0117C115.401 27.0117 120.009 29.4437 123.081 34.2437L117.385 38.1477C115.657 35.5237 113.033 34.1797 109.449 34.1797C105.929 34.1797 103.369 36.1637 103.369 38.9157C103.369 40.7717 104.137 41.6677 105.225 42.7557C105.929 43.2677 107.721 44.0357 108.553 44.4837L110.857 45.3797L113.481 46.4037C117.705 48.1317 120.713 49.9877 122.569 51.9717C124.425 53.9557 125.385 56.6437 125.385 59.9717C125.385 67.8437 119.945 73.1557 109.769 73.1557C101.513 73.1557 95.4334 69.3157 92.6174 62.9797ZM129.632 56.5157V56.2597C129.632 51.1397 131.232 47.0437 134.368 43.9077C137.568 40.7717 141.6 39.2357 146.528 39.2357C151.2 39.2357 155.04 40.7717 157.984 43.9077C160.992 47.0437 162.464 50.8837 162.464 55.4917C162.464 56.4517 162.4 57.3477 162.336 58.1797H137.248C137.504 63.2997 141.28 66.6277 146.976 66.6277C150.304 66.6277 153.184 65.4117 155.68 62.9157L160.288 67.3957C156.64 71.2357 152.16 73.1557 146.72 73.1557C141.664 73.1557 137.504 71.6197 134.368 68.6117C131.232 65.6037 129.632 61.5717 129.632 56.5157ZM137.44 52.8037H154.656C154.656 50.8837 153.824 49.2197 152.224 47.8757C150.624 46.4677 148.768 45.7637 146.528 45.7637C144.16 45.7637 142.048 46.4677 140.32 47.8117C138.592 49.1557 137.632 50.8197 137.44 52.8037ZM183.009 72.3877H176.545L162.721 40.1317H170.657L179.809 62.0197L188.897 40.1317H196.833L183.009 72.3877ZM213.573 39.4277C218.885 39.4277 222.789 41.6677 223.877 44.8037V40.1317H231.557V72.3877H223.877V67.7157C222.789 70.8517 218.885 73.0917 213.573 73.0917C209.029 73.0917 205.189 71.4917 202.053 68.2917C198.981 65.0277 197.445 61.0597 197.445 56.2597C197.445 51.4597 198.981 47.4917 202.053 44.2917C205.189 41.0277 209.029 39.4277 213.573 39.4277ZM214.597 66.1157C217.349 66.1157 219.717 65.1557 221.573 63.2997C223.493 61.4437 224.453 59.0757 224.453 56.2597C224.453 53.4437 223.493 51.0757 221.573 49.2197C219.717 47.3637 217.349 46.4037 214.597 46.4037C211.845 46.4037 209.605 47.3637 207.749 49.2197C205.957 51.0757 205.061 53.4437 205.061 56.2597C205.061 59.0757 205.957 61.4437 207.749 63.2997C209.605 65.1557 211.845 66.1157 214.597 66.1157Z" fill="white"/>
</svg>
