<svg width="231" height="85" viewBox="0 0 231 85" fill="none" xmlns="http://www.w3.org/2000/svg">
<rect width="69.3396" height="85" rx="14" fill="#FF6B00"/>
<path d="M24.3944 10.1632C9.97178 19.4503 16.0076 32.397 20.8284 37.7095C14.4888 39.7559 11.5831 46.9572 10.9228 50.3021C7.59446 64.4687 18.5171 72.8638 24.3944 75.2905C41.6699 81.5868 53.2529 71.2241 56.885 65.2558C65.1265 49.515 54.9039 40.333 48.7624 37.7095C57.1624 31.4133 55.168 22.2311 53.1209 18.4271C44.8794 3.94563 30.5359 6.8839 24.3944 10.1632Z" fill="white"/>
<ellipse cx="35.0902" cy="26.1004" rx="6.93396" ry="6.88657" fill="#FF6B00"/>
<ellipse cx="34.8956" cy="54.2373" rx="10.3019" ry="10.2315" fill="#FF6B00"/>
<path d="M77.84 33.12L81.6 30.76C83.04 33.6 85.36 35 88.6 35C92.08 35 93.32 33.16 93.32 31.36C93.32 30.12 92.88 29.28 91.72 28.52C90.56 27.72 89.72 27.36 87.64 26.6C85.08 25.64 83.6 24.92 82 23.64C80.4 22.32 79.64 20.52 79.64 18.16C79.64 15.92 80.48 14.12 82.12 12.72C83.8 11.32 85.84 10.64 88.28 10.64C92.08 10.64 94.96 12.16 96.88 15.16L93.32 17.6C92.24 15.96 90.6 15.12 88.36 15.12C86.16 15.12 84.56 16.36 84.56 18.08C84.56 19.24 85.04 19.8 85.72 20.48C86.16 20.8 87.28 21.28 87.8 21.56L89.24 22.12L90.88 22.76C93.52 23.84 95.4 25 96.56 26.24C97.72 27.48 98.32 29.16 98.32 31.24C98.32 36.16 94.92 39.48 88.56 39.48C83.4 39.48 79.6 37.08 77.84 33.12ZM100.974 29.08V28.92C100.974 25.72 101.974 23.16 103.934 21.2C105.934 19.24 108.454 18.28 111.534 18.28C114.454 18.28 116.854 19.24 118.694 21.2C120.574 23.16 121.494 25.56 121.494 28.44C121.494 29.04 121.454 29.6 121.414 30.12H105.734C105.894 33.32 108.254 35.4 111.814 35.4C113.894 35.4 115.694 34.64 117.254 33.08L120.134 35.88C117.854 38.28 115.054 39.48 111.654 39.48C108.494 39.48 105.894 38.52 103.934 36.64C101.974 34.76 100.974 32.24 100.974 29.08ZM105.854 26.76H116.614C116.614 25.56 116.094 24.52 115.094 23.68C114.094 22.8 112.934 22.36 111.534 22.36C110.054 22.36 108.734 22.8 107.654 23.64C106.574 24.48 105.974 25.52 105.854 26.76ZM134.335 39H130.295L121.655 18.84H126.615L132.335 32.52L138.015 18.84H142.975L134.335 39ZM153.437 18.4C156.757 18.4 159.197 19.8 159.877 21.76V18.84H164.677V39H159.877V36.08C159.197 38.04 156.757 39.44 153.437 39.44C150.597 39.44 148.197 38.44 146.237 36.44C144.317 34.4 143.357 31.92 143.357 28.92C143.357 25.92 144.317 23.44 146.237 21.44C148.197 19.4 150.597 18.4 153.437 18.4ZM154.077 35.08C155.797 35.08 157.277 34.48 158.437 33.32C159.637 32.16 160.237 30.68 160.237 28.92C160.237 27.16 159.637 25.68 158.437 24.52C157.277 23.36 155.797 22.76 154.077 22.76C152.357 22.76 150.957 23.36 149.797 24.52C148.677 25.68 148.117 27.16 148.117 28.92C148.117 30.68 148.677 32.16 149.797 33.32C150.957 34.48 152.357 35.08 154.077 35.08Z" fill="black"/>
<path d="M83.7296 73.0229H79.7296V50.7189H88.2416C90.1296 50.7189 91.8256 51.3909 93.2976 52.7349C94.7696 54.0789 95.5056 55.8389 95.5056 57.9829C95.5056 60.0629 94.7696 61.7909 93.2976 63.1669C91.8576 64.5429 90.1616 65.2149 88.2416 65.2149H83.7296V73.0229ZM83.7296 54.3349V61.5989H88.0496C89.8416 61.5989 91.5376 60.2869 91.5376 57.9829C91.5376 55.6469 89.8416 54.3349 88.0496 54.3349H83.7296ZM104.728 56.5429C107.384 56.5429 109.336 57.6629 109.88 59.2309V56.8949H113.72V73.0229H109.88V70.6869C109.336 72.2549 107.384 73.3749 104.728 73.3749C102.456 73.3749 100.536 72.5749 98.9679 70.9749C97.4319 69.3429 96.6639 67.3589 96.6639 64.9589C96.6639 62.5589 97.4319 60.5749 98.9679 58.9749C100.536 57.3429 102.456 56.5429 104.728 56.5429ZM105.24 69.8869C106.616 69.8869 107.8 69.4069 108.728 68.4789C109.688 67.5509 110.168 66.3669 110.168 64.9589C110.168 63.5509 109.688 62.3669 108.728 61.4389C107.8 60.5109 106.616 60.0309 105.24 60.0309C103.864 60.0309 102.744 60.5109 101.816 61.4389C100.92 62.3669 100.472 63.5509 100.472 64.9589C100.472 66.3669 100.92 67.5509 101.816 68.4789C102.744 69.4069 103.864 69.8869 105.24 69.8869ZM120.863 73.0229H117.055V56.8949H120.863V59.2949C121.631 57.5989 123.391 56.5749 125.663 56.5749C126.111 56.5749 126.495 56.6069 126.815 56.6709V60.3829C126.335 60.2869 125.791 60.2229 125.215 60.2229C122.559 60.2229 120.863 61.8869 120.863 64.5429V73.0229ZM134.452 73.0229H130.612V60.3829H128.532V56.8949H130.612V50.7189H134.452V56.8949H137.94V60.3829H134.452V73.0229ZM144.082 73.0229H140.274V56.8949H144.082V59.1989C144.85 57.6309 146.674 56.5749 148.978 56.5749C152.818 56.5749 155.09 59.0389 155.09 63.0389V73.0229H151.25V63.5829C151.25 61.3749 149.97 59.9989 147.826 59.9989C145.65 59.9989 144.082 61.5349 144.082 63.7429V73.0229ZM157.633 65.0869V64.9589C157.633 62.3989 158.433 60.3509 160.001 58.7829C161.601 57.2149 163.617 56.4469 166.081 56.4469C168.417 56.4469 170.337 57.2149 171.809 58.7829C173.313 60.3509 174.049 62.2709 174.049 64.5749C174.049 65.0549 174.017 65.5029 173.985 65.9189H161.441C161.569 68.4789 163.457 70.1429 166.305 70.1429C167.969 70.1429 169.409 69.5349 170.657 68.2869L172.961 70.5269C171.137 72.4469 168.897 73.4069 166.177 73.4069C163.649 73.4069 161.569 72.6389 160.001 71.1349C158.433 69.6309 157.633 67.6149 157.633 65.0869ZM161.537 63.2309H170.145C170.145 62.2709 169.729 61.4389 168.929 60.7669C168.129 60.0629 167.201 59.7109 166.081 59.7109C164.897 59.7109 163.841 60.0629 162.977 60.7349C162.113 61.4069 161.633 62.2389 161.537 63.2309ZM180.426 73.0229H176.618V56.8949H180.426V59.2949C181.194 57.5989 182.954 56.5749 185.226 56.5749C185.674 56.5749 186.058 56.6069 186.378 56.6709V60.3829C185.898 60.2869 185.354 60.2229 184.778 60.2229C182.122 60.2229 180.426 61.8869 180.426 64.5429V73.0229ZM187.151 70.1749L189.615 68.0949C190.351 69.2469 191.919 70.1109 193.871 70.1109C195.887 70.1109 196.751 69.3429 196.751 68.3509C196.751 67.8069 196.367 67.3589 195.823 67.0709C195.471 66.8469 194.799 66.6229 194.319 66.4629C193.839 66.3029 192.879 66.0149 192.335 65.7909C189.743 64.8629 188.367 63.5509 188.367 61.2469C188.367 59.7429 188.911 58.5909 189.999 57.7269C191.119 56.8629 192.463 56.4149 194.063 56.4149C196.335 56.4149 198.063 57.2149 199.279 58.7829L197.135 61.0549C196.431 60.1589 195.375 59.7109 193.999 59.7109C192.815 59.7109 192.047 60.2869 192.047 61.1509C192.047 61.6949 192.335 61.9829 192.783 62.2709C193.039 62.4309 193.679 62.6869 194.095 62.8469C194.575 62.9749 195.471 63.2949 196.111 63.5189C199.087 64.5749 200.431 66.0149 200.431 68.3189C200.431 71.2949 198.191 73.4389 193.807 73.4389C190.575 73.4389 188.175 72.1909 187.151 70.1749Z" fill="#FF6B00"/>
</svg>
