<svg width="20" height="20" viewBox="0 0 20 20" fill="none" xmlns="http://www.w3.org/2000/svg">
<path d="M18.8541 9.11386C14.748 8.38883 11.5602 5.10654 11.0109 0.956102C10.934 0.382055 10.1805 0.218489 9.97493 0.816128C9.21054 3.02582 8.32374 5.28898 6.71648 7.03471C5.93012 7.88871 4.97109 8.57442 3.89122 9.00692C2.8239 9.4347 1.76128 9.38438 0.65315 9.54794C0.565253 9.56052 0.552686 9.70049 0.628026 9.73824C0.715923 9.78227 0.805398 9.8153 0.896434 9.84833C0.764589 9.90495 0.635879 9.98044 0.510312 10.0795C0.387884 10.177 0.36278 10.4161 0.450677 10.5435C1.04712 11.4148 2.10188 11.4163 3.03421 11.7812C4.05445 12.1807 5.02603 12.7579 5.87361 13.453C7.52168 14.8072 9.03318 16.8187 9.35338 18.9796C9.46953 19.7613 10.7958 19.7534 10.9198 18.9796C11.5838 14.8559 14.7057 11.6507 18.8525 11.0074C19.799 10.8596 19.7801 9.27743 18.8541 9.11386Z" fill="#F0F1E3"/>
<path d="M18.9741 8.68807C16.5915 8.23355 14.4427 6.94705 13.0348 4.94653C12.3787 4.0139 11.9015 2.96489 11.63 1.85612C11.4621 1.16726 11.4919 0.0789314 10.5439 0.00344026C9.55972 -0.0736236 9.39647 1.16254 9.13906 1.8514C8.65092 3.15991 8.07803 4.44641 7.2901 5.60394C6.50059 6.76304 5.46937 7.76802 4.20114 8.3861C3.37868 8.78715 2.54051 8.90825 1.6427 8.99475C1.21107 9.03721 0.576965 8.9633 0.270895 9.31873C0.131202 9.48072 0.112357 9.66473 0.201823 9.85346C0.327391 10.1224 0.514164 10.1617 0.782564 10.2718C0.748033 10.0029 0.71193 9.73393 0.677399 9.46342C-0.181166 9.90064 -0.212543 10.643 0.520455 11.2548C1.4418 12.0238 2.856 12.1025 3.90605 12.6624C5.2402 13.3732 6.41426 14.3829 7.33718 15.5814C7.79079 16.1711 8.18319 16.8097 8.47356 17.4969C8.72156 18.082 8.73567 18.818 9.0229 19.3669C9.35723 20.0023 10.2315 20.1753 10.8295 19.8136C11.1607 19.6123 11.2847 19.3307 11.371 18.9674C11.5201 18.3399 11.6457 17.7234 11.878 17.1179C12.8072 14.6943 14.7896 12.7473 17.2287 11.8713C18.1014 11.5583 19.4795 11.6542 19.886 10.6524C20.2141 9.84717 19.8107 8.92712 18.9741 8.68807C18.4279 8.53237 18.194 9.38479 18.7402 9.54049C19.0463 9.62856 19.2064 9.9667 19.0918 10.2702C18.9757 10.5769 18.7654 10.5596 18.4828 10.6257C17.8958 10.7641 17.3229 10.893 16.7594 11.1101C15.758 11.4954 14.8288 12.0333 14.0001 12.7158C12.3363 14.0841 11.1575 16.0076 10.6537 18.1009C10.6082 18.2912 10.6129 18.6985 10.5015 18.8636C10.1248 19.4157 9.86735 18.9847 9.73707 18.5821C9.56128 18.0395 9.44356 17.5001 9.20655 16.9732C8.69016 15.8251 7.92106 14.7934 7.03424 13.9048C6.10347 12.9722 5.01105 12.189 3.81502 11.6354C3.29235 11.3947 2.7587 11.2249 2.2062 11.066C1.91426 10.9811 0.489054 10.5549 1.12474 10.2309C1.50144 10.039 1.33663 9.55464 1.01957 9.42253C1.00231 9.41781 0.983478 9.41467 0.966212 9.40995C0.942669 9.58924 0.920708 9.76696 0.897165 9.94468C1.04157 9.77797 2.48087 9.79841 2.732 9.7591C3.30804 9.66945 3.85583 9.51375 4.38635 9.27313C5.43483 8.79659 6.37031 8.08729 7.13627 7.23015C7.94774 6.32268 8.5897 5.27838 9.11394 4.18219C9.37449 3.63802 9.60837 3.0797 9.82655 2.51824C9.95054 2.19897 10.0306 1.80265 10.2017 1.50855C10.2362 1.41261 10.2692 1.31667 10.3037 1.21916C10.5564 0.973814 10.6647 1.01156 10.627 1.32925C10.8185 1.77748 10.8358 2.3531 10.9927 2.82649C11.1497 3.30146 11.3459 3.76541 11.5703 4.21207C12.0161 5.09752 12.6032 5.91692 13.2906 6.62936C14.7566 8.15019 16.6747 9.14416 18.7402 9.53734C19.2943 9.64586 19.5329 8.79501 18.9741 8.68807Z" fill="black"/>
</svg>
